<svg version="1.1" viewBox="0.0 0.0 612.0 379.0" fill="none" stroke="none" stroke-linecap="square" stroke-miterlimit="10" width="612" height="379" xmlns:xlink="http://www.w3.org/1999/xlink" xmlns="http://www.w3.org/2000/svg"><path fill="#ffffff" d="M0 0L612.0 0L612.0 379.0L0 379.0L0 0Z" fill-rule="nonzero"/><path stroke="#cccccc" stroke-width="1.0" stroke-linecap="butt" d="M201.5 25.5L201.5 316.5" fill-rule="nonzero"/><path stroke="#cccccc" stroke-width="1.0" stroke-linecap="butt" d="M326.5 25.5L326.5 316.5" fill-rule="nonzero"/><path stroke="#cccccc" stroke-width="1.0" stroke-linecap="butt" d="M450.5 25.5L450.5 316.5" fill-rule="nonzero"/><path stroke="#cccccc" stroke-width="1.0" stroke-linecap="butt" d="M575.5 25.5L575.5 316.5" fill-rule="nonzero"/><path stroke="#000000" stroke-width="1.0" stroke-linecap="butt" stroke-opacity="0.0" d="M160.5 25.5L160.5 316.5" fill-rule="nonzero"/><path stroke="#000000" stroke-width="1.0" stroke-linecap="butt" stroke-opacity="0.0" d="M118.5 25.5L118.5 316.5" fill-rule="nonzero"/><path stroke="#000000" stroke-width="1.0" stroke-linecap="butt" stroke-opacity="0.0" d="M284.5 25.5L284.5 316.5" fill-rule="nonzero"/><path stroke="#000000" stroke-width="1.0" stroke-linecap="butt" stroke-opacity="0.0" d="M243.5 25.5L243.5 316.5" fill-rule="nonzero"/><path stroke="#000000" stroke-width="1.0" stroke-linecap="butt" stroke-opacity="0.0" d="M409.5 25.5L409.5 316.5" fill-rule="nonzero"/><path stroke="#000000" stroke-width="1.0" stroke-linecap="butt" stroke-opacity="0.0" d="M367.5 25.5L367.5 316.5" fill-rule="nonzero"/><path stroke="#000000" stroke-width="1.0" stroke-linecap="butt" stroke-opacity="0.0" d="M533.5 25.5L533.5 316.5" fill-rule="nonzero"/><path stroke="#000000" stroke-width="1.0" stroke-linecap="butt" stroke-opacity="0.0" d="M492.5 25.5L492.5 316.5" fill-rule="nonzero"/><path stroke="#333333" stroke-width="1.0" stroke-linecap="butt" d="M94.5 316.5L593.5 316.5" fill-rule="nonzero"/><path stroke="#cccccc" stroke-width="1.0" stroke-linecap="butt" d="M94.5 219.5L593.5 219.5" fill-rule="nonzero"/><path stroke="#cccccc" stroke-width="1.0" stroke-linecap="butt" d="M94.5 122.5L593.5 122.5" fill-rule="nonzero"/><path stroke="#cccccc" stroke-width="1.0" stroke-linecap="butt" d="M94.5 25.5L593.5 25.5" fill-rule="nonzero"/><path stroke="#eeeeee" stroke-width="1.0" stroke-linecap="butt" d="M94.95 106.96261L94.95 122.96261" fill-rule="nonzero"/><path stroke="#eeeeee" stroke-width="1.0" stroke-linecap="butt" d="M219.475 135.81854L219.475 151.81854" fill-rule="nonzero"/><path stroke="#eeeeee" stroke-width="1.0" stroke-linecap="butt" d="M344.0 132.98264L344.0 148.98264" fill-rule="nonzero"/><path stroke="#eeeeee" stroke-width="1.0" stroke-linecap="butt" d="M468.525 108.47818L468.525 124.47818" fill-rule="nonzero"/><path stroke="#eeeeee" stroke-width="1.0" stroke-linecap="butt" d="M593.05 47.89313L593.05 63.89313" fill-rule="nonzero"/><clipPath id="id_0"><path d="M94.95 25.95L593.05 25.95L593.05 316.98782L94.95 316.98782L94.95 25.95Z" clip-rule="nonzero"/></clipPath><path stroke="#000000" stroke-width="2.0" stroke-linecap="butt" clip-path="url(#id_0)" d="M94.95 122.96261L219.475 151.81854L344.0 148.98264L468.525 124.47818L593.05 63.89313" fill-rule="nonzero"/><path fill="#000000" clip-path="url(#id_0)" d="M94.95 122.96261C94.95 122.96261 94.95 122.96261 94.95 122.96261C94.95 122.96261 94.95 122.96261 94.95 122.96261C94.95 122.96261 94.95 122.96261 94.95 122.96261C94.95 122.96261 94.95 122.96261 94.95 122.96261Z" fill-rule="nonzero"/><path fill="#000000" clip-path="url(#id_0)" d="M221.475 151.81854C221.475 152.92311 220.57957 153.81854 219.475 153.81854C218.37044 153.81854 217.475 152.92311 217.475 151.81854C217.475 150.71397 218.37044 149.81854 219.475 149.81854C220.57957 149.81854 221.475 150.71397 221.475 151.81854Z" fill-rule="nonzero"/><path fill="#000000" clip-path="url(#id_0)" d="M346.0 148.98264C346.0 150.0872 345.10458 150.98264 344.0 150.98264C342.89542 150.98264 342.0 150.0872 342.0 148.98264C342.0 147.87807 342.89542 146.98264 344.0 146.98264C345.10458 146.98264 346.0 147.87807 346.0 148.98264Z" fill-rule="nonzero"/><path fill="#000000" clip-path="url(#id_0)" d="M468.525 124.47818C468.525 124.47818 468.525 124.47818 468.525 124.47818C468.525 124.47818 468.525 124.47818 468.525 124.47818C468.525 124.47818 468.525 124.47818 468.525 124.47818C468.525 124.47818 468.525 124.47818 468.525 124.47818Z" fill-rule="nonzero"/><path fill="#000000" clip-path="url(#id_0)" d="M593.05 63.89313C593.05 63.89313 593.05 63.89313 593.05 63.89313C593.05 63.89313 593.05 63.89313 593.05 63.89313C593.05 63.89313 593.05 63.89313 593.05 63.89313C593.05 63.89313 593.05 63.89313 593.05 63.89313Z" fill-rule="nonzero"/><path stroke="#ffffff" stroke-width="3.0" stroke-linejoin="round" stroke-linecap="round" d="M81.46562 102.75948Q81.46562 102.22823 81.09062 101.86886Q80.71562 101.49386 79.80937 101.18136Q78.55937 100.80636 77.98125 100.19698Q77.41875 99.58761 77.41875 98.63448Q77.41875 97.68136 77.98125 97.07198Q78.54375 96.44698 79.52812 96.33761L79.52812 95.04073L80.3875 95.04073L80.3875 96.33761Q81.37187 96.47823 81.91875 97.16573Q82.48125 97.85323 82.48125 99.05636L81.40312 99.05636Q81.40312 98.22823 80.99687 97.74386Q80.60625 97.25948 79.95 97.25948Q79.24687 97.25948 78.87187 97.61886Q78.5125 97.97823 78.5125 98.61886Q78.5125 99.21261 78.90312 99.57198Q79.29375 99.93136 80.18437 100.22823Q81.075 100.50948 81.575 100.86886Q82.075 101.21261 82.30937 101.68136Q82.54375 102.13448 82.54375 102.75948Q82.54375 103.74386 81.95 104.35323Q81.35625 104.94698 80.29375 105.05636L80.29375 106.18136L79.41875 106.18136L79.41875 105.05636Q78.325 104.96261 77.7 104.29073Q77.09062 103.60323 77.09062 102.44698L78.18437 102.44698Q78.18437 103.25948 78.60625 103.69698Q79.02812 104.13448 79.825 104.13448Q80.59062 104.13448 81.02812 103.77511Q81.46562 103.40011 81.46562 102.75948ZM87.71562 104.96261L86.6375 104.96261L86.6375 97.74386L84.45 98.54073L84.45 97.55636L87.55937 96.38448L87.71562 96.38448L87.71562 104.96261ZM96.5125 101.32198Q96.5125 103.22823 95.85625 104.16573Q95.21562 105.08761 93.825 105.08761Q92.46562 105.08761 91.80937 104.18136Q91.15312 103.27511 91.12187 101.46261L91.12187 100.02511Q91.12187 98.13448 91.7625 97.22823Q92.41875 96.30636 93.80937 96.30636Q95.18437 96.30636 95.84062 97.19698Q96.49687 98.07198 96.5125 99.91573L96.5125 101.32198ZM95.41875 99.83761Q95.41875 98.46261 95.02812 97.83761Q94.65312 97.19698 93.80937 97.19698Q92.98125 97.19698 92.59062 97.83761Q92.21562 98.46261 92.21562 99.75948L92.21562 101.49386Q92.21562 102.86886 92.60625 103.54073Q93.0125 104.19698 93.825 104.19698Q94.62187 104.19698 95.0125 103.57198Q95.40312 102.94698 95.41875 101.61886L95.41875 99.83761ZM98.23125 106.66573L97.62187 106.24386Q98.16875 105.47823 98.2 104.65011L98.2 103.68136L99.2625 103.68136L99.2625 104.52511Q99.2625 105.11886 98.96562 105.71261Q98.66875 106.30636 98.23125 106.66573ZM105.5125 101.32198Q105.5125 103.22823 104.85625 104.16573Q104.21562 105.08761 102.825 105.08761Q101.46562 105.08761 100.80937 104.18136Q100.15312 103.27511 100.12187 101.46261L100.12187 100.02511Q100.12187 98.13448 100.7625 97.22823Q101.41875 96.30636 102.80937 96.30636Q104.18437 96.30636 104.84062 97.19698Q105.49687 98.07198 105.5125 99.91573L105.5125 101.32198ZM104.41875 99.83761Q104.41875 98.46261 104.02812 97.83761Q103.65312 97.19698 102.80937 97.19698Q101.98125 97.19698 101.59062 97.83761Q101.21562 98.46261 101.21562 99.75948L101.21562 101.49386Q101.21562 102.86886 101.60625 103.54073Q102.0125 104.19698 102.825 104.19698Q103.62187 104.19698 104.0125 103.57198Q104.40312 102.94698 104.41875 101.61886L104.41875 99.83761ZM112.5125 101.32198Q112.5125 103.22823 111.85625 104.16573Q111.21562 105.08761 109.825 105.08761Q108.46562 105.08761 107.80937 104.18136Q107.15312 103.27511 107.12187 101.46261L107.12187 100.02511Q107.12187 98.13448 107.7625 97.22823Q108.41875 96.30636 109.80937 96.30636Q111.18437 96.30636 111.84062 97.19698Q112.49687 98.07198 112.5125 99.91573L112.5125 101.32198ZM111.41875 99.83761Q111.41875 98.46261 111.02812 97.83761Q110.65312 97.19698 109.80937 97.19698Q108.98125 97.19698 108.59062 97.83761Q108.21562 98.46261 108.21562 99.75948L108.21562 101.49386Q108.21562 102.86886 108.60625 103.54073Q109.0125 104.19698 109.825 104.19698Q110.62187 104.19698 111.0125 103.57198Q111.40312 102.94698 111.41875 101.61886L111.41875 99.83761Z" fill-rule="nonzero"/><path fill="#000000" d="M81.46562 102.75948Q81.46562 102.22823 81.09062 101.86886Q80.71562 101.49386 79.80937 101.18136Q78.55937 100.80636 77.98125 100.19698Q77.41875 99.58761 77.41875 98.63448Q77.41875 97.68136 77.98125 97.07198Q78.54375 96.44698 79.52812 96.33761L79.52812 95.04073L80.3875 95.04073L80.3875 96.33761Q81.37187 96.47823 81.91875 97.16573Q82.48125 97.85323 82.48125 99.05636L81.40312 99.05636Q81.40312 98.22823 80.99687 97.74386Q80.60625 97.25948 79.95 97.25948Q79.24687 97.25948 78.87187 97.61886Q78.5125 97.97823 78.5125 98.61886Q78.5125 99.21261 78.90312 99.57198Q79.29375 99.93136 80.18437 100.22823Q81.075 100.50948 81.575 100.86886Q82.075 101.21261 82.30937 101.68136Q82.54375 102.13448 82.54375 102.75948Q82.54375 103.74386 81.95 104.35323Q81.35625 104.94698 80.29375 105.05636L80.29375 106.18136L79.41875 106.18136L79.41875 105.05636Q78.325 104.96261 77.7 104.29073Q77.09062 103.60323 77.09062 102.44698L78.18437 102.44698Q78.18437 103.25948 78.60625 103.69698Q79.02812 104.13448 79.825 104.13448Q80.59062 104.13448 81.02812 103.77511Q81.46562 103.40011 81.46562 102.75948ZM87.71562 104.96261L86.6375 104.96261L86.6375 97.74386L84.45 98.54073L84.45 97.55636L87.55937 96.38448L87.71562 96.38448L87.71562 104.96261ZM96.5125 101.32198Q96.5125 103.22823 95.85625 104.16573Q95.21562 105.08761 93.825 105.08761Q92.46562 105.08761 91.80937 104.18136Q91.15312 103.27511 91.12187 101.46261L91.12187 100.02511Q91.12187 98.13448 91.7625 97.22823Q92.41875 96.30636 93.80937 96.30636Q95.18437 96.30636 95.84062 97.19698Q96.49687 98.07198 96.5125 99.91573L96.5125 101.32198ZM95.41875 99.83761Q95.41875 98.46261 95.02812 97.83761Q94.65312 97.19698 93.80937 97.19698Q92.98125 97.19698 92.59062 97.83761Q92.21562 98.46261 92.21562 99.75948L92.21562 101.49386Q92.21562 102.86886 92.60625 103.54073Q93.0125 104.19698 93.825 104.19698Q94.62187 104.19698 95.0125 103.57198Q95.40312 102.94698 95.41875 101.61886L95.41875 99.83761ZM98.23125 106.66573L97.62187 106.24386Q98.16875 105.47823 98.2 104.65011L98.2 103.68136L99.2625 103.68136L99.2625 104.52511Q99.2625 105.11886 98.96562 105.71261Q98.66875 106.30636 98.23125 106.66573ZM105.5125 101.32198Q105.5125 103.22823 104.85625 104.16573Q104.21562 105.08761 102.825 105.08761Q101.46562 105.08761 100.80937 104.18136Q100.15312 103.27511 100.12187 101.46261L100.12187 100.02511Q100.12187 98.13448 100.7625 97.22823Q101.41875 96.30636 102.80937 96.30636Q104.18437 96.30636 104.84062 97.19698Q105.49687 98.07198 105.5125 99.91573L105.5125 101.32198ZM104.41875 99.83761Q104.41875 98.46261 104.02812 97.83761Q103.65312 97.19698 102.80937 97.19698Q101.98125 97.19698 101.59062 97.83761Q101.21562 98.46261 101.21562 99.75948L101.21562 101.49386Q101.21562 102.86886 101.60625 103.54073Q102.0125 104.19698 102.825 104.19698Q103.62187 104.19698 104.0125 103.57198Q104.40312 102.94698 104.41875 101.61886L104.41875 99.83761ZM112.5125 101.32198Q112.5125 103.22823 111.85625 104.16573Q111.21562 105.08761 109.825 105.08761Q108.46562 105.08761 107.80937 104.18136Q107.15312 103.27511 107.12187 101.46261L107.12187 100.02511Q107.12187 98.13448 107.7625 97.22823Q108.41875 96.30636 109.80937 96.30636Q111.18437 96.30636 111.84062 97.19698Q112.49687 98.07198 112.5125 99.91573L112.5125 101.32198ZM111.41875 99.83761Q111.41875 98.46261 111.02812 97.83761Q110.65312 97.19698 109.80937 97.19698Q108.98125 97.19698 108.59062 97.83761Q108.21562 98.46261 108.21562 99.75948L108.21562 101.49386Q108.21562 102.86886 108.60625 103.54073Q109.0125 104.19698 109.825 104.19698Q110.62187 104.19698 111.0125 103.57198Q111.40312 102.94698 111.41875 101.61886L111.41875 99.83761Z" fill-rule="nonzero"/><path stroke="#ffffff" stroke-width="3.0" stroke-linejoin="round" stroke-linecap="round" d="M209.49063 131.61542Q209.49063 131.08417 209.11563 130.7248Q208.74063 130.3498 207.83438 130.0373Q206.58438 129.6623 206.00626 129.05292Q205.44376 128.44354 205.44376 127.49042Q205.44376 126.53729 206.00626 125.92792Q206.56876 125.30292 207.55313 125.19354L207.55313 123.89667L208.4125 123.89667L208.4125 125.19354Q209.39688 125.33417 209.94376 126.02167Q210.50626 126.70917 210.50626 127.91229L209.42813 127.91229Q209.42813 127.08417 209.02188 126.59979Q208.63126 126.11542 207.975 126.11542Q207.27188 126.11542 206.89688 126.47479Q206.5375 126.83417 206.5375 127.47479Q206.5375 128.06854 206.92813 128.42792Q207.31876 128.7873 208.20938 129.08417Q209.1 129.36542 209.6 129.7248Q210.1 130.06854 210.33438 130.5373Q210.56876 130.99042 210.56876 131.61542Q210.56876 132.5998 209.975 133.20917Q209.38126 133.80292 208.31876 133.9123L208.31876 135.0373L207.44376 135.0373L207.44376 133.9123Q206.35 133.81854 205.725 133.14667Q205.11563 132.45917 205.11563 131.30292L206.20938 131.30292Q206.20938 132.11542 206.63126 132.55292Q207.05313 132.99042 207.85 132.99042Q208.61563 132.99042 209.05313 132.63104Q209.49063 132.25604 209.49063 131.61542ZM217.36563 127.50604Q217.36563 128.14667 217.02188 128.64667Q216.67813 129.14667 216.11563 129.42792Q216.77188 129.70917 217.1625 130.27167Q217.55313 130.81854 217.55313 131.52167Q217.55313 132.61542 216.80313 133.2873Q216.06876 133.94354 214.85 133.94354Q213.61563 133.94354 212.86563 133.2873Q212.13126 132.61542 212.13126 131.52167Q212.13126 130.81854 212.50626 130.27167Q212.88126 129.70917 213.55313 129.42792Q212.99063 129.14667 212.6625 128.64667Q212.33438 128.14667 212.33438 127.50604Q212.33438 126.42792 213.02188 125.80292Q213.70938 125.16229 214.85 125.16229Q215.975 125.16229 216.6625 125.80292Q217.36563 126.42792 217.36563 127.50604ZM216.475 131.49042Q216.475 130.77167 216.02188 130.33417Q215.56876 129.88104 214.83438 129.88104Q214.1 129.88104 213.64688 130.33417Q213.20938 130.77167 213.20938 131.50604Q213.20938 132.2248 213.64688 132.64667Q214.08438 133.05292 214.85 133.05292Q215.6 133.05292 216.0375 132.63104Q216.475 132.20917 216.475 131.49042ZM214.85 126.05292Q214.20938 126.05292 213.80313 126.45917Q213.4125 126.84979 213.4125 127.53729Q213.4125 128.17792 213.80313 128.58417Q214.19376 128.99042 214.83438 128.99042Q215.49063 128.99042 215.88126 128.58417Q216.27188 128.17792 216.27188 127.53729Q216.27188 126.88104 215.86563 126.47479Q215.45938 126.05292 214.85 126.05292ZM219.25626 135.52167L218.64688 135.0998Q219.19376 134.33417 219.225 133.50604L219.225 132.5373L220.2875 132.5373L220.2875 133.38104Q220.2875 133.9748 219.99063 134.56854Q219.69376 135.1623 219.25626 135.52167ZM221.67813 129.5373L222.11563 125.28729L226.49063 125.28729L226.49063 126.28729L223.0375 126.28729L222.77188 128.61542Q223.4125 128.24042 224.20938 128.24042Q225.36563 128.24042 226.05313 129.02167Q226.74063 129.7873 226.74063 131.0998Q226.74063 132.4123 226.02188 133.17792Q225.31876 133.94354 224.0375 133.94354Q222.9125 133.94354 222.19376 133.31854Q221.475 132.67792 221.38126 131.56854L222.39688 131.56854Q222.50626 132.30292 222.92813 132.67792Q223.35 133.05292 224.0375 133.05292Q224.7875 133.05292 225.225 132.5373Q225.6625 132.02167 225.6625 131.11542Q225.6625 130.25604 225.19376 129.74042Q224.725 129.2248 223.94376 129.2248Q223.24063 129.2248 222.83438 129.52167L222.55313 129.75604L221.67813 129.5373ZM231.74063 133.81854L230.6625 133.81854L230.6625 126.59979L228.475 127.39667L228.475 126.41229L231.58438 125.24042L231.74063 125.24042L231.74063 133.81854Z" fill-rule="nonzero"/><path fill="#000000" d="M209.49063 131.61542Q209.49063 131.08417 209.11563 130.7248Q208.74063 130.3498 207.83438 130.0373Q206.58438 129.6623 206.00626 129.05292Q205.44376 128.44354 205.44376 127.49042Q205.44376 126.53729 206.00626 125.92792Q206.56876 125.30292 207.55313 125.19354L207.55313 123.89667L208.4125 123.89667L208.4125 125.19354Q209.39688 125.33417 209.94376 126.02167Q210.50626 126.70917 210.50626 127.91229L209.42813 127.91229Q209.42813 127.08417 209.02188 126.59979Q208.63126 126.11542 207.975 126.11542Q207.27188 126.11542 206.89688 126.47479Q206.5375 126.83417 206.5375 127.47479Q206.5375 128.06854 206.92813 128.42792Q207.31876 128.7873 208.20938 129.08417Q209.1 129.36542 209.6 129.7248Q210.1 130.06854 210.33438 130.5373Q210.56876 130.99042 210.56876 131.61542Q210.56876 132.5998 209.975 133.20917Q209.38126 133.80292 208.31876 133.9123L208.31876 135.0373L207.44376 135.0373L207.44376 133.9123Q206.35 133.81854 205.725 133.14667Q205.11563 132.45917 205.11563 131.30292L206.20938 131.30292Q206.20938 132.11542 206.63126 132.55292Q207.05313 132.99042 207.85 132.99042Q208.61563 132.99042 209.05313 132.63104Q209.49063 132.25604 209.49063 131.61542ZM217.36563 127.50604Q217.36563 128.14667 217.02188 128.64667Q216.67813 129.14667 216.11563 129.42792Q216.77188 129.70917 217.1625 130.27167Q217.55313 130.81854 217.55313 131.52167Q217.55313 132.61542 216.80313 133.2873Q216.06876 133.94354 214.85 133.94354Q213.61563 133.94354 212.86563 133.2873Q212.13126 132.61542 212.13126 131.52167Q212.13126 130.81854 212.50626 130.27167Q212.88126 129.70917 213.55313 129.42792Q212.99063 129.14667 212.6625 128.64667Q212.33438 128.14667 212.33438 127.50604Q212.33438 126.42792 213.02188 125.80292Q213.70938 125.16229 214.85 125.16229Q215.975 125.16229 216.6625 125.80292Q217.36563 126.42792 217.36563 127.50604ZM216.475 131.49042Q216.475 130.77167 216.02188 130.33417Q215.56876 129.88104 214.83438 129.88104Q214.1 129.88104 213.64688 130.33417Q213.20938 130.77167 213.20938 131.50604Q213.20938 132.2248 213.64688 132.64667Q214.08438 133.05292 214.85 133.05292Q215.6 133.05292 216.0375 132.63104Q216.475 132.20917 216.475 131.49042ZM214.85 126.05292Q214.20938 126.05292 213.80313 126.45917Q213.4125 126.84979 213.4125 127.53729Q213.4125 128.17792 213.80313 128.58417Q214.19376 128.99042 214.83438 128.99042Q215.49063 128.99042 215.88126 128.58417Q216.27188 128.17792 216.27188 127.53729Q216.27188 126.88104 215.86563 126.47479Q215.45938 126.05292 214.85 126.05292ZM219.25626 135.52167L218.64688 135.0998Q219.19376 134.33417 219.225 133.50604L219.225 132.5373L220.2875 132.5373L220.2875 133.38104Q220.2875 133.9748 219.99063 134.56854Q219.69376 135.1623 219.25626 135.52167ZM221.67813 129.5373L222.11563 125.28729L226.49063 125.28729L226.49063 126.28729L223.0375 126.28729L222.77188 128.61542Q223.4125 128.24042 224.20938 128.24042Q225.36563 128.24042 226.05313 129.02167Q226.74063 129.7873 226.74063 131.0998Q226.74063 132.4123 226.02188 133.17792Q225.31876 133.94354 224.0375 133.94354Q222.9125 133.94354 222.19376 133.31854Q221.475 132.67792 221.38126 131.56854L222.39688 131.56854Q222.50626 132.30292 222.92813 132.67792Q223.35 133.05292 224.0375 133.05292Q224.7875 133.05292 225.225 132.5373Q225.6625 132.02167 225.6625 131.11542Q225.6625 130.25604 225.19376 129.74042Q224.725 129.2248 223.94376 129.2248Q223.24063 129.2248 222.83438 129.52167L222.55313 129.75604L221.67813 129.5373ZM231.74063 133.81854L230.6625 133.81854L230.6625 126.59979L228.475 127.39667L228.475 126.41229L231.58438 125.24042L231.74063 125.24042L231.74063 133.81854Z" fill-rule="nonzero"/><path stroke="#ffffff" stroke-width="3.0" stroke-linejoin="round" stroke-linecap="round" d="M334.01562 128.77951Q334.01562 128.24826 333.64062 127.88888Q333.26562 127.51388 332.35938 127.20138Q331.10938 126.82638 330.53125 126.217Q329.96875 125.60763 329.96875 124.6545Q329.96875 123.70138 330.53125 123.092Q331.09375 122.467 332.07812 122.35763L332.07812 121.06075L332.9375 121.06075L332.9375 122.35763Q333.92188 122.49825 334.46875 123.18575Q335.03125 123.87325 335.03125 125.07638L333.95312 125.07638Q333.95312 124.24825 333.54688 123.76388Q333.15625 123.2795 332.5 123.2795Q331.79688 123.2795 331.42188 123.63888Q331.0625 123.99825 331.0625 124.63888Q331.0625 125.23263 331.45312 125.592Q331.84375 125.95138 332.73438 126.24825Q333.625 126.5295 334.125 126.88888Q334.625 127.23263 334.85938 127.70138Q335.09375 128.15451 335.09375 128.77951Q335.09375 129.76389 334.5 130.37326Q333.90625 130.96701 332.84375 131.07639L332.84375 132.20139L331.96875 132.20139L331.96875 131.07639Q330.875 130.98264 330.25 130.31076Q329.64062 129.62326 329.64062 128.46701L330.73438 128.46701Q330.73438 129.27951 331.15625 129.71701Q331.57812 130.15451 332.375 130.15451Q333.14062 130.15451 333.57812 129.79514Q334.01562 129.42014 334.01562 128.77951ZM341.89062 124.67013Q341.89062 125.31075 341.54688 125.81075Q341.20312 126.31075 340.64062 126.592Q341.29688 126.87325 341.6875 127.43575Q342.07812 127.98263 342.07812 128.68576Q342.07812 129.77951 341.32812 130.45139Q340.59375 131.10764 339.375 131.10764Q338.14062 131.10764 337.39062 130.45139Q336.65625 129.77951 336.65625 128.68576Q336.65625 127.98263 337.03125 127.43575Q337.40625 126.87325 338.07812 126.592Q337.51562 126.31075 337.1875 125.81075Q336.85938 125.31075 336.85938 124.67013Q336.85938 123.592 337.54688 122.967Q338.23438 122.32638 339.375 122.32638Q340.5 122.32638 341.1875 122.967Q341.89062 123.592 341.89062 124.67013ZM341.0 128.65451Q341.0 127.93575 340.54688 127.49825Q340.09375 127.04513 339.35938 127.04513Q338.625 127.04513 338.17188 127.49825Q337.73438 127.93575 337.73438 128.67014Q337.73438 129.38889 338.17188 129.81076Q338.60938 130.21701 339.375 130.21701Q340.125 130.21701 340.5625 129.79514Q341.0 129.37326 341.0 128.65451ZM339.375 123.217Q338.73438 123.217 338.32812 123.62325Q337.9375 124.01388 337.9375 124.70138Q337.9375 125.342 338.32812 125.74825Q338.71875 126.1545 339.35938 126.1545Q340.01562 126.1545 340.40625 125.74825Q340.79688 125.342 340.79688 124.70138Q340.79688 124.04513 340.39062 123.63888Q339.98438 123.217 339.375 123.217ZM343.78125 132.68576L343.17188 132.26389Q343.71875 131.49826 343.75 130.67014L343.75 129.70139L344.8125 129.70139L344.8125 130.54514Q344.8125 131.13889 344.51562 131.73264Q344.21875 132.32639 343.78125 132.68576ZM349.96875 122.45138L349.96875 123.35763L349.76562 123.35763Q348.5 123.38888 347.75 124.12325Q347.0 124.842 346.875 126.1545Q347.5625 125.38888 348.71875 125.38888Q349.82812 125.38888 350.5 126.17013Q351.17188 126.95138 351.17188 128.20139Q351.17188 129.51389 350.45312 130.31076Q349.73438 131.10764 348.51562 131.10764Q347.29688 131.10764 346.53125 130.17014Q345.78125 129.21701 345.78125 127.73263L345.78125 127.32638Q345.78125 124.967 346.78125 123.717Q347.78125 122.467 349.76562 122.45138L349.96875 122.45138ZM348.54688 126.29513Q347.98438 126.29513 347.51562 126.62325Q347.04688 126.95138 346.85938 127.467L346.85938 127.85763Q346.85938 128.92014 347.32812 129.56076Q347.8125 130.20139 348.51562 130.20139Q349.25 130.20139 349.67188 129.67014Q350.09375 129.12326 350.09375 128.24826Q350.09375 127.37325 349.67188 126.842Q349.25 126.29513 348.54688 126.29513ZM356.96875 122.45138L356.96875 123.35763L356.76562 123.35763Q355.5 123.38888 354.75 124.12325Q354.0 124.842 353.875 126.1545Q354.5625 125.38888 355.71875 125.38888Q356.82812 125.38888 357.5 126.17013Q358.17188 126.95138 358.17188 128.20139Q358.17188 129.51389 357.45312 130.31076Q356.73438 131.10764 355.51562 131.10764Q354.29688 131.10764 353.53125 130.17014Q352.78125 129.21701 352.78125 127.73263L352.78125 127.32638Q352.78125 124.967 353.78125 123.717Q354.78125 122.467 356.76562 122.45138L356.96875 122.45138ZM355.54688 126.29513Q354.98438 126.29513 354.51562 126.62325Q354.04688 126.95138 353.85938 127.467L353.85938 127.85763Q353.85938 128.92014 354.32812 129.56076Q354.8125 130.20139 355.51562 130.20139Q356.25 130.20139 356.67188 129.67014Q357.09375 129.12326 357.09375 128.24826Q357.09375 127.37325 356.67188 126.842Q356.25 126.29513 355.54688 126.29513Z" fill-rule="nonzero"/><path fill="#000000" d="M334.01562 128.77951Q334.01562 128.24826 333.64062 127.888885Q333.26562 127.513885 332.35938 127.201385Q331.10938 126.826385 330.53125 126.21701Q329.96875 125.607635 329.96875 124.65451Q329.96875 123.701385 330.53125 123.09201Q331.09375 122.46701 332.07812 122.357635L332.07812 121.06076L332.9375 121.06076L332.9375 122.357635Q333.92188 122.49826 334.46875 123.18576Q335.03125 123.87326 335.03125 125.076385L333.95312 125.076385Q333.95312 124.24826 333.54688 123.763885Q333.15625 123.27951 332.5 123.27951Q331.79688 123.27951 331.42188 123.638885Q331.0625 123.99826 331.0625 124.638885Q331.0625 125.232635 331.45312 125.59201Q331.84375 125.951385 332.73438 126.24826Q333.625 126.52951 334.125 126.888885Q334.625 127.232635 334.85938 127.701385Q335.09375 128.15451 335.09375 128.77951Q335.09375 129.76389 334.5 130.37326Q333.90625 130.96701 332.84375 131.07639L332.84375 132.20139L331.96875 132.20139L331.96875 131.07639Q330.875 130.98264 330.25 130.31076Q329.64062 129.62326 329.64062 128.46701L330.73438 128.46701Q330.73438 129.27951 331.15625 129.71701Q331.57812 130.15451 332.375 130.15451Q333.14062 130.15451 333.57812 129.79514Q334.01562 129.42014 334.01562 128.77951ZM341.89062 124.670135Q341.89062 125.31076 341.54688 125.81076Q341.20312 126.31076 340.64062 126.59201Q341.29688 126.87326 341.6875 127.43576Q342.07812 127.982635 342.07812 128.68576Q342.07812 129.77951 341.32812 130.45139Q340.59375 131.10764 339.375 131.10764Q338.14062 131.10764 337.39062 130.45139Q336.65625 129.77951 336.65625 128.68576Q336.65625 127.982635 337.03125 127.43576Q337.40625 126.87326 338.07812 126.59201Q337.51562 126.31076 337.1875 125.81076Q336.85938 125.31076 336.85938 124.670135Q336.85938 123.59201 337.54688 122.96701Q338.23438 122.326385 339.375 122.326385Q340.5 122.326385 341.1875 122.96701Q341.89062 123.59201 341.89062 124.670135ZM341.0 128.65451Q341.0 127.93576 340.54688 127.49826Q340.09375 127.045135 339.35938 127.045135Q338.625 127.045135 338.17188 127.49826Q337.73438 127.93576 337.73438 128.67014Q337.73438 129.38889 338.17188 129.81076Q338.60938 130.21701 339.375 130.21701Q340.125 130.21701 340.5625 129.79514Q341.0 129.37326 341.0 128.65451ZM339.375 123.21701Q338.73438 123.21701 338.32812 123.62326Q337.9375 124.013885 337.9375 124.701385Q337.9375 125.34201 338.32812 125.74826Q338.71875 126.15451 339.35938 126.15451Q340.01562 126.15451 340.40625 125.74826Q340.79688 125.34201 340.79688 124.701385Q340.79688 124.045135 340.39062 123.638885Q339.98438 123.21701 339.375 123.21701ZM343.78125 132.68576L343.17188 132.26389Q343.71875 131.49826 343.75 130.67014L343.75 129.70139L344.8125 129.70139L344.8125 130.54514Q344.8125 131.13889 344.51562 131.73264Q344.21875 132.32639 343.78125 132.68576ZM349.96875 122.451385L349.96875 123.357635L349.76562 123.357635Q348.5 123.388885 347.75 124.12326Q347.0 124.84201 346.875 126.15451Q347.5625 125.388885 348.71875 125.388885Q349.82812 125.388885 350.5 126.170135Q351.17188 126.951385 351.17188 128.20139Q351.17188 129.51389 350.45312 130.31076Q349.73438 131.10764 348.51562 131.10764Q347.29688 131.10764 346.53125 130.17014Q345.78125 129.21701 345.78125 127.732635L345.78125 127.326385Q345.78125 124.96701 346.78125 123.71701Q347.78125 122.46701 349.76562 122.451385L349.96875 122.451385ZM348.54688 126.295135Q347.98438 126.295135 347.51562 126.62326Q347.04688 126.951385 346.85938 127.46701L346.85938 127.857635Q346.85938 128.92014 347.32812 129.56076Q347.8125 130.20139 348.51562 130.20139Q349.25 130.20139 349.67188 129.67014Q350.09375 129.12326 350.09375 128.24826Q350.09375 127.37326 349.67188 126.84201Q349.25 126.295135 348.54688 126.295135ZM356.96875 122.451385L356.96875 123.357635L356.76562 123.357635Q355.5 123.388885 354.75 124.12326Q354.0 124.84201 353.875 126.15451Q354.5625 125.388885 355.71875 125.388885Q356.82812 125.388885 357.5 126.170135Q358.17188 126.951385 358.17188 128.20139Q358.17188 129.51389 357.45312 130.31076Q356.73438 131.10764 355.51562 131.10764Q354.29688 131.10764 353.53125 130.17014Q352.78125 129.21701 352.78125 127.732635L352.78125 127.326385Q352.78125 124.96701 353.78125 123.71701Q354.78125 122.46701 356.76562 122.451385L356.96875 122.451385ZM355.54688 126.295135Q354.98438 126.295135 354.51562 126.62326Q354.04688 126.951385 353.85938 127.46701L353.85938 127.857635Q353.85938 128.92014 354.32812 129.56076Q354.8125 130.20139 355.51562 130.20139Q356.25 130.20139 356.67188 129.67014Q357.09375 129.12326 357.09375 128.24826Q357.09375 127.37326 356.67188 126.84201Q356.25 126.295135 355.54688 126.295135Z" fill-rule="nonzero"/><path stroke="#ffffff" stroke-width="3.0" stroke-linejoin="round" stroke-linecap="round" d="M458.54062 104.275055Q458.54062 103.743805 458.16562 103.38443Q457.79062 103.00943 456.88437 102.69693Q455.63437 102.32193 455.05624 101.712555Q454.49374 101.10318 454.49374 100.150055Q454.49374 99.19693 455.05624 98.587555Q455.61874 97.962555 456.60312 97.85318L456.60312 96.556305L457.4625 96.556305L457.4625 97.85318Q458.44687 97.993805 458.99374 98.681305Q459.55624 99.368805 459.55624 100.57193L458.47812 100.57193Q458.47812 99.743805 458.07187 99.25943Q457.68124 98.775055 457.025 98.775055Q456.32187 98.775055 455.94687 99.13443Q455.5875 99.493805 455.5875 100.13443Q455.5875 100.72818 455.97812 101.087555Q456.36874 101.44693 457.25937 101.743805Q458.15 102.025055 458.65 102.38443Q459.15 102.72818 459.38437 103.19693Q459.61874 103.650055 459.61874 104.275055Q459.61874 105.25943 459.025 105.868805Q458.43124 106.462555 457.36874 106.57193L457.36874 107.69693L456.49374 107.69693L456.49374 106.57193Q455.4 106.47818 454.775 105.806305Q454.16562 105.118805 454.16562 103.962555L455.25937 103.962555Q455.25937 104.775055 455.68124 105.212555Q456.10312 105.650055 456.9 105.650055Q457.66562 105.650055 458.10312 105.29068Q458.54062 104.91568 458.54062 104.275055ZM465.38437 102.72818Q465.05624 103.13443 464.57187 103.38443Q464.10312 103.618805 463.54062 103.618805Q462.80624 103.618805 462.25937 103.25943Q461.7125 102.900055 461.41562 102.243805Q461.11874 101.57193 461.11874 100.775055Q461.11874 99.931305 461.43124 99.243805Q461.75937 98.556305 462.35312 98.19693Q462.9625 97.82193 463.75937 97.82193Q465.025 97.82193 465.74374 98.775055Q466.47812 99.72818 466.47812 101.35318L466.47812 101.66568Q466.47812 104.16568 465.49374 105.306305Q464.50937 106.44693 462.525 106.47818L462.30624 106.47818L462.30624 105.57193L462.54062 105.57193Q463.88437 105.54068 464.60312 104.868805Q465.32187 104.19693 465.38437 102.72818ZM463.7125 102.72818Q464.25937 102.72818 464.7125 102.400055Q465.18124 102.056305 465.4 101.57193L465.4 101.13443Q465.4 100.07193 464.93124 99.400055Q464.4625 98.72818 463.75937 98.72818Q463.04062 98.72818 462.60312 99.275055Q462.18124 99.82193 462.18124 100.72818Q462.18124 101.60318 462.5875 102.16568Q463.00937 102.72818 463.7125 102.72818ZM468.30624 108.181305L467.69687 107.75943Q468.24374 106.993805 468.275 106.16568L468.275 105.19693L469.3375 105.19693L469.3375 106.04068Q469.3375 106.63443 469.04062 107.22818Q468.74374 107.82193 468.30624 108.181305ZM474.38437 102.72818Q474.05624 103.13443 473.57187 103.38443Q473.10312 103.618805 472.54062 103.618805Q471.80624 103.618805 471.25937 103.25943Q470.7125 102.900055 470.41562 102.243805Q470.11874 101.57193 470.11874 100.775055Q470.11874 99.931305 470.43124 99.243805Q470.75937 98.556305 471.35312 98.19693Q471.9625 97.82193 472.75937 97.82193Q474.025 97.82193 474.74374 98.775055Q475.47812 99.72818 475.47812 101.35318L475.47812 101.66568Q475.47812 104.16568 474.49374 105.306305Q473.50937 106.44693 471.525 106.47818L471.30624 106.47818L471.30624 105.57193L471.54062 105.57193Q472.88437 105.54068 473.60312 104.868805Q474.32187 104.19693 474.38437 102.72818ZM472.7125 102.72818Q473.25937 102.72818 473.7125 102.400055Q474.18124 102.056305 474.4 101.57193L474.4 101.13443Q474.4 100.07193 473.93124 99.400055Q473.4625 98.72818 472.75937 98.72818Q472.04062 98.72818 471.60312 99.275055Q471.18124 99.82193 471.18124 100.72818Q471.18124 101.60318 471.5875 102.16568Q472.00937 102.72818 472.7125 102.72818ZM482.82187 106.47818L477.22812 106.47818L477.22812 105.69693L480.18124 102.41568Q480.8375 101.66568 481.0875 101.212555Q481.3375 100.743805 481.3375 100.243805Q481.3375 99.57193 480.93124 99.150055Q480.54062 98.712555 479.85312 98.712555Q479.05624 98.712555 478.60312 99.181305Q478.15 99.63443 478.15 100.462555L477.07187 100.462555Q477.07187 99.275055 477.82187 98.556305Q478.5875 97.82193 479.85312 97.82193Q481.05624 97.82193 481.74374 98.44693Q482.43124 99.07193 482.43124 100.118805Q482.43124 101.368805 480.82187 103.118805L478.54062 105.587555L482.82187 105.587555L482.82187 106.47818Z" fill-rule="nonzero"/><path fill="#000000" d="M458.54062 104.275055Q458.54062 103.743805 458.16562 103.38443Q457.79062 103.00943 456.88437 102.69693Q455.63437 102.32193 455.05624 101.712555Q454.49374 101.10318 454.49374 100.150055Q454.49374 99.19693 455.05624 98.587555Q455.61874 97.962555 456.60312 97.85318L456.60312 96.556305L457.4625 96.556305L457.4625 97.85318Q458.44687 97.993805 458.99374 98.681305Q459.55624 99.368805 459.55624 100.57193L458.47812 100.57193Q458.47812 99.743805 458.07187 99.25943Q457.68124 98.775055 457.025 98.775055Q456.32187 98.775055 455.94687 99.13443Q455.5875 99.493805 455.5875 100.13443Q455.5875 100.72818 455.97812 101.087555Q456.36874 101.44693 457.25937 101.743805Q458.15 102.025055 458.65 102.38443Q459.15 102.72818 459.38437 103.19693Q459.61874 103.650055 459.61874 104.275055Q459.61874 105.25943 459.025 105.868805Q458.43124 106.462555 457.36874 106.57193L457.36874 107.69693L456.49374 107.69693L456.49374 106.57193Q455.4 106.47818 454.775 105.806305Q454.16562 105.118805 454.16562 103.962555L455.25937 103.962555Q455.25937 104.775055 455.68124 105.212555Q456.10312 105.650055 456.9 105.650055Q457.66562 105.650055 458.10312 105.29068Q458.54062 104.91568 458.54062 104.275055ZM465.38437 102.72818Q465.05624 103.13443 464.57187 103.38443Q464.10312 103.618805 463.54062 103.618805Q462.80624 103.618805 462.25937 103.25943Q461.7125 102.900055 461.41562 102.243805Q461.11874 101.57193 461.11874 100.775055Q461.11874 99.931305 461.43124 99.243805Q461.75937 98.556305 462.35312 98.19693Q462.9625 97.82193 463.75937 97.82193Q465.025 97.82193 465.74374 98.775055Q466.47812 99.72818 466.47812 101.35318L466.47812 101.66568Q466.47812 104.16568 465.49374 105.306305Q464.50937 106.44693 462.525 106.47818L462.30624 106.47818L462.30624 105.57193L462.54062 105.57193Q463.88437 105.54068 464.60312 104.868805Q465.32187 104.19693 465.38437 102.72818ZM463.7125 102.72818Q464.25937 102.72818 464.7125 102.400055Q465.18124 102.056305 465.4 101.57193L465.4 101.13443Q465.4 100.07193 464.93124 99.400055Q464.4625 98.72818 463.75937 98.72818Q463.04062 98.72818 462.60312 99.275055Q462.18124 99.82193 462.18124 100.72818Q462.18124 101.60318 462.5875 102.16568Q463.00937 102.72818 463.7125 102.72818ZM468.30624 108.181305L467.69687 107.75943Q468.24374 106.993805 468.275 106.16568L468.275 105.19693L469.3375 105.19693L469.3375 106.04068Q469.3375 106.63443 469.04062 107.22818Q468.74374 107.82193 468.30624 108.181305ZM474.38437 102.72818Q474.05624 103.13443 473.57187 103.38443Q473.10312 103.618805 472.54062 103.618805Q471.80624 103.618805 471.25937 103.25943Q470.7125 102.900055 470.41562 102.243805Q470.11874 101.57193 470.11874 100.775055Q470.11874 99.931305 470.43124 99.243805Q470.75937 98.556305 471.35312 98.19693Q471.9625 97.82193 472.75937 97.82193Q474.025 97.82193 474.74374 98.775055Q475.47812 99.72818 475.47812 101.35318L475.47812 101.66568Q475.47812 104.16568 474.49374 105.306305Q473.50937 106.44693 471.525 106.47818L471.30624 106.47818L471.30624 105.57193L471.54062 105.57193Q472.88437 105.54068 473.60312 104.868805Q474.32187 104.19693 474.38437 102.72818ZM472.7125 102.72818Q473.25937 102.72818 473.7125 102.400055Q474.18124 102.056305 474.4 101.57193L474.4 101.13443Q474.4 100.07193 473.93124 99.400055Q473.4625 98.72818 472.75937 98.72818Q472.04062 98.72818 471.60312 99.275055Q471.18124 99.82193 471.18124 100.72818Q471.18124 101.60318 471.5875 102.16568Q472.00937 102.72818 472.7125 102.72818ZM482.82187 106.47818L477.22812 106.47818L477.22812 105.69693L480.18124 102.41568Q480.8375 101.66568 481.0875 101.212555Q481.3375 100.743805 481.3375 100.243805Q481.3375 99.57193 480.93124 99.150055Q480.54062 98.712555 479.85312 98.712555Q479.05624 98.712555 478.60312 99.181305Q478.15 99.63443 478.15 100.462555L477.07187 100.462555Q477.07187 99.275055 477.82187 98.556305Q478.5875 97.82193 479.85312 97.82193Q481.05624 97.82193 481.74374 98.44693Q482.43124 99.07193 482.43124 100.118805Q482.43124 101.368805 480.82187 103.118805L478.54062 105.587555L482.82187 105.587555L482.82187 106.47818Z" fill-rule="nonzero"/><path stroke="#ffffff" stroke-width="3.0" stroke-linejoin="round" stroke-linecap="round" d="M579.5656 43.690006Q579.5656 43.158756 579.1906 42.79938Q578.8156 42.42438 577.90936 42.11188Q576.65936 41.73688 576.08124 41.127506Q575.51874 40.51813 575.51874 39.565006Q575.51874 38.61188 576.08124 38.002506Q576.64374 37.377506 577.6281 37.26813L577.6281 35.971256L578.4875 35.971256L578.4875 37.26813Q579.47186 37.408756 580.01874 38.096256Q580.58124 38.783756 580.58124 39.98688L579.5031 39.98688Q579.5031 39.158756 579.09686 38.67438Q578.70624 38.190006 578.05 38.190006Q577.34686 38.190006 576.97186 38.54938Q576.6125 38.908756 576.6125 39.54938Q576.6125 40.14313 577.0031 40.502506Q577.39374 40.86188 578.28436 41.158756Q579.175 41.440006 579.675 41.79938Q580.175 42.14313 580.40936 42.61188Q580.64374 43.065006 580.64374 43.690006Q580.64374 44.67438 580.05 45.283756Q579.45624 45.877506 578.39374 45.98688L578.39374 47.11188L577.51874 47.11188L577.51874 45.98688Q576.425 45.89313 575.8 45.221256Q575.1906 44.533756 575.1906 43.377506L576.28436 43.377506Q576.28436 44.190006 576.70624 44.627506Q577.1281 45.065006 577.925 45.065006Q578.6906 45.065006 579.1281 44.70563Q579.5656 44.33063 579.5656 43.690006ZM585.8156 45.89313L584.7375 45.89313L584.7375 38.67438L582.55 39.471256L582.55 38.48688L585.65936 37.315006L585.8156 37.315006L585.8156 45.89313ZM590.83124 41.096256L591.64374 41.096256Q592.425 41.08063 592.8625 40.690006Q593.3 40.29938 593.3 39.627506Q593.3 38.127506 591.8 38.127506Q591.09686 38.127506 590.675 38.533756Q590.26874 38.940006 590.26874 39.596256L589.175 39.596256Q589.175 38.58063 589.90936 37.908756Q590.65936 37.23688 591.8 37.23688Q593.0031 37.23688 593.6906 37.877506Q594.3781 38.51813 594.3781 39.658756Q594.3781 40.221256 594.01874 40.73688Q593.65936 41.252506 593.03436 41.51813Q593.7375 41.73688 594.1125 42.252506Q594.5031 42.76813 594.5031 43.51813Q594.5031 44.658756 593.7531 45.346256Q593.0031 46.01813 591.8 46.01813Q590.6125 46.01813 589.84686 45.36188Q589.09686 44.70563 589.09686 43.64313L590.1906 43.64313Q590.1906 44.315006 590.6281 44.721256Q591.0656 45.127506 591.8156 45.127506Q592.59686 45.127506 593.0031 44.721256Q593.425 44.29938 593.425 43.533756Q593.425 42.79938 592.97186 42.408756Q592.51874 42.002506 591.64374 41.98688L590.83124 41.98688L590.83124 41.096256ZM596.33124 47.596256L595.72186 47.17438Q596.26874 46.408756 596.3 45.58063L596.3 44.61188L597.3625 44.61188L597.3625 45.45563Q597.3625 46.04938 597.0656 46.64313Q596.76874 47.23688 596.33124 47.596256ZM603.6125 42.252506Q603.6125 44.158756 602.95624 45.096256Q602.3156 46.01813 600.925 46.01813Q599.5656 46.01813 598.90936 45.11188Q598.2531 44.20563 598.22186 42.39313L598.22186 40.95563Q598.22186 39.065006 598.8625 38.158756Q599.51874 37.23688 600.90936 37.23688Q602.28436 37.23688 602.9406 38.127506Q603.59686 39.002506 603.6125 40.846256L603.6125 42.252506ZM602.51874 40.76813Q602.51874 39.39313 602.1281 38.76813Q601.7531 38.127506 600.90936 38.127506Q600.08124 38.127506 599.6906 38.76813Q599.3156 39.39313 599.3156 40.690006L599.3156 42.42438Q599.3156 43.79938 599.70624 44.471256Q600.1125 45.127506 600.925 45.127506Q601.72186 45.127506 602.1125 44.502506Q602.5031 43.877506 602.51874 42.54938L602.51874 40.76813ZM609.83124 43.033756L611.01874 43.033756L611.01874 43.908756L609.83124 43.908756L609.83124 45.89313L608.7531 45.89313L608.7531 43.908756L604.8625 43.908756L604.8625 43.26813L608.675 37.36188L609.83124 37.36188L609.83124 43.033756ZM606.09686 43.033756L608.7531 43.033756L608.7531 38.846256L608.6125 39.08063L606.09686 43.033756Z" fill-rule="nonzero"/><path fill="#000000" d="M579.5656 43.690006Q579.5656 43.158756 579.1906 42.79938Q578.8156 42.42438 577.90936 42.11188Q576.65936 41.73688 576.08124 41.127506Q575.51874 40.51813 575.51874 39.565006Q575.51874 38.61188 576.08124 38.002506Q576.64374 37.377506 577.6281 37.26813L577.6281 35.971256L578.4875 35.971256L578.4875 37.26813Q579.47186 37.408756 580.01874 38.096256Q580.58124 38.783756 580.58124 39.98688L579.5031 39.98688Q579.5031 39.158756 579.09686 38.67438Q578.70624 38.190006 578.05 38.190006Q577.34686 38.190006 576.97186 38.54938Q576.6125 38.908756 576.6125 39.54938Q576.6125 40.14313 577.0031 40.502506Q577.39374 40.86188 578.28436 41.158756Q579.175 41.440006 579.675 41.79938Q580.175 42.14313 580.40936 42.61188Q580.64374 43.065006 580.64374 43.690006Q580.64374 44.67438 580.05 45.283756Q579.45624 45.877506 578.39374 45.98688L578.39374 47.11188L577.51874 47.11188L577.51874 45.98688Q576.425 45.89313 575.8 45.221256Q575.1906 44.533756 575.1906 43.377506L576.28436 43.377506Q576.28436 44.190006 576.70624 44.627506Q577.1281 45.065006 577.925 45.065006Q578.6906 45.065006 579.1281 44.70563Q579.5656 44.33063 579.5656 43.690006ZM585.8156 45.89313L584.7375 45.89313L584.7375 38.67438L582.55 39.471256L582.55 38.48688L585.65936 37.315006L585.8156 37.315006L585.8156 45.89313ZM590.83124 41.096256L591.64374 41.096256Q592.425 41.08063 592.8625 40.690006Q593.3 40.29938 593.3 39.627506Q593.3 38.127506 591.8 38.127506Q591.09686 38.127506 590.675 38.533756Q590.26874 38.940006 590.26874 39.596256L589.175 39.596256Q589.175 38.58063 589.90936 37.908756Q590.65936 37.23688 591.8 37.23688Q593.0031 37.23688 593.6906 37.877506Q594.3781 38.51813 594.3781 39.658756Q594.3781 40.221256 594.01874 40.73688Q593.65936 41.252506 593.03436 41.51813Q593.7375 41.73688 594.1125 42.252506Q594.5031 42.76813 594.5031 43.51813Q594.5031 44.658756 593.7531 45.346256Q593.0031 46.01813 591.8 46.01813Q590.6125 46.01813 589.84686 45.36188Q589.09686 44.70563 589.09686 43.64313L590.1906 43.64313Q590.1906 44.315006 590.6281 44.721256Q591.0656 45.127506 591.8156 45.127506Q592.59686 45.127506 593.0031 44.721256Q593.425 44.29938 593.425 43.533756Q593.425 42.79938 592.97186 42.408756Q592.51874 42.002506 591.64374 41.98688L590.83124 41.98688L590.83124 41.096256ZM596.33124 47.596256L595.72186 47.17438Q596.26874 46.408756 596.3 45.58063L596.3 44.61188L597.3625 44.61188L597.3625 45.45563Q597.3625 46.04938 597.0656 46.64313Q596.76874 47.23688 596.33124 47.596256ZM603.6125 42.252506Q603.6125 44.158756 602.95624 45.096256Q602.3156 46.01813 600.925 46.01813Q599.5656 46.01813 598.90936 45.11188Q598.2531 44.20563 598.22186 42.39313L598.22186 40.95563Q598.22186 39.065006 598.8625 38.158756Q599.51874 37.23688 600.90936 37.23688Q602.28436 37.23688 602.9406 38.127506Q603.59686 39.002506 603.6125 40.846256L603.6125 42.252506ZM602.51874 40.76813Q602.51874 39.39313 602.1281 38.76813Q601.7531 38.127506 600.90936 38.127506Q600.08124 38.127506 599.6906 38.76813Q599.3156 39.39313 599.3156 40.690006L599.3156 42.42438Q599.3156 43.79938 599.70624 44.471256Q600.1125 45.127506 600.925 45.127506Q601.72186 45.127506 602.1125 44.502506Q602.5031 43.877506 602.51874 42.54938L602.51874 40.76813ZM609.83124 43.033756L611.01874 43.033756L611.01874 43.908756L609.83124 43.908756L609.83124 45.89313L608.7531 45.89313L608.7531 43.908756L604.8625 43.908756L604.8625 43.26813L608.675 37.36188L609.83124 37.36188L609.83124 43.033756ZM606.09686 43.033756L608.7531 43.033756L608.7531 38.846256L608.6125 39.08063L606.09686 43.033756Z" fill-rule="nonzero"/><path fill="#000000" d="M26.934362 230.4375L27.231237 229.3125Q28.621862 229.67188 29.356237 230.59375Q30.090612 231.51562 30.090612 232.85938Q30.090612 234.25 29.528112 235.125Q28.965612 236.0 27.903112 236.45312Q26.824987 236.90625 25.590612 236.90625Q24.246862 236.90625 23.246862 236.39062Q22.246862 235.875 21.731237 234.9375Q21.215612 233.98438 21.215612 232.84375Q21.215612 231.5625 21.871862 230.6875Q22.528112 229.79688 23.715612 229.45312L23.981237 230.57812Q23.043737 230.875 22.621862 231.45312Q22.184362 232.01562 22.184362 232.875Q22.184362 233.85938 22.668737 234.53125Q23.137487 235.1875 23.934362 235.46875Q24.731237 235.73438 25.590612 235.73438Q26.684362 235.73438 27.496862 235.42188Q28.309362 235.09375 28.715612 234.42188Q29.121862 233.75 29.121862 232.95312Q29.121862 232.0 28.574987 231.34375Q28.028112 230.67188 26.934362 230.4375ZM26.840612 228.09375Q25.106237 228.09375 24.278112 227.14062Q23.590612 226.34375 23.590612 225.1875Q23.590612 223.90625 24.434362 223.09375Q25.262487 222.26562 26.746862 222.26562Q27.949987 222.26562 28.637487 222.625Q29.324987 222.98438 29.715612 223.6875Q30.090612 224.375 30.090612 225.1875Q30.090612 226.48438 29.262487 227.29688Q28.418737 228.09375 26.840612 228.09375ZM26.840612 227.01562Q28.028112 227.01562 28.621862 226.5Q29.215612 225.96875 29.215612 225.1875Q29.215612 224.39062 28.621862 223.875Q28.028112 223.35938 26.809362 223.35938Q25.653112 223.35938 25.059362 223.89062Q24.465612 224.40625 24.465612 225.1875Q24.465612 225.96875 25.059362 226.5Q25.637487 227.01562 26.840612 227.01562ZM29.949987 220.70312L23.731237 220.70312L23.731237 219.76562L24.606237 219.76562Q23.590612 219.07812 23.590612 217.78125Q23.590612 217.21875 23.793737 216.75Q23.996862 216.26562 24.324987 216.03125Q24.653112 215.79688 25.090612 215.70312Q25.387487 215.65625 26.121862 215.65625L29.949987 215.65625L29.949987 216.70312L26.168737 216.70312Q25.512487 216.70312 25.199987 216.82812Q24.887487 216.95312 24.699987 217.26562Q24.496862 217.57812 24.496862 218.0Q24.496862 218.67188 24.934362 219.17188Q25.356237 219.65625 26.543737 219.65625L29.949987 219.65625L29.949987 220.70312ZM29.012487 211.40625L29.934362 211.25Q30.028112 211.70312 30.028112 212.04688Q30.028112 212.625 29.856237 212.9375Q29.668737 213.25 29.371862 213.39062Q29.074987 213.51562 28.121862 213.51562L24.543737 213.51562L24.543737 214.28125L23.731237 214.28125L23.731237 213.51562L22.184362 213.51562L21.559362 212.46875L23.731237 212.46875L23.731237 211.40625L24.543737 211.40625L24.543737 212.46875L28.184362 212.46875Q28.637487 212.46875 28.762487 212.42188Q28.887487 212.35938 28.965612 212.23438Q29.043737 212.10938 29.043737 211.875Q29.043737 211.6875 29.012487 211.40625ZM29.949987 210.71875L23.731237 210.71875L23.731237 209.76562L24.668737 209.76562Q24.012487 209.40625 23.809362 209.10938Q23.590612 208.79688 23.590612 208.42188Q23.590612 207.89062 23.918737 207.34375L24.903112 207.70312Q24.668737 208.09375 24.668737 208.46875Q24.668737 208.82812 24.887487 209.10938Q25.090612 209.375 25.465612 209.48438Q26.028112 209.67188 26.684362 209.67188L29.949987 209.67188L29.949987 210.71875ZM26.840612 207.09375Q25.106237 207.09375 24.278112 206.14062Q23.590612 205.34375 23.590612 204.1875Q23.590612 202.90625 24.434362 202.09375Q25.262487 201.26562 26.746862 201.26562Q27.949987 201.26562 28.637487 201.625Q29.324987 201.98438 29.715612 202.6875Q30.090612 203.375 30.090612 204.1875Q30.090612 205.48438 29.262487 206.29688Q28.418737 207.09375 26.840612 207.09375ZM26.840612 206.01562Q28.028112 206.01562 28.621862 205.5Q29.215612 204.96875 29.215612 204.1875Q29.215612 203.39062 28.621862 202.875Q28.028112 202.35938 26.809362 202.35938Q25.653112 202.35938 25.059362 202.89062Q24.465612 203.40625 24.465612 204.1875Q24.465612 204.96875 25.059362 205.5Q25.637487 206.01562 26.840612 206.01562ZM29.949987 197.98438L23.731237 200.34375L23.731237 199.23438L27.449987 197.89062Q28.059362 197.6875 28.699987 197.5Q28.215612 197.35938 27.528112 197.10938L23.731237 195.71875L23.731237 194.64062L29.949987 197.0L29.949987 197.98438ZM29.184362 190.64062Q29.684362 191.23438 29.887487 191.78125Q30.090612 192.3125 30.090612 192.9375Q30.090612 193.96875 29.590612 194.51562Q29.090612 195.0625 28.309362 195.0625Q27.856237 195.0625 27.481237 194.85938Q27.090612 194.65625 26.871862 194.3125Q26.637487 193.96875 26.528112 193.54688Q26.434362 193.25 26.356237 192.60938Q26.215612 191.34375 25.996862 190.73438Q25.778112 190.73438 25.731237 190.73438Q25.074987 190.73438 24.809362 191.03125Q24.465612 191.4375 24.465612 192.23438Q24.465612 192.96875 24.731237 193.32812Q24.981237 193.6875 25.637487 193.85938L25.496862 194.89062Q24.840612 194.75 24.434362 194.42188Q24.028112 194.09375 23.809362 193.48438Q23.590612 192.875 23.590612 192.07812Q23.590612 191.28125 23.778112 190.78125Q23.965612 190.28125 24.246862 190.04688Q24.528112 189.8125 24.965612 189.71875Q25.231237 189.67188 25.934362 189.67188L27.340612 189.67188Q28.809362 189.67188 29.199987 189.60938Q29.590612 189.53125 29.949987 189.32812L29.949987 190.4375Q29.621862 190.59375 29.184362 190.64062ZM26.824987 190.73438Q27.059362 191.3125 27.231237 192.45312Q27.324987 193.10938 27.449987 193.375Q27.559362 193.64062 27.778112 193.79688Q27.996862 193.9375 28.278112 193.9375Q28.699987 193.9375 28.981237 193.625Q29.262487 193.29688 29.262487 192.6875Q29.262487 192.07812 28.996862 191.60938Q28.731237 191.125 28.262487 190.90625Q27.903112 190.73438 27.215612 190.73438L26.824987 190.73438ZM29.949987 187.73438L21.356237 187.73438L21.356237 186.67188L29.949987 186.67188L29.949987 187.73438ZM26.840612 185.09375Q25.106237 185.09375 24.278112 184.14062Q23.590612 183.34375 23.590612 182.1875Q23.590612 180.90625 24.434362 180.09375Q25.262487 179.26562 26.746862 179.26562Q27.949987 179.26562 28.637487 179.625Q29.324987 179.98438 29.715612 180.6875Q30.090612 181.375 30.090612 182.1875Q30.090612 183.48438 29.262487 184.29688Q28.418737 185.09375 26.840612 185.09375ZM26.840612 184.01562Q28.028112 184.01562 28.621862 183.5Q29.215612 182.96875 29.215612 182.1875Q29.215612 181.39062 28.621862 180.875Q28.028112 180.35938 26.809362 180.35938Q25.653112 180.35938 25.059362 180.89062Q24.465612 181.40625 24.465612 182.1875Q24.465612 182.96875 25.059362 183.5Q25.637487 184.01562 26.840612 184.01562ZM29.949987 177.71875L23.731237 177.71875L23.731237 176.76562L24.668737 176.76562Q24.012487 176.40625 23.809362 176.10938Q23.590612 175.79688 23.590612 175.42188Q23.590612 174.89062 23.918737 174.34375L24.903112 174.70312Q24.668737 175.09375 24.668737 175.46875Q24.668737 175.82812 24.887487 176.10938Q25.090612 176.375 25.465612 176.48438Q26.028112 176.67188 26.684362 176.67188L29.949987 176.67188L29.949987 177.71875ZM27.949987 169.45312L28.074987 168.35938Q29.028112 168.60938 29.559362 169.3125Q30.090612 170.01562 30.090612 171.09375Q30.090612 172.45312 29.246862 173.26562Q28.403112 174.0625 26.887487 174.0625Q25.324987 174.0625 24.465612 173.25Q23.590612 172.4375 23.590612 171.15625Q23.590612 169.90625 24.434362 169.125Q25.278112 168.32812 26.824987 168.32812Q26.918737 168.32812 27.106237 168.32812L27.106237 172.96875Q28.137487 172.90625 28.684362 172.39062Q29.215612 171.875 29.215612 171.09375Q29.215612 170.51562 28.918737 170.10938Q28.606237 169.6875 27.949987 169.45312ZM26.246862 172.90625L26.246862 169.4375Q25.449987 169.5 25.059362 169.82812Q24.449987 170.34375 24.449987 171.14062Q24.449987 171.875 24.934362 172.375Q25.418737 172.85938 26.246862 172.90625ZM29.949987 163.57812L21.356237 163.57812L21.356237 162.42188L28.106237 157.90625L21.356237 157.90625L21.356237 156.8125L29.949987 156.8125L29.949987 157.98438L23.199987 162.5L29.949987 162.5L29.949987 163.57812ZM29.949987 154.51562L21.356237 154.51562L21.356237 148.71875L22.371862 148.71875L22.371862 153.375L25.028112 153.375L25.028112 149.34375L26.043737 149.34375L26.043737 153.375L29.949987 153.375L29.949987 154.51562ZM29.949987 145.39062L22.371862 145.39062L22.371862 148.21875L21.356237 148.21875L21.356237 141.40625L22.371862 141.40625L22.371862 144.25L29.949987 144.25L29.949987 145.39062Z" fill-rule="nonzero"/><path fill="#000000" d="M60.934376 322.2222L60.934376 321.17532Q60.153126 321.06595 59.653126 320.81595Q59.153126 320.56595 58.79375 320.00345Q58.434376 319.42532 58.371876 318.5972L59.434376 318.4097Q59.559376 319.25345 59.871876 319.64407Q60.325 320.20657 60.934376 320.2847L60.934376 316.92532Q60.29375 316.80032 59.60625 316.4097Q59.10625 316.12845 58.825 315.64407Q58.559376 315.14407 58.559376 314.50345Q58.559376 313.37845 59.35625 312.69095Q59.8875 312.2222 60.934376 312.11282L60.934376 311.61282L61.559376 311.61282L61.559376 312.11282Q62.48125 312.19095 63.0125 312.64407Q63.715626 313.2222 63.85625 314.2222L62.7625 314.39407Q62.66875 313.76907 62.371876 313.44095Q62.075 313.11282 61.559376 313.00345L61.559376 316.0347Q62.35625 316.23782 62.621876 316.3472Q63.10625 316.56595 63.41875 316.87845Q63.73125 317.19095 63.8875 317.62845Q64.05937 318.05032 64.05937 318.55032Q64.05937 319.64407 63.35625 320.37845Q62.66875 321.11282 61.559376 321.1597L61.559376 322.2222L60.934376 322.2222ZM60.934376 312.98782Q60.325 313.08157 59.965626 313.48782Q59.621876 313.87845 59.621876 314.42532Q59.621876 314.95657 59.91875 315.33157Q60.215626 315.69095 60.934376 315.9097L60.934376 312.98782ZM61.559376 320.2847Q62.16875 320.20657 62.575 319.75345Q62.98125 319.2847 62.98125 318.61282Q62.98125 318.0347 62.684376 317.69095Q62.403126 317.3472 61.559376 317.06595L61.559376 320.2847ZM65.45 316.75345Q65.45 315.2222 65.7625 314.30032Q66.075 313.36282 66.68437 312.86282Q67.30937 312.36282 68.24687 312.36282Q68.93437 312.36282 69.45 312.64407Q69.98125 312.92532 70.325 313.45657Q70.66875 313.9722 70.85625 314.7222Q71.04375 315.4722 71.04375 316.75345Q71.04375 318.26907 70.73125 319.19095Q70.43437 320.11282 69.80937 320.62845Q69.2 321.12845 68.24687 321.12845Q67.0125 321.12845 66.29375 320.23782Q65.45 319.17532 65.45 316.75345ZM66.52812 316.75345Q66.52812 318.86282 67.02812 319.56595Q67.52812 320.26907 68.24687 320.26907Q68.98125 320.26907 69.46562 319.56595Q69.96562 318.86282 69.96562 316.75345Q69.96562 314.62845 69.46562 313.94095Q68.98125 313.23782 68.23125 313.23782Q67.5125 313.23782 67.075 313.8472Q66.52812 314.62845 66.52812 316.75345ZM73.0125 320.98782L73.0125 319.7847L74.21562 319.7847L74.21562 320.98782Q74.21562 321.64407 73.98125 322.05032Q73.74687 322.4722 73.24687 322.69095L72.95 322.23782Q73.27812 322.0972 73.43437 321.80032Q73.59062 321.51907 73.62187 320.98782L73.0125 320.98782ZM75.45 316.75345Q75.45 315.2222 75.7625 314.30032Q76.075 313.36282 76.68437 312.86282Q77.30937 312.36282 78.24687 312.36282Q78.93437 312.36282 79.45 312.64407Q79.98125 312.92532 80.325 313.45657Q80.66875 313.9722 80.85625 314.7222Q81.04375 315.4722 81.04375 316.75345Q81.04375 318.26907 80.73125 319.19095Q80.43437 320.11282 79.80937 320.62845Q79.2 321.12845 78.24687 321.12845Q77.0125 321.12845 76.29375 320.23782Q75.45 319.17532 75.45 316.75345ZM76.52812 316.75345Q76.52812 318.86282 77.02812 319.56595Q77.52812 320.26907 78.24687 320.26907Q78.98125 320.26907 79.46562 319.56595Q79.96562 318.86282 79.96562 316.75345Q79.96562 314.62845 79.46562 313.94095Q78.98125 313.23782 78.23125 313.23782Q77.5125 313.23782 77.075 313.8472Q76.52812 314.62845 76.52812 316.75345ZM82.45 316.75345Q82.45 315.2222 82.7625 314.30032Q83.075 313.36282 83.68437 312.86282Q84.30937 312.36282 85.24687 312.36282Q85.93437 312.36282 86.45 312.64407Q86.98125 312.92532 87.325 313.45657Q87.66875 313.9722 87.85625 314.7222Q88.04375 315.4722 88.04375 316.75345Q88.04375 318.26907 87.73125 319.19095Q87.43437 320.11282 86.80937 320.62845Q86.2 321.12845 85.24687 321.12845Q84.0125 321.12845 83.29375 320.23782Q82.45 319.17532 82.45 316.75345ZM83.52812 316.75345Q83.52812 318.86282 84.02812 319.56595Q84.52812 320.26907 85.24687 320.26907Q85.98125 320.26907 86.46562 319.56595Q86.96562 318.86282 86.96562 316.75345Q86.96562 314.62845 86.46562 313.94095Q85.98125 313.23782 85.23125 313.23782Q84.5125 313.23782 84.075 313.8472Q83.52812 314.62845 83.52812 316.75345Z" fill-rule="nonzero"/><path fill="#000000" d="M60.934376 225.2096L60.934376 224.16272Q60.153126 224.05334 59.653126 223.80334Q59.153126 223.55334 58.79375 222.99084Q58.434376 222.41272 58.371876 221.5846L59.434376 221.3971Q59.559376 222.24084 59.871876 222.63147Q60.325 223.19397 60.934376 223.2721L60.934376 219.91272Q60.29375 219.78772 59.60625 219.3971Q59.10625 219.11584 58.825 218.63147Q58.559376 218.13147 58.559376 217.49084Q58.559376 216.36584 59.35625 215.67834Q59.8875 215.2096 60.934376 215.10022L60.934376 214.60022L61.559376 214.60022L61.559376 215.10022Q62.48125 215.17834 63.0125 215.63147Q63.715626 216.2096 63.85625 217.2096L62.7625 217.38147Q62.66875 216.75647 62.371876 216.42834Q62.075 216.10022 61.559376 215.99084L61.559376 219.0221Q62.35625 219.22522 62.621876 219.3346Q63.10625 219.55334 63.41875 219.86584Q63.73125 220.17834 63.8875 220.61584Q64.05937 221.03772 64.05937 221.53772Q64.05937 222.63147 63.35625 223.36584Q62.66875 224.10022 61.559376 224.1471L61.559376 225.2096L60.934376 225.2096ZM60.934376 215.97522Q60.325 216.06897 59.965626 216.47522Q59.621876 216.86584 59.621876 217.41272Q59.621876 217.94397 59.91875 218.31897Q60.215626 218.67834 60.934376 218.8971L60.934376 215.97522ZM61.559376 223.2721Q62.16875 223.19397 62.575 222.74084Q62.98125 222.2721 62.98125 221.60022Q62.98125 221.0221 62.684376 220.67834Q62.403126 220.3346 61.559376 220.05334L61.559376 223.2721ZM65.45 221.72522L66.55937 221.63147Q66.68437 222.44397 67.12187 222.85022Q67.575 223.25647 68.21562 223.25647Q68.96562 223.25647 69.49687 222.67834Q70.02812 222.10022 70.02812 221.16272Q70.02812 220.25647 69.5125 219.74084Q69.0125 219.2096 68.18437 219.2096Q67.68437 219.2096 67.2625 219.44397Q66.85625 219.67834 66.62187 220.03772L65.6375 219.91272L66.46562 215.50647L70.74687 215.50647L70.74687 216.50647L67.30937 216.50647L66.85625 218.81897Q67.62187 218.2721 68.46562 218.2721Q69.59062 218.2721 70.35625 219.05334Q71.1375 219.8346 71.1375 221.06897Q71.1375 222.22522 70.46562 223.0846Q69.6375 224.11584 68.21562 224.11584Q67.04375 224.11584 66.29375 223.4596Q65.55937 222.80334 65.45 221.72522ZM73.0125 223.97522L73.0125 222.7721L74.21562 222.7721L74.21562 223.97522Q74.21562 224.63147 73.98125 225.03772Q73.74687 225.4596 73.24687 225.67834L72.95 225.22522Q73.27812 225.0846 73.43437 224.78772Q73.59062 224.50647 73.62187 223.97522L73.0125 223.97522ZM75.45 219.74084Q75.45 218.2096 75.7625 217.28772Q76.075 216.35022 76.68437 215.85022Q77.30937 215.35022 78.24687 215.35022Q78.93437 215.35022 79.45 215.63147Q79.98125 215.91272 80.325 216.44397Q80.66875 216.9596 80.85625 217.7096Q81.04375 218.4596 81.04375 219.74084Q81.04375 221.25647 80.73125 222.17834Q80.43437 223.10022 79.80937 223.61584Q79.2 224.11584 78.24687 224.11584Q77.0125 224.11584 76.29375 223.22522Q75.45 222.16272 75.45 219.74084ZM76.52812 219.74084Q76.52812 221.85022 77.02812 222.55334Q77.52812 223.25647 78.24687 223.25647Q78.98125 223.25647 79.46562 222.55334Q79.96562 221.85022 79.96562 219.74084Q79.96562 217.61584 79.46562 216.92834Q78.98125 216.22522 78.23125 216.22522Q77.5125 216.22522 77.075 216.8346Q76.52812 217.61584 76.52812 219.74084ZM82.45 219.74084Q82.45 218.2096 82.7625 217.28772Q83.075 216.35022 83.68437 215.85022Q84.30937 215.35022 85.24687 215.35022Q85.93437 215.35022 86.45 215.63147Q86.98125 215.91272 87.325 216.44397Q87.66875 216.9596 87.85625 217.7096Q88.04375 218.4596 88.04375 219.74084Q88.04375 221.25647 87.73125 222.17834Q87.43437 223.10022 86.80937 223.61584Q86.2 224.11584 85.24687 224.11584Q84.0125 224.11584 83.29375 223.22522Q82.45 222.16272 82.45 219.74084ZM83.52812 219.74084Q83.52812 221.85022 84.02812 222.55334Q84.52812 223.25647 85.24687 223.25647Q85.98125 223.25647 86.46562 222.55334Q86.96562 221.85022 86.96562 219.74084Q86.96562 217.61584 86.46562 216.92834Q85.98125 216.22522 85.23125 216.22522Q84.5125 216.22522 84.075 216.8346Q83.52812 217.61584 83.52812 219.74084Z" fill-rule="nonzero"/><path fill="#000000" d="M53.934376 128.19699L53.934376 127.15011Q53.153126 127.04073 52.653126 126.79073Q52.153126 126.54073 51.79375 125.97823Q51.434376 125.40011 51.371876 124.57198L52.434376 124.38448Q52.559376 125.22823 52.871876 125.61886Q53.325 126.18136 53.934376 126.25948L53.934376 122.90011Q53.29375 122.77511 52.60625 122.38448Q52.10625 122.10323 51.825 121.61886Q51.559376 121.11886 51.559376 120.47823Q51.559376 119.35323 52.35625 118.66573Q52.8875 118.19698 53.934376 118.08761L53.934376 117.58761L54.559376 117.58761L54.559376 118.08761Q55.48125 118.16573 56.0125 118.61886Q56.715626 119.19698 56.85625 120.19698L55.7625 120.36886Q55.66875 119.74386 55.371876 119.41573Q55.075 119.08761 54.559376 118.97823L54.559376 122.00948Q55.35625 122.21261 55.621876 122.32198Q56.10625 122.54073 56.41875 122.85323Q56.73125 123.16573 56.8875 123.60323Q57.059376 124.02511 57.059376 124.52511Q57.059376 125.61886 56.35625 126.35323Q55.66875 127.08761 54.559376 127.13448L54.559376 128.19699L53.934376 128.19699ZM53.934376 118.96261Q53.325 119.05636 52.965626 119.46261Q52.621876 119.85323 52.621876 120.40011Q52.621876 120.93136 52.91875 121.30636Q53.215626 121.66573 53.934376 121.88448L53.934376 118.96261ZM54.559376 126.25948Q55.16875 126.18136 55.575 125.72823Q55.98125 125.25948 55.98125 124.58761Q55.98125 124.00948 55.684376 123.66573Q55.403126 123.32198 54.559376 123.04073L54.559376 126.25948ZM62.41875 126.96261L61.371876 126.96261L61.371876 120.24386Q60.98125 120.60323 60.35625 120.97823Q59.746876 121.33761 59.2625 121.50948L59.2625 120.49386Q60.1375 120.07198 60.79375 119.49386Q61.465626 118.90011 61.746876 118.33761L62.41875 118.33761L62.41875 126.96261ZM65.45 122.72823Q65.45 121.19698 65.7625 120.27511Q66.075 119.33761 66.68437 118.83761Q67.30937 118.33761 68.24687 118.33761Q68.93437 118.33761 69.45 118.61886Q69.98125 118.90011 70.325 119.43136Q70.66875 119.94698 70.85625 120.69698Q71.04375 121.44698 71.04375 122.72823Q71.04375 124.24386 70.73125 125.16573Q70.43437 126.08761 69.80937 126.60323Q69.2 127.10323 68.24687 127.10323Q67.0125 127.10323 66.29375 126.21261Q65.45 125.15011 65.45 122.72823ZM66.52812 122.72823Q66.52812 124.83761 67.02812 125.54073Q67.52812 126.24386 68.24687 126.24386Q68.98125 126.24386 69.46562 125.54073Q69.96562 124.83761 69.96562 122.72823Q69.96562 120.60323 69.46562 119.91573Q68.98125 119.21261 68.23125 119.21261Q67.5125 119.21261 67.075 119.82198Q66.52812 120.60323 66.52812 122.72823ZM73.0125 126.96261L73.0125 125.75948L74.21562 125.75948L74.21562 126.96261Q74.21562 127.61886 73.98125 128.02512Q73.74687 128.44699 73.24687 128.66574L72.95 128.21262Q73.27812 128.07199 73.43437 127.77511Q73.59062 127.49386 73.62187 126.96261L73.0125 126.96261ZM75.45 122.72823Q75.45 121.19698 75.7625 120.27511Q76.075 119.33761 76.68437 118.83761Q77.30937 118.33761 78.24687 118.33761Q78.93437 118.33761 79.45 118.61886Q79.98125 118.90011 80.325 119.43136Q80.66875 119.94698 80.85625 120.69698Q81.04375 121.44698 81.04375 122.72823Q81.04375 124.24386 80.73125 125.16573Q80.43437 126.08761 79.80937 126.60323Q79.2 127.10323 78.24687 127.10323Q77.0125 127.10323 76.29375 126.21261Q75.45 125.15011 75.45 122.72823ZM76.52812 122.72823Q76.52812 124.83761 77.02812 125.54073Q77.52812 126.24386 78.24687 126.24386Q78.98125 126.24386 79.46562 125.54073Q79.96562 124.83761 79.96562 122.72823Q79.96562 120.60323 79.46562 119.91573Q78.98125 119.21261 78.23125 119.21261Q77.5125 119.21261 77.075 119.82198Q76.52812 120.60323 76.52812 122.72823ZM82.45 122.72823Q82.45 121.19698 82.7625 120.27511Q83.075 119.33761 83.68437 118.83761Q84.30937 118.33761 85.24687 118.33761Q85.93437 118.33761 86.45 118.61886Q86.98125 118.90011 87.325 119.43136Q87.66875 119.94698 87.85625 120.69698Q88.04375 121.44698 88.04375 122.72823Q88.04375 124.24386 87.73125 125.16573Q87.43437 126.08761 86.80937 126.60323Q86.2 127.10323 85.24687 127.10323Q84.0125 127.10323 83.29375 126.21261Q82.45 125.15011 82.45 122.72823ZM83.52812 122.72823Q83.52812 124.83761 84.02812 125.54073Q84.52812 126.24386 85.24687 126.24386Q85.98125 126.24386 86.46562 125.54073Q86.96562 124.83761 86.96562 122.72823Q86.96562 120.60323 86.46562 119.91573Q85.98125 119.21261 85.23125 119.21261Q84.5125 119.21261 84.075 119.82198Q83.52812 120.60323 83.52812 122.72823Z" fill-rule="nonzero"/><path fill="#000000" d="M53.934376 31.184376L53.934376 30.1375Q53.153126 30.028126 52.653126 29.778126Q52.153126 29.528126 51.79375 28.965626Q51.434376 28.3875 51.371876 27.559376L52.434376 27.371876Q52.559376 28.215626 52.871876 28.60625Q53.325 29.16875 53.934376 29.246876L53.934376 25.8875Q53.29375 25.7625 52.60625 25.371876Q52.10625 25.090626 51.825 24.60625Q51.559376 24.10625 51.559376 23.465626Q51.559376 22.340626 52.35625 21.653126Q52.8875 21.184376 53.934376 21.075L53.934376 20.575L54.559376 20.575L54.559376 21.075Q55.48125 21.153126 56.0125 21.60625Q56.715626 22.184376 56.85625 23.184376L55.7625 23.35625Q55.66875 22.73125 55.371876 22.403126Q55.075 22.075 54.559376 21.965626L54.559376 24.996876Q55.35625 25.2 55.621876 25.309376Q56.10625 25.528126 56.41875 25.840626Q56.73125 26.153126 56.8875 26.590626Q57.059376 27.0125 57.059376 27.5125Q57.059376 28.60625 56.35625 29.340626Q55.66875 30.075 54.559376 30.121876L54.559376 31.184376L53.934376 31.184376ZM53.934376 21.95Q53.325 22.04375 52.965626 22.45Q52.621876 22.840626 52.621876 23.3875Q52.621876 23.91875 52.91875 24.29375Q53.215626 24.653126 53.934376 24.871876L53.934376 21.95ZM54.559376 29.246876Q55.16875 29.16875 55.575 28.715626Q55.98125 28.246876 55.98125 27.575Q55.98125 26.996876 55.684376 26.653126Q55.403126 26.309376 54.559376 26.028126L54.559376 29.246876ZM62.41875 29.95L61.371876 29.95L61.371876 23.23125Q60.98125 23.590626 60.35625 23.965626Q59.746876 24.325 59.2625 24.496876L59.2625 23.48125Q60.1375 23.059376 60.79375 22.48125Q61.465626 21.8875 61.746876 21.325L62.41875 21.325L62.41875 29.95ZM65.45 27.7L66.55937 27.60625Q66.68437 28.41875 67.12187 28.825Q67.575 29.23125 68.21562 29.23125Q68.96562 29.23125 69.49687 28.653126Q70.02812 28.075 70.02812 27.1375Q70.02812 26.23125 69.5125 25.715626Q69.0125 25.184376 68.18437 25.184376Q67.68437 25.184376 67.2625 25.41875Q66.85625 25.653126 66.62187 26.0125L65.6375 25.8875L66.46562 21.48125L70.74687 21.48125L70.74687 22.48125L67.30937 22.48125L66.85625 24.79375Q67.62187 24.246876 68.46562 24.246876Q69.59062 24.246876 70.35625 25.028126Q71.1375 25.809376 71.1375 27.04375Q71.1375 28.2 70.46562 29.059376Q69.6375 30.090626 68.21562 30.090626Q67.04375 30.090626 66.29375 29.434376Q65.55937 28.778126 65.45 27.7ZM73.0125 29.95L73.0125 28.746876L74.21562 28.746876L74.21562 29.95Q74.21562 30.60625 73.98125 31.0125Q73.74687 31.434376 73.24687 31.653126L72.95 31.2Q73.27812 31.059376 73.43437 30.7625Q73.59062 30.48125 73.62187 29.95L73.0125 29.95ZM75.45 25.715626Q75.45 24.184376 75.7625 23.2625Q76.075 22.325 76.68437 21.825Q77.30937 21.325 78.24687 21.325Q78.93437 21.325 79.45 21.60625Q79.98125 21.8875 80.325 22.41875Q80.66875 22.934376 80.85625 23.684376Q81.04375 24.434376 81.04375 25.715626Q81.04375 27.23125 80.73125 28.153126Q80.43437 29.075 79.80937 29.590626Q79.2 30.090626 78.24687 30.090626Q77.0125 30.090626 76.29375 29.2Q75.45 28.1375 75.45 25.715626ZM76.52812 25.715626Q76.52812 27.825 77.02812 28.528126Q77.52812 29.23125 78.24687 29.23125Q78.98125 29.23125 79.46562 28.528126Q79.96562 27.825 79.96562 25.715626Q79.96562 23.590626 79.46562 22.903126Q78.98125 22.2 78.23125 22.2Q77.5125 22.2 77.075 22.809376Q76.52812 23.590626 76.52812 25.715626ZM82.45 25.715626Q82.45 24.184376 82.7625 23.2625Q83.075 22.325 83.68437 21.825Q84.30937 21.325 85.24687 21.325Q85.93437 21.325 86.45 21.60625Q86.98125 21.8875 87.325 22.41875Q87.66875 22.934376 87.85625 23.684376Q88.04375 24.434376 88.04375 25.715626Q88.04375 27.23125 87.73125 28.153126Q87.43437 29.075 86.80937 29.590626Q86.2 30.090626 85.24687 30.090626Q84.0125 30.090626 83.29375 29.2Q82.45 28.1375 82.45 25.715626ZM83.52812 25.715626Q83.52812 27.825 84.02812 28.528126Q84.52812 29.23125 85.24687 29.23125Q85.98125 29.23125 86.46562 28.528126Q86.96562 27.825 86.96562 25.715626Q86.96562 23.590626 86.46562 22.903126Q85.98125 22.2 85.23125 22.2Q84.5125 22.2 84.075 22.809376Q83.52812 23.590626 83.52812 25.715626Z" fill-rule="nonzero"/><path fill="#000000" d="M154.37015 359.59705Q153.60452 358.27094 153.41422 357.3163Q153.2161 356.34818 153.49384 355.61047Q153.7851 354.86496 154.597 354.3962Q155.19238 354.05246 155.77956 354.0382Q156.38026 354.01614 156.94357 354.30435Q157.49908 354.57904 158.03647 355.1348Q158.57385 355.69055 159.21448 356.80017Q159.97229 358.11273 160.1626 359.06735Q160.36642 360.01416 160.08298 360.7732Q159.80524 361.5109 158.97981 361.98746Q157.91081 362.60464 156.84303 362.19272Q155.58109 361.69443 154.37015 359.59705ZM155.30383 359.05798Q156.35852 360.88474 157.1431 361.24368Q157.92766 361.6026 158.55013 361.24323Q159.18611 360.87604 159.25403 360.02493Q159.33548 359.166 158.28079 357.33923Q157.21829 355.49893 156.44153 355.15353Q155.67049 354.7868 155.02097 355.1618Q154.39851 355.52118 154.32431 356.26764Q154.24133 357.21768 155.30383 359.05798ZM164.0434 351.4141L163.17584 352.0052Q162.74156 351.53424 162.38443 351.41568Q161.77898 351.242 161.23772 351.5545Q160.8047 351.8045 160.60703 352.24338Q160.37505 352.81033 160.46951 353.5677Q160.56969 354.3037 161.19678 355.4211Q161.23248 354.73294 161.56546 354.21594Q161.91197 353.69113 162.43971 353.38644Q163.34633 352.863 164.37294 353.1724Q165.41309 353.47397 166.02246 354.52945Q166.42871 355.2331 166.46906 356.0217Q166.5151 356.78897 166.17487 357.41843Q165.82683 358.03433 165.16377 358.41714Q164.01358 359.0812 162.81203 358.6563Q161.61047 358.2314 160.5011 356.3099Q159.2511 354.14484 159.48697 352.70963Q159.68489 351.4587 160.86215 350.77902Q161.7417 350.2712 162.58557 350.45157Q163.43515 350.61057 164.0434 351.4141ZM162.17375 356.76953Q162.44719 357.24313 162.88664 357.56677Q163.3318 357.86908 163.81644 357.896Q164.3146 357.9151 164.72055 357.68073Q165.28888 357.3526 165.44273 356.65033Q165.58878 355.93454 165.12784 355.13617Q164.68253 354.36487 164.00523 354.1605Q163.34148 353.94833 162.71902 354.3077Q162.09656 354.66708 161.92136 355.36362Q161.75969 356.05237 162.17375 356.76953ZM168.249 356.6359L165.96301 347.70773L166.69373 347.28586L168.97969 356.21402L168.249 356.6359ZM169.09258 351.09705Q168.32695 349.77094 168.13664 348.8163Q167.93852 347.84818 168.21626 347.11047Q168.50752 346.36496 169.31943 345.8962Q169.91483 345.55246 170.50198 345.5382Q171.10269 345.51614 171.66602 345.80435Q172.22153 346.07904 172.7589 346.6348Q173.29628 347.19055 173.9369 348.30017Q174.69472 349.61273 174.88503 350.56735Q175.08885 351.51416 174.8054 352.2732Q174.52766 353.0109 173.70224 353.48746Q172.63324 354.10464 171.56548 353.69272Q170.30351 353.19443 169.09258 351.09705ZM170.02626 350.55798Q171.08095 352.38474 171.86552 352.74368Q172.6501 353.1026 173.27255 352.74323Q173.90854 352.37604 173.97646 351.52493Q174.0579 350.666 173.00322 348.83923Q171.94072 346.99893 171.16396 346.65353Q170.39291 346.2868 169.7434 346.6618Q169.12094 347.02118 169.04674 347.76764Q168.96376 348.71768 170.02626 350.55798ZM176.13913 349.30203L176.98897 348.649Q177.58313 349.33435 178.16515 349.46744Q178.73933 349.58698 179.28061 349.27448Q179.93013 348.89948 180.11885 348.1951Q180.30759 347.49075 179.92477 346.8277Q179.5654 346.20526 178.91154 346.04147Q178.26341 345.85638 177.62743 346.22357Q177.37032 346.372 177.0404 346.70682L176.6799 345.83243Q176.78244 345.79126 176.83656 345.76Q177.41843 345.42407 177.70662 344.86075Q178.00055 344.2761 177.63336 343.6401Q177.3443 343.13943 176.81851 343.00998Q176.2849 342.867 175.74364 343.1795Q175.2159 343.4842 175.04585 344.03342Q174.88934 344.57483 175.17744 345.29257L174.16354 345.66144Q173.80247 344.66107 174.10881 343.81665Q174.40733 342.9587 175.28688 342.4509Q175.89581 342.09933 176.56625 342.0731Q177.2289 342.03333 177.75734 342.3236Q178.2858 342.6139 178.58267 343.1281Q178.85611 343.6017 178.83337 344.1561Q178.80284 344.69696 178.43498 345.21606Q179.17044 344.9899 179.81705 345.2661Q180.45584 345.52878 180.87772 346.2595Q181.44022 347.23376 181.11366 348.3244Q180.80063 349.40723 179.71811 350.03223Q178.74382 350.59473 177.75836 350.38788Q176.7651 350.16748 176.13913 349.30203ZM182.97142 348.1359L180.68546 339.20773L181.41615 338.78586L183.70213 347.71402L182.97142 348.1359ZM190.22812 342.6111L190.73593 343.49066L185.81041 346.3344Q185.62291 346.00967 185.55148 345.63593Q185.45186 345.02588 185.57655 344.30438Q185.71478 343.57504 186.13243 342.48593Q186.77216 340.78146 186.8557 339.95743Q186.95277 339.12555 186.6559 338.61136Q186.3434 338.0701 185.74005 337.9313Q185.12888 337.779 184.50642 338.13837Q183.84337 338.52118 183.67752 339.14014Q183.51166 339.75912 183.90437 340.47058L182.91602 340.91492Q182.40135 339.80478 182.7113 338.9041Q183.027 337.98215 184.096 337.36496Q185.165 336.74777 186.1312 336.9838Q187.0974 337.2198 187.60521 338.09937Q187.86302 338.5459 187.92358 339.0883Q187.98985 339.60934 187.83809 340.34647Q187.69205 341.06226 187.19434 342.4502Q186.76733 343.61688 186.67221 344.0146Q186.5828 344.391 186.57457 344.7205L190.22812 342.6111ZM189.87718 339.09705Q189.11156 337.77094 188.92125 336.8163Q188.72314 335.84818 189.00087 335.11047Q189.29214 334.36496 190.10403 333.8962Q190.69943 333.55246 191.2866 333.5382Q191.8873 333.51614 192.45062 333.80435Q193.00613 334.07904 193.5435 334.6348Q194.08089 335.19055 194.72151 336.30017Q195.47932 337.61273 195.66963 338.56735Q195.87347 339.51416 195.59001 340.2732Q195.31229 341.0109 194.48685 341.48746Q193.41785 342.10464 192.35008 341.69272Q191.08812 341.19443 189.87718 339.09705ZM190.81087 338.55798Q191.86555 340.38474 192.65013 340.74368Q193.43471 341.1026 194.05716 340.74323Q194.69315 340.37604 194.76106 339.52493Q194.84251 338.666 193.78783 336.83923Q192.72533 334.99893 191.94856 334.65353Q191.17752 334.2868 190.528 334.6618Q189.90555 335.02118 189.83134 335.76764Q189.74837 336.71768 190.81087 338.55798ZM202.35248 335.6111L202.86029 336.49066L197.93477 339.3344Q197.74727 339.00967 197.67583 338.63593Q197.57622 338.02588 197.70091 337.30438Q197.83914 336.57504 198.25679 335.48593Q198.89651 333.78146 198.98006 332.95743Q199.07713 332.12555 198.78026 331.61136Q198.46776 331.0701 197.8644 330.9313Q197.25323 330.779 196.63078 331.13837Q195.96773 331.52118 195.80188 332.14014Q195.63602 332.75912 196.02873 333.47058L195.04036 333.91492Q194.52571 332.80478 194.83566 331.9041Q195.15134 330.98215 196.22034 330.36496Q197.28934 329.74777 198.25555 329.9838Q199.22176 330.2198 199.72957 331.09937Q199.98738 331.5459 200.04794 332.0883Q200.11421 332.60934 199.96245 333.34647Q199.8164 334.06226 199.3187 335.4502Q198.8917 336.61688 198.79657 337.0146Q198.70715 337.391 198.69893 337.7205L202.35248 335.6111ZM208.41466 332.1111L208.92247 332.99066L203.99695 335.8344Q203.80945 335.50967 203.738 335.13593Q203.6384 334.52588 203.76309 333.80438Q203.90132 333.07504 204.31897 331.98593Q204.9587 330.28146 205.04224 329.45743Q205.13931 328.62555 204.84244 328.11136Q204.52994 327.5701 203.92657 327.4313Q203.31541 327.279 202.69296 327.63837Q202.0299 328.02118 201.86404 328.64014Q201.6982 329.25912 202.09091 329.97058L201.10254 330.41492Q200.58789 329.30478 200.89784 328.4041Q201.21352 327.48215 202.28252 326.86496Q203.35152 326.24777 204.31772 326.4838Q205.28394 326.7198 205.79175 327.59937Q206.04956 328.0459 206.1101 328.5883Q206.17639 329.10934 206.02463 329.84647Q205.87859 330.56226 205.38087 331.9502Q204.95387 333.11688 204.85875 333.5146Q204.76933 333.891 204.76111 334.2205L208.41466 332.1111Z" fill-rule="nonzero"/><path fill="#000000" d="M284.44937 361.27972L283.54276 361.80316L280.18338 355.98456Q280.02478 356.49112 279.671 357.12836Q279.32297 357.7443 278.9894 358.1353L278.4816 357.25577Q279.02844 356.4529 279.3077 355.6241Q279.59268 354.774 279.555 354.1462L280.13687 353.81027L284.44937 361.27972ZM285.94168 357.80203L286.79153 357.149Q287.38568 357.83435 287.9677 357.96744Q288.5419 358.08698 289.08316 357.77448Q289.7327 357.39948 289.92142 356.6951Q290.11014 355.99075 289.72733 355.3277Q289.36795 354.70526 288.7141 354.54147Q288.06598 354.35638 287.43 354.72357Q287.17288 354.872 286.84296 355.20682L286.48245 354.33243Q286.585 354.29126 286.63913 354.26Q287.22098 353.92407 287.5092 353.36075Q287.8031 352.7761 287.4359 352.1401Q287.14685 351.63943 286.62106 351.50998Q286.08746 351.367 285.5462 351.6795Q285.01846 351.9842 284.84842 352.53342Q284.69193 353.07483 284.98 353.79257L283.9661 354.16144Q283.60504 353.16107 283.91138 352.31665Q284.2099 351.4587 285.08945 350.9509Q285.69836 350.59933 286.36884 350.5731Q287.03146 350.53333 287.5599 350.8236Q288.08835 351.1139 288.38522 351.6281Q288.65866 352.1017 288.63596 352.6561Q288.6054 353.19696 288.23755 353.71606Q288.973 353.4899 289.6196 353.7661Q290.2584 354.02878 290.68027 354.7595Q291.24277 355.73376 290.91623 356.8244Q290.6032 357.90726 289.52066 358.53226Q288.5464 359.09476 287.56094 358.88788Q286.56766 358.66748 285.94168 357.80203ZM292.774 356.6359L290.488 347.70773L291.21872 347.28586L293.5047 356.21402L292.774 356.6359ZM293.61758 351.09705Q292.85196 349.77094 292.66165 348.8163Q292.46353 347.84818 292.74127 347.11047Q293.03253 346.36496 293.84442 345.8962Q294.43982 345.55246 295.02698 345.5382Q295.6277 345.51617 296.191 345.80435Q296.74652 346.07904 297.2839 346.6348Q297.8213 347.19058 298.4619 348.30017Q299.21973 349.61273 299.41 350.56735Q299.61386 351.51416 299.3304 352.2732Q299.05267 353.0109 298.22723 353.48746Q297.15823 354.10464 296.09045 353.69272Q294.82852 353.19446 293.61758 351.09705ZM294.55124 350.55798Q295.60593 352.38474 296.3905 352.74368Q297.17508 353.1026 297.79755 352.74323Q298.43353 352.37604 298.50146 351.52493Q298.58292 350.666 297.52823 348.83923Q296.46573 346.99893 295.68896 346.65353Q294.9179 346.2868 294.2684 346.6618Q293.64594 347.02118 293.57175 347.76764Q293.48874 348.71768 294.55124 350.55798ZM300.66412 349.30203L301.51398 348.649Q302.10812 349.33435 302.69012 349.46744Q303.26434 349.58698 303.8056 349.27448Q304.4551 348.89948 304.64386 348.1951Q304.83258 347.49075 304.44977 346.8277Q304.0904 346.20526 303.43652 346.04147Q302.7884 345.85638 302.1524 346.22357Q301.89532 346.372 301.5654 346.70682L301.2049 345.83243Q301.30743 345.79126 301.36157 345.76Q301.94342 345.42407 302.23163 344.86075Q302.52554 344.2761 302.15836 343.6401Q301.8693 343.13943 301.3435 343.00998Q300.8099 342.867 300.26862 343.1795Q299.7409 343.4842 299.57086 344.03342Q299.41434 344.57483 299.70242 345.29257L298.68854 345.66144Q298.32748 344.66107 298.6338 343.81665Q298.9323 342.9587 299.8119 342.4509Q300.4208 342.09933 301.09125 342.0731Q301.7539 342.03333 302.28235 342.3236Q302.8108 342.6139 303.10767 343.1281Q303.3811 343.6017 303.35837 344.1561Q303.32782 344.69696 302.95996 345.21606Q303.69543 344.9899 304.34204 345.2661Q304.98083 345.52878 305.4027 346.2595Q305.9652 347.23376 305.63864 348.3244Q305.32562 349.40726 304.2431 350.03226Q303.26883 350.59476 302.28336 350.38788Q301.2901 350.16748 300.66412 349.30203ZM307.4964 348.1359L305.21045 339.20773L305.94116 338.78586L308.2271 347.71402L307.4964 348.1359ZM314.7531 342.6111L315.26093 343.49066L310.33542 346.3344Q310.14792 346.00967 310.07648 345.63593Q309.97684 345.02588 310.10156 344.30438Q310.23978 343.57504 310.65744 342.48593Q311.29715 340.78146 311.3807 339.95743Q311.47778 339.12555 311.1809 338.61136Q310.8684 338.0701 310.26505 337.9313Q309.65387 337.779 309.0314 338.13837Q308.36838 338.52118 308.2025 339.14014Q308.03665 339.75912 308.42938 340.47058L307.441 340.91492Q306.92636 339.80478 307.2363 338.90414Q307.55197 337.98215 308.62097 337.36496Q309.68997 336.74777 310.6562 336.9838Q311.6224 337.21982 312.13022 338.09937Q312.38803 338.5459 312.44858 339.0883Q312.51486 339.60934 312.3631 340.34647Q312.21704 341.0623 311.71933 342.4502Q311.29233 343.61688 311.1972 344.01462Q311.1078 344.391 311.09958 344.7205L314.7531 342.6111ZM314.4022 339.09705Q313.63657 337.77094 313.44626 336.8163Q313.24814 335.84818 313.52588 335.11047Q313.81714 334.36496 314.62903 333.8962Q315.22443 333.55246 315.81158 333.5382Q316.4123 333.51617 316.97562 333.80435Q317.53113 334.07904 318.0685 334.6348Q318.6059 335.19058 319.24652 336.30017Q320.00433 337.61273 320.19464 338.56735Q320.39847 339.51416 320.11502 340.2732Q319.83728 341.0109 319.01184 341.48746Q317.94284 342.10464 316.8751 341.69272Q315.61313 341.19446 314.4022 339.09705ZM315.33588 338.55798Q316.39056 340.38474 317.17514 340.74368Q317.9597 341.1026 318.58215 340.74323Q319.21814 340.37604 319.28607 339.52493Q319.36752 338.666 318.31284 336.83923Q317.25034 334.99893 316.47357 334.65353Q315.7025 334.2868 315.053 334.6618Q314.43054 335.02118 314.35635 335.76764Q314.27338 336.71768 315.33588 338.55798ZM326.87747 335.6111L327.38528 336.49066L322.45975 339.3344Q322.27225 339.00967 322.20084 338.63593Q322.1012 338.02588 322.2259 337.30438Q322.36414 336.57504 322.7818 335.48593Q323.4215 333.78146 323.50507 332.95743Q323.60214 332.12555 323.30527 331.61136Q322.99277 331.0701 322.3894 330.9313Q321.77823 330.779 321.15576 331.13837Q320.49274 331.52118 320.32687 332.14014Q320.161 332.75912 320.55374 333.47058L319.56537 333.91492Q319.05072 332.80478 319.36066 331.90414Q319.67633 330.98215 320.74533 330.36496Q321.81433 329.74777 322.78055 329.9838Q323.74673 330.21982 324.25455 331.09937Q324.51236 331.5459 324.57294 332.0883Q324.63922 332.60934 324.48746 333.34647Q324.3414 334.0623 323.8437 335.4502Q323.4167 336.61688 323.32156 337.01462Q323.23215 337.391 323.22394 337.7205L326.87747 335.6111ZM332.93964 332.1111L333.44745 332.99066L328.52194 335.8344Q328.33444 335.50967 328.263 335.13593Q328.1634 334.52588 328.2881 333.80438Q328.4263 333.07504 328.84396 331.98593Q329.48367 330.28146 329.56723 329.45743Q329.6643 328.62555 329.36743 328.11136Q329.05493 327.5701 328.45157 327.4313Q327.8404 327.279 327.21796 327.63837Q326.5549 328.02118 326.38904 328.64014Q326.22318 329.25912 326.6159 329.97058L325.62753 330.41492Q325.11288 329.30478 325.42285 328.40414Q325.73853 327.48215 326.80753 326.86496Q327.87653 326.24777 328.8427 326.4838Q329.80893 326.71982 330.31674 327.59937Q330.57455 328.0459 330.6351 328.5883Q330.7014 329.10934 330.54962 329.84647Q330.40356 330.5623 329.90585 331.9502Q329.47888 333.11688 329.38373 333.51462Q329.2943 333.891 329.2861 334.2205L332.93964 332.1111Z" fill-rule="nonzero"/><path fill="#000000" d="M409.83328 359.6111L410.3411 360.49066L405.41556 363.3344Q405.22806 363.00964 405.15662 362.63593Q405.057 362.02588 405.1817 361.30435Q405.31995 360.57504 405.73758 359.48593Q406.37732 357.78146 406.46085 356.9574Q406.55792 356.12555 406.26105 355.61136Q405.94855 355.07007 405.34518 354.9313Q404.73404 354.77896 404.11157 355.13834Q403.44852 355.52115 403.28268 356.14014Q403.11682 356.75912 403.50952 357.47058L402.52115 357.91492Q402.0065 356.80475 402.31647 355.9041Q402.63214 354.98215 403.70114 354.36496Q404.77014 353.74777 405.73636 353.98376Q406.70255 354.2198 407.21036 355.09933Q407.46817 355.5459 407.52872 356.0883Q407.595 356.6093 407.44324 357.34647Q407.2972 358.06226 406.7995 359.4502Q406.3725 360.61685 406.27737 361.0146Q406.18796 361.39096 406.17972 361.7205L409.83328 359.6111ZM409.48233 356.09702Q408.7167 354.77094 408.5264 353.8163Q408.32828 352.84814 408.60602 352.11044Q408.89728 351.36496 409.7092 350.8962Q410.3046 350.55246 410.89175 350.5382Q411.49246 350.51614 412.0558 350.80435Q412.6113 351.079 413.14865 351.6348Q413.68604 352.19055 414.32666 353.30014Q415.08447 354.61273 415.27478 355.56735Q415.4786 356.51413 415.19516 357.2732Q414.91742 358.0109 414.092 358.48746Q413.023 359.10464 411.95523 358.69272Q410.69327 358.19443 409.48233 356.09702ZM410.41602 355.55795Q411.4707 357.38474 412.25528 357.74365Q413.03986 358.10257 413.66232 357.7432Q414.2983 357.376 414.3662 356.5249Q414.44766 355.666 413.39297 353.8392Q412.33047 351.9989 411.5537 351.6535Q410.78268 351.28677 410.13315 351.66177Q409.5107 352.02115 409.4365 352.76764Q409.35352 353.71765 410.41602 355.55795ZM417.299 356.6359L415.01303 347.70773L415.74374 347.28586L418.02972 356.21402L417.299 356.6359ZM418.14258 351.09702Q417.37695 349.77094 417.18668 348.8163Q416.98856 347.84814 417.26627 347.11044Q417.55756 346.36496 418.36945 345.8962Q418.96484 345.55246 419.552 345.5382Q420.1527 345.51614 420.71603 345.80435Q421.27155 346.079 421.80893 346.6348Q422.34628 347.19055 422.9869 348.30014Q423.74472 349.61273 423.93503 350.56735Q424.1389 351.51413 423.8554 352.2732Q423.5777 353.0109 422.75226 353.48746Q421.68326 354.10464 420.61548 353.69272Q419.35352 353.19443 418.14258 351.09702ZM419.07626 350.55795Q420.13095 352.38474 420.91553 352.74365Q421.7001 353.10257 422.32257 352.7432Q422.95856 352.376 423.0265 351.5249Q423.1079 350.666 422.05322 348.8392Q420.99072 346.9989 420.214 346.6535Q419.44293 346.28677 418.79343 346.66177Q418.17096 347.02115 418.09677 347.76764Q418.01376 348.71765 419.07626 350.55795ZM425.18915 349.302L426.03897 348.649Q426.63315 349.33435 427.21515 349.4674Q427.78937 349.58694 428.33063 349.27444Q428.98013 348.89944 429.16888 348.1951Q429.3576 347.49075 428.9748 346.8277Q428.61542 346.20523 427.96155 346.04147Q427.31342 345.85638 426.67743 346.22357Q426.42032 346.372 426.09042 346.70682L425.72992 345.8324Q425.83246 345.79126 425.88657 345.76Q426.46844 345.42407 426.75665 344.86075Q427.05057 344.2761 426.68338 343.6401Q426.39432 343.13943 425.86853 343.00998Q425.33493 342.867 424.79364 343.1795Q424.26593 343.4842 424.0959 344.03342Q423.93936 344.57483 424.22745 345.29257L423.21356 345.66144Q422.8525 344.66107 423.1588 343.81665Q423.45734 342.9587 424.3369 342.4509Q424.94583 342.09933 425.61627 342.0731Q426.27893 342.0333 426.80737 342.3236Q427.33582 342.6139 427.6327 343.12808Q427.90613 343.6017 427.8834 344.1561Q427.85284 344.69696 427.485 345.21603Q428.22046 344.9899 428.86707 345.26608Q429.50586 345.52878 429.92773 346.25946Q430.49023 347.23376 430.16367 348.3244Q429.85065 349.40723 428.76813 350.03223Q427.79385 350.59473 426.80838 350.38788Q425.81512 350.16748 425.18915 349.302ZM432.02142 348.1359L429.73547 339.20773L430.4662 338.78586L432.75214 347.71402L432.02142 348.1359ZM439.27814 342.6111L439.78595 343.49066L434.8604 346.3344Q434.6729 346.00964 434.6015 345.63593Q434.50186 345.02588 434.62656 344.30435Q434.7648 343.57504 435.18246 342.48593Q435.82217 340.78146 435.90573 339.9574Q436.0028 339.12555 435.70593 338.61136Q435.39343 338.07007 434.79007 337.9313Q434.1789 337.77896 433.55643 338.13834Q432.8934 338.52115 432.72754 339.14014Q432.56168 339.75912 432.9544 340.47058L431.96603 340.91492Q431.4514 339.80475 431.76132 338.9041Q432.077 337.98215 433.146 337.36496Q434.215 336.74777 435.1812 336.98376Q436.1474 337.2198 436.6552 338.09933Q436.91302 338.5459 436.9736 339.0883Q437.0399 339.6093 436.88812 340.34647Q436.74207 341.06226 436.24435 342.4502Q435.81735 343.61685 435.72223 344.0146Q435.6328 344.39096 435.6246 344.7205L439.27814 342.6111ZM438.92722 339.09702Q438.1616 337.77094 437.97128 336.8163Q437.77316 335.84814 438.0509 335.11044Q438.34216 334.36496 439.15405 333.8962Q439.74945 333.55246 440.3366 333.5382Q440.93732 333.51614 441.50064 333.80435Q442.05615 334.079 442.59354 334.6348Q443.13092 335.19055 443.77155 336.30014Q444.52936 337.61273 444.71964 338.56735Q444.9235 339.51413 444.64005 340.2732Q444.3623 341.0109 443.53687 341.48746Q442.46786 342.10464 441.4001 341.69272Q440.13815 341.19443 438.92722 339.09702ZM439.86087 338.55795Q440.91556 340.38474 441.70013 340.74365Q442.4847 341.10257 443.10718 340.7432Q443.74316 340.376 443.8111 339.5249Q443.89255 338.666 442.83786 336.8392Q441.77536 334.9989 440.9986 334.6535Q440.22754 334.28677 439.57803 334.66177Q438.95557 335.02115 438.88138 335.76764Q438.79837 336.71765 439.86087 338.55795ZM451.4025 335.6111L451.9103 336.49066L446.98477 339.3344Q446.79727 339.00964 446.72586 338.63593Q446.62622 338.02588 446.75092 337.30435Q446.88916 336.57504 447.3068 335.48593Q447.94653 333.78146 448.03006 332.9574Q448.12714 332.12555 447.83026 331.61136Q447.51776 331.07007 446.91443 330.9313Q446.30325 330.77896 445.6808 331.13834Q445.01773 331.52115 444.8519 332.14014Q444.68604 332.75912 445.07877 333.47058L444.0904 333.91492Q443.5757 332.80475 443.88568 331.9041Q444.20135 330.98215 445.27036 330.36496Q446.33936 329.74777 447.30557 329.98376Q448.27176 330.2198 448.77957 331.09933Q449.03738 331.5459 449.09796 332.0883Q449.1642 332.6093 449.01245 333.34647Q448.86642 334.06226 448.3687 335.4502Q447.9417 336.61685 447.8466 337.0146Q447.75717 337.39096 447.74893 337.7205L451.4025 335.6111ZM457.46466 332.1111L457.97247 332.99066L453.04697 335.8344Q452.85947 335.50964 452.78802 335.13593Q452.68842 334.52588 452.8131 333.80435Q452.95132 333.07504 453.369 331.98593Q454.0087 330.28146 454.09225 329.4574Q454.18933 328.62555 453.89246 328.11136Q453.57996 327.57007 452.9766 327.4313Q452.36542 327.27896 451.74298 327.63834Q451.07993 328.02115 450.91406 328.64014Q450.7482 329.25912 451.14093 329.97058L450.15256 330.41492Q449.6379 329.30475 449.94785 328.4041Q450.26355 327.48215 451.33255 326.86496Q452.40155 326.24777 453.36774 326.48376Q454.33395 326.7198 454.84177 327.59933Q455.09958 328.0459 455.16013 328.5883Q455.2264 329.1093 455.07465 329.84647Q454.9286 330.56226 454.43088 331.9502Q454.00388 333.11685 453.90875 333.5146Q453.81934 333.89096 453.81113 334.2205L457.46466 332.1111Z" fill-rule="nonzero"/><path fill="#000000" d="M534.3583 359.6111L534.8661 360.49066L529.94055 363.3344Q529.75305 363.00964 529.68164 362.63593Q529.58203 362.02588 529.7067 361.30438Q529.8449 360.57504 530.2626 359.48593Q530.9023 357.78146 530.98584 356.95743Q531.08295 356.12555 530.7861 355.61136Q530.4736 355.0701 529.8702 354.9313Q529.25903 354.77896 528.6366 355.13834Q527.9735 355.52115 527.8077 356.14014Q527.6418 356.75912 528.03455 357.47058L527.04614 357.91492Q526.5315 356.80475 526.84143 355.9041Q527.1571 354.98215 528.22614 354.36496Q529.2951 353.74777 530.26135 353.98376Q531.22754 354.2198 531.73535 355.09937Q531.99316 355.5459 532.0537 356.0883Q532.12 356.6093 531.96826 357.34647Q531.8222 358.06226 531.32446 359.4502Q530.89746 360.61688 530.80237 361.0146Q530.71295 361.391 530.7047 361.7205L534.3583 359.6111ZM532.4443 353.26474L531.93646 352.38516L536.7537 349.6039L537.1678 350.3211Q536.9016 351.4851 536.92456 353.1498Q536.9532 354.79315 537.3399 356.338Q537.59485 357.43576 538.1678 358.5844L537.2206 359.1313Q536.7263 358.24393 536.33234 356.81152Q535.95184 355.37128 535.8967 353.86954Q535.8551 352.35995 536.09784 351.15536L532.4443 353.26474ZM541.824 356.6359L539.538 347.70773L540.26874 347.28586L542.5547 356.21402L541.824 356.6359ZM542.6676 351.09702Q541.902 349.77094 541.7117 348.8163Q541.51355 347.84818 541.79126 347.11047Q542.0825 346.36496 542.8944 345.8962Q543.4898 345.55246 544.077 345.5382Q544.6777 345.51614 545.241 345.80435Q545.7965 346.079 546.3339 346.6348Q546.8713 347.19055 547.5119 348.30014Q548.2697 349.61273 548.46 350.56735Q548.6639 351.51416 548.38043 352.2732Q548.10266 353.0109 547.2772 353.48746Q546.20825 354.10464 545.1405 353.69272Q543.87854 353.19443 542.6676 351.09702ZM543.60126 350.55795Q544.65594 352.38474 545.44055 352.74365Q546.2251 353.1026 546.84753 352.74323Q547.4835 352.37604 547.55145 351.5249Q547.63293 350.666 546.57825 348.8392Q545.51575 346.9989 544.73895 346.65353Q543.9679 346.28677 543.3184 346.66177Q542.6959 347.02115 542.62177 347.76764Q542.53876 348.71765 543.60126 350.55795ZM549.7141 349.302L550.56396 348.649Q551.15814 349.33435 551.7402 349.4674Q552.31433 349.58698 552.8556 349.27448Q553.5051 348.89948 553.69385 348.1951Q553.88257 347.49075 553.49976 346.8277Q553.1404 346.20523 552.4866 346.04147Q551.83844 345.85638 551.20245 346.22357Q550.9453 346.372 550.6154 346.70682L550.25494 345.83243Q550.3574 345.79126 550.41156 345.76Q550.9934 345.42407 551.2816 344.86075Q551.57556 344.2761 551.2084 343.6401Q550.9193 343.13943 550.3935 343.00998Q549.8599 342.867 549.31866 343.1795Q548.7909 343.4842 548.62085 344.03342Q548.46436 344.57483 548.75244 345.29257L547.7385 345.66144Q547.3775 344.66107 547.68384 343.81665Q547.98236 342.9587 548.8619 342.4509Q549.4708 342.09933 550.1413 342.0731Q550.8039 342.0333 551.33234 342.3236Q551.8608 342.6139 552.15765 343.1281Q552.4311 343.6017 552.4084 344.1561Q552.37787 344.69696 552.01 345.21603Q552.7454 344.9899 553.392 345.2661Q554.0308 345.52878 554.4527 346.2595Q555.0152 347.23376 554.68866 348.3244Q554.3757 349.40723 553.2931 350.03223Q552.31885 350.59473 551.3334 350.38788Q550.3401 350.16748 549.7141 349.302ZM556.54645 348.1359L554.26044 339.20773L554.99115 338.78586L557.27716 347.71402L556.54645 348.1359ZM563.8031 342.6111L564.3109 343.49066L559.38544 346.3344Q559.19794 346.00964 559.12646 345.63593Q559.02686 345.02588 559.15155 344.30438Q559.2898 343.57504 559.70746 342.48593Q560.34717 340.78146 560.4307 339.95743Q560.5278 339.12555 560.2309 338.61136Q559.9184 338.0701 559.31506 337.9313Q558.7039 337.77896 558.0814 338.13834Q557.4184 338.52115 557.2525 339.14014Q557.0867 339.75912 557.4794 340.47058L556.491 340.91492Q555.9764 339.80475 556.2863 338.9041Q556.602 337.98215 557.671 337.36496Q558.74 336.74777 559.7062 336.98376Q560.6724 337.2198 561.18024 338.09937Q561.43805 338.5459 561.4986 339.0883Q561.5649 339.6093 561.4131 340.34647Q561.2671 341.06226 560.76935 342.4502Q560.34235 343.61688 560.2472 344.0146Q560.1578 344.391 560.1496 344.7205L563.8031 342.6111ZM563.4522 339.09702Q562.6866 337.77094 562.4963 336.8163Q562.29816 335.84818 562.57587 335.11047Q562.8671 334.36496 563.6791 333.8962Q564.2744 333.55246 564.86163 333.5382Q565.46234 333.51614 566.02563 333.80435Q566.5811 334.079 567.1185 334.6348Q567.6559 335.19055 568.2965 336.30014Q569.0543 337.61273 569.2446 338.56735Q569.4485 339.51416 569.16504 340.2732Q568.88727 341.0109 568.0619 341.48746Q566.99286 342.10464 565.9251 341.69272Q564.66315 341.19443 563.4522 339.09702ZM564.38586 338.55795Q565.44055 340.38474 566.22516 340.74365Q567.0097 341.1026 567.6322 340.74323Q568.2682 340.37604 568.33606 339.5249Q568.41754 338.666 567.36285 336.8392Q566.30035 334.9989 565.52356 334.65353Q564.75256 334.28677 564.103 334.66177Q563.4806 335.02115 563.4064 335.76764Q563.32336 336.71765 564.38586 338.55795ZM575.9275 335.6111L576.4353 336.49066L571.50977 339.3344Q571.32227 339.00964 571.25085 338.63593Q571.15125 338.02588 571.27594 337.30438Q571.4141 336.57504 571.8318 335.48593Q572.4715 333.78146 572.55505 332.95743Q572.65216 332.12555 572.3553 331.61136Q572.0428 331.0701 571.4394 330.9313Q570.82825 330.77896 570.2058 331.13834Q569.5427 331.52115 569.3769 332.14014Q569.211 332.75912 569.60376 333.47058L568.61536 333.91492Q568.1007 332.80475 568.4107 331.9041Q568.7264 330.98215 569.79535 330.36496Q570.8644 329.74777 571.83057 329.98376Q572.79675 330.2198 573.30457 331.09937Q573.5624 331.5459 573.6229 332.0883Q573.6892 332.6093 573.5375 333.34647Q573.3914 334.06226 572.8937 335.4502Q572.46674 336.61688 572.3716 337.0146Q572.28217 337.391 572.2739 337.7205L575.9275 335.6111ZM581.9897 332.1111L582.4975 332.99066L577.57196 335.8344Q577.38446 335.50964 577.31305 335.13593Q577.2134 334.52588 577.3381 333.80438Q577.4763 333.07504 577.894 331.98593Q578.5337 330.28146 578.61725 329.45743Q578.7143 328.62555 578.4174 328.11136Q578.1049 327.5701 577.5016 327.4313Q576.89044 327.27896 576.26794 327.63834Q575.6049 328.02115 575.4391 328.64014Q575.2732 329.25912 575.66595 329.97058L574.67755 330.41492Q574.1629 329.30475 574.47284 328.4041Q574.7885 327.48215 575.85754 326.86496Q576.9265 326.24777 577.89276 326.48376Q578.85895 326.7198 579.36676 327.59937Q579.6246 328.0459 579.6851 328.5883Q579.7514 329.1093 579.5996 329.84647Q579.4536 330.56226 578.9559 331.9502Q578.5289 333.11688 578.4338 333.5146Q578.34436 333.891 578.3361 334.2205L581.9897 332.1111Z" fill-rule="nonzero"/></svg>