<svg version="1.1" viewBox="0.0 0.0 612.0 379.0" fill="none" stroke="none" stroke-linecap="square" stroke-miterlimit="10" width="612" height="379" xmlns:xlink="http://www.w3.org/1999/xlink" xmlns="http://www.w3.org/2000/svg"><path fill="#ffffff" d="M0 0L612.0 0L612.0 379.0L0 379.0L0 0Z" fill-rule="nonzero"/><path stroke="#cccccc" stroke-width="1.0" stroke-linecap="butt" d="M237.5 25.5L237.5 316.5" fill-rule="nonzero"/><path stroke="#cccccc" stroke-width="1.0" stroke-linecap="butt" d="M403.5 25.5L403.5 316.5" fill-rule="nonzero"/><path stroke="#cccccc" stroke-width="1.0" stroke-linecap="butt" d="M569.5 25.5L569.5 316.5" fill-rule="nonzero"/><path stroke="#333333" stroke-width="1.0" stroke-linecap="butt" d="M94.5 316.5L593.5 316.5" fill-rule="nonzero"/><path stroke="#cccccc" stroke-width="1.0" stroke-linecap="butt" d="M94.5 219.5L593.5 219.5" fill-rule="nonzero"/><path stroke="#cccccc" stroke-width="1.0" stroke-linecap="butt" d="M94.5 122.5L593.5 122.5" fill-rule="nonzero"/><path stroke="#cccccc" stroke-width="1.0" stroke-linecap="butt" d="M94.5 25.5L593.5 25.5" fill-rule="nonzero"/><path stroke="#eeeeee" stroke-width="1.0" stroke-linecap="butt" d="M94.95 106.96261L94.95 122.96261" fill-rule="nonzero"/><path stroke="#eeeeee" stroke-width="1.0" stroke-linecap="butt" d="M260.98334 135.81854L260.98334 151.81854" fill-rule="nonzero"/><path stroke="#eeeeee" stroke-width="1.0" stroke-linecap="butt" d="M427.01666 132.98264L427.01666 148.98264" fill-rule="nonzero"/><path stroke="#eeeeee" stroke-width="1.0" stroke-linecap="butt" d="M593.05 108.47818L593.05 124.47818" fill-rule="nonzero"/><clipPath id="id_0"><path d="M94.95 25.95L593.05 25.95L593.05 316.98782L94.95 316.98782L94.95 25.95Z" clip-rule="nonzero"/></clipPath><path stroke="#000000" stroke-width="2.0" stroke-linecap="butt" clip-path="url(#id_0)" d="M94.95 122.96261L260.98334 151.81854L427.01666 148.98264L593.05 124.47818" fill-rule="nonzero"/><path fill="#000000" clip-path="url(#id_0)" d="M94.95 122.96261C94.95 122.96261 94.95 122.96261 94.95 122.96261C94.95 122.96261 94.95 122.96261 94.95 122.96261C94.95 122.96261 94.95 122.96261 94.95 122.96261C94.95 122.96261 94.95 122.96261 94.95 122.96261Z" fill-rule="nonzero"/><path fill="#000000" clip-path="url(#id_0)" d="M262.98334 151.81854C262.98334 152.92311 262.0879 153.81854 260.98334 153.81854C259.87875 153.81854 258.98334 152.92311 258.98334 151.81854C258.98334 150.71397 259.87875 149.81854 260.98334 149.81854C262.0879 149.81854 262.98334 150.71397 262.98334 151.81854Z" fill-rule="nonzero"/><path fill="#000000" clip-path="url(#id_0)" d="M429.01666 148.98264C429.01666 150.0872 428.12125 150.98264 427.01666 150.98264C425.9121 150.98264 425.01666 150.0872 425.01666 148.98264C425.01666 147.87807 425.9121 146.98264 427.01666 146.98264C428.12125 146.98264 429.01666 147.87807 429.01666 148.98264Z" fill-rule="nonzero"/><path fill="#000000" clip-path="url(#id_0)" d="M593.05 124.47818C593.05 124.47818 593.05 124.47818 593.05 124.47818C593.05 124.47818 593.05 124.47818 593.05 124.47818C593.05 124.47818 593.05 124.47818 593.05 124.47818C593.05 124.47818 593.05 124.47818 593.05 124.47818Z" fill-rule="nonzero"/><path stroke="#ffffff" stroke-width="3.0" stroke-linejoin="round" stroke-linecap="round" d="M81.46562 102.75948Q81.46562 102.22823 81.09062 101.86886Q80.71562 101.49386 79.80937 101.18136Q78.55937 100.80636 77.98125 100.19698Q77.41875 99.58761 77.41875 98.63448Q77.41875 97.68136 77.98125 97.07198Q78.54375 96.44698 79.52812 96.33761L79.52812 95.04073L80.3875 95.04073L80.3875 96.33761Q81.37187 96.47823 81.91875 97.16573Q82.48125 97.85323 82.48125 99.05636L81.40312 99.05636Q81.40312 98.22823 80.99687 97.74386Q80.60625 97.25948 79.95 97.25948Q79.24687 97.25948 78.87187 97.61886Q78.5125 97.97823 78.5125 98.61886Q78.5125 99.21261 78.90312 99.57198Q79.29375 99.93136 80.18437 100.22823Q81.075 100.50948 81.575 100.86886Q82.075 101.21261 82.30937 101.68136Q82.54375 102.13448 82.54375 102.75948Q82.54375 103.74386 81.95 104.35323Q81.35625 104.94698 80.29375 105.05636L80.29375 106.18136L79.41875 106.18136L79.41875 105.05636Q78.325 104.96261 77.7 104.29073Q77.09062 103.60323 77.09062 102.44698L78.18437 102.44698Q78.18437 103.25948 78.60625 103.69698Q79.02812 104.13448 79.825 104.13448Q80.59062 104.13448 81.02812 103.77511Q81.46562 103.40011 81.46562 102.75948ZM87.71562 104.96261L86.6375 104.96261L86.6375 97.74386L84.45 98.54073L84.45 97.55636L87.55937 96.38448L87.71562 96.38448L87.71562 104.96261ZM96.5125 101.32198Q96.5125 103.22823 95.85625 104.16573Q95.21562 105.08761 93.825 105.08761Q92.46562 105.08761 91.80937 104.18136Q91.15312 103.27511 91.12187 101.46261L91.12187 100.02511Q91.12187 98.13448 91.7625 97.22823Q92.41875 96.30636 93.80937 96.30636Q95.18437 96.30636 95.84062 97.19698Q96.49687 98.07198 96.5125 99.91573L96.5125 101.32198ZM95.41875 99.83761Q95.41875 98.46261 95.02812 97.83761Q94.65312 97.19698 93.80937 97.19698Q92.98125 97.19698 92.59062 97.83761Q92.21562 98.46261 92.21562 99.75948L92.21562 101.49386Q92.21562 102.86886 92.60625 103.54073Q93.0125 104.19698 93.825 104.19698Q94.62187 104.19698 95.0125 103.57198Q95.40312 102.94698 95.41875 101.61886L95.41875 99.83761ZM98.23125 106.66573L97.62187 106.24386Q98.16875 105.47823 98.2 104.65011L98.2 103.68136L99.2625 103.68136L99.2625 104.52511Q99.2625 105.11886 98.96562 105.71261Q98.66875 106.30636 98.23125 106.66573ZM105.5125 101.32198Q105.5125 103.22823 104.85625 104.16573Q104.21562 105.08761 102.825 105.08761Q101.46562 105.08761 100.80937 104.18136Q100.15312 103.27511 100.12187 101.46261L100.12187 100.02511Q100.12187 98.13448 100.7625 97.22823Q101.41875 96.30636 102.80937 96.30636Q104.18437 96.30636 104.84062 97.19698Q105.49687 98.07198 105.5125 99.91573L105.5125 101.32198ZM104.41875 99.83761Q104.41875 98.46261 104.02812 97.83761Q103.65312 97.19698 102.80937 97.19698Q101.98125 97.19698 101.59062 97.83761Q101.21562 98.46261 101.21562 99.75948L101.21562 101.49386Q101.21562 102.86886 101.60625 103.54073Q102.0125 104.19698 102.825 104.19698Q103.62187 104.19698 104.0125 103.57198Q104.40312 102.94698 104.41875 101.61886L104.41875 99.83761ZM112.5125 101.32198Q112.5125 103.22823 111.85625 104.16573Q111.21562 105.08761 109.825 105.08761Q108.46562 105.08761 107.80937 104.18136Q107.15312 103.27511 107.12187 101.46261L107.12187 100.02511Q107.12187 98.13448 107.7625 97.22823Q108.41875 96.30636 109.80937 96.30636Q111.18437 96.30636 111.84062 97.19698Q112.49687 98.07198 112.5125 99.91573L112.5125 101.32198ZM111.41875 99.83761Q111.41875 98.46261 111.02812 97.83761Q110.65312 97.19698 109.80937 97.19698Q108.98125 97.19698 108.59062 97.83761Q108.21562 98.46261 108.21562 99.75948L108.21562 101.49386Q108.21562 102.86886 108.60625 103.54073Q109.0125 104.19698 109.825 104.19698Q110.62187 104.19698 111.0125 103.57198Q111.40312 102.94698 111.41875 101.61886L111.41875 99.83761Z" fill-rule="nonzero"/><path fill="#000000" d="M81.46562 102.75948Q81.46562 102.22823 81.09062 101.86886Q80.71562 101.49386 79.80937 101.18136Q78.55937 100.80636 77.98125 100.19698Q77.41875 99.58761 77.41875 98.63448Q77.41875 97.68136 77.98125 97.07198Q78.54375 96.44698 79.52812 96.33761L79.52812 95.04073L80.3875 95.04073L80.3875 96.33761Q81.37187 96.47823 81.91875 97.16573Q82.48125 97.85323 82.48125 99.05636L81.40312 99.05636Q81.40312 98.22823 80.99687 97.74386Q80.60625 97.25948 79.95 97.25948Q79.24687 97.25948 78.87187 97.61886Q78.5125 97.97823 78.5125 98.61886Q78.5125 99.21261 78.90312 99.57198Q79.29375 99.93136 80.18437 100.22823Q81.075 100.50948 81.575 100.86886Q82.075 101.21261 82.30937 101.68136Q82.54375 102.13448 82.54375 102.75948Q82.54375 103.74386 81.95 104.35323Q81.35625 104.94698 80.29375 105.05636L80.29375 106.18136L79.41875 106.18136L79.41875 105.05636Q78.325 104.96261 77.7 104.29073Q77.09062 103.60323 77.09062 102.44698L78.18437 102.44698Q78.18437 103.25948 78.60625 103.69698Q79.02812 104.13448 79.825 104.13448Q80.59062 104.13448 81.02812 103.77511Q81.46562 103.40011 81.46562 102.75948ZM87.71562 104.96261L86.6375 104.96261L86.6375 97.74386L84.45 98.54073L84.45 97.55636L87.55937 96.38448L87.71562 96.38448L87.71562 104.96261ZM96.5125 101.32198Q96.5125 103.22823 95.85625 104.16573Q95.21562 105.08761 93.825 105.08761Q92.46562 105.08761 91.80937 104.18136Q91.15312 103.27511 91.12187 101.46261L91.12187 100.02511Q91.12187 98.13448 91.7625 97.22823Q92.41875 96.30636 93.80937 96.30636Q95.18437 96.30636 95.84062 97.19698Q96.49687 98.07198 96.5125 99.91573L96.5125 101.32198ZM95.41875 99.83761Q95.41875 98.46261 95.02812 97.83761Q94.65312 97.19698 93.80937 97.19698Q92.98125 97.19698 92.59062 97.83761Q92.21562 98.46261 92.21562 99.75948L92.21562 101.49386Q92.21562 102.86886 92.60625 103.54073Q93.0125 104.19698 93.825 104.19698Q94.62187 104.19698 95.0125 103.57198Q95.40312 102.94698 95.41875 101.61886L95.41875 99.83761ZM98.23125 106.66573L97.62187 106.24386Q98.16875 105.47823 98.2 104.65011L98.2 103.68136L99.2625 103.68136L99.2625 104.52511Q99.2625 105.11886 98.96562 105.71261Q98.66875 106.30636 98.23125 106.66573ZM105.5125 101.32198Q105.5125 103.22823 104.85625 104.16573Q104.21562 105.08761 102.825 105.08761Q101.46562 105.08761 100.80937 104.18136Q100.15312 103.27511 100.12187 101.46261L100.12187 100.02511Q100.12187 98.13448 100.7625 97.22823Q101.41875 96.30636 102.80937 96.30636Q104.18437 96.30636 104.84062 97.19698Q105.49687 98.07198 105.5125 99.91573L105.5125 101.32198ZM104.41875 99.83761Q104.41875 98.46261 104.02812 97.83761Q103.65312 97.19698 102.80937 97.19698Q101.98125 97.19698 101.59062 97.83761Q101.21562 98.46261 101.21562 99.75948L101.21562 101.49386Q101.21562 102.86886 101.60625 103.54073Q102.0125 104.19698 102.825 104.19698Q103.62187 104.19698 104.0125 103.57198Q104.40312 102.94698 104.41875 101.61886L104.41875 99.83761ZM112.5125 101.32198Q112.5125 103.22823 111.85625 104.16573Q111.21562 105.08761 109.825 105.08761Q108.46562 105.08761 107.80937 104.18136Q107.15312 103.27511 107.12187 101.46261L107.12187 100.02511Q107.12187 98.13448 107.7625 97.22823Q108.41875 96.30636 109.80937 96.30636Q111.18437 96.30636 111.84062 97.19698Q112.49687 98.07198 112.5125 99.91573L112.5125 101.32198ZM111.41875 99.83761Q111.41875 98.46261 111.02812 97.83761Q110.65312 97.19698 109.80937 97.19698Q108.98125 97.19698 108.59062 97.83761Q108.21562 98.46261 108.21562 99.75948L108.21562 101.49386Q108.21562 102.86886 108.60625 103.54073Q109.0125 104.19698 109.825 104.19698Q110.62187 104.19698 111.0125 103.57198Q111.40312 102.94698 111.41875 101.61886L111.41875 99.83761Z" fill-rule="nonzero"/><path stroke="#ffffff" stroke-width="3.0" stroke-linejoin="round" stroke-linecap="round" d="M250.99896 131.61542Q250.99896 131.08417 250.62396 130.7248Q250.24896 130.3498 249.34271 130.0373Q248.09271 129.6623 247.51459 129.05292Q246.95209 128.44354 246.95209 127.49042Q246.95209 126.53729 247.51459 125.92792Q248.07709 125.30292 249.06146 125.19354L249.06146 123.89667L249.92084 123.89667L249.92084 125.19354Q250.90521 125.33417 251.45209 126.02167Q252.01459 126.70917 252.01459 127.91229L250.93646 127.91229Q250.93646 127.08417 250.53021 126.59979Q250.13959 126.11542 249.48334 126.11542Q248.78021 126.11542 248.40521 126.47479Q248.04584 126.83417 248.04584 127.47479Q248.04584 128.06854 248.43646 128.42792Q248.82709 128.7873 249.71771 129.08417Q250.60834 129.36542 251.10834 129.7248Q251.60834 130.06854 251.84271 130.5373Q252.07709 130.99042 252.07709 131.61542Q252.07709 132.5998 251.48334 133.20917Q250.88959 133.80292 249.82709 133.9123L249.82709 135.0373L248.95209 135.0373L248.95209 133.9123Q247.85834 133.81854 247.23334 133.14667Q246.62396 132.45917 246.62396 131.30292L247.71771 131.30292Q247.71771 132.11542 248.13959 132.55292Q248.56146 132.99042 249.35834 132.99042Q250.12396 132.99042 250.56146 132.63104Q250.99896 132.25604 250.99896 131.61542ZM258.87396 127.50604Q258.87396 128.14667 258.5302 128.64667Q258.18646 129.14667 257.62396 129.42792Q258.2802 129.70917 258.67084 130.27167Q259.06146 130.81854 259.06146 131.52167Q259.06146 132.61542 258.31146 133.2873Q257.5771 133.94354 256.35834 133.94354Q255.12396 133.94354 254.37396 133.2873Q253.63959 132.61542 253.63959 131.52167Q253.63959 130.81854 254.01459 130.27167Q254.38959 129.70917 255.06146 129.42792Q254.49896 129.14667 254.17084 128.64667Q253.84271 128.14667 253.84271 127.50604Q253.84271 126.42792 254.53021 125.80292Q255.21771 125.16229 256.35834 125.16229Q257.48334 125.16229 258.17084 125.80292Q258.87396 126.42792 258.87396 127.50604ZM257.98334 131.49042Q257.98334 130.77167 257.5302 130.33417Q257.0771 129.88104 256.3427 129.88104Q255.60834 129.88104 255.15521 130.33417Q254.71771 130.77167 254.71771 131.50604Q254.71771 132.2248 255.15521 132.64667Q255.59271 133.05292 256.35834 133.05292Q257.10834 133.05292 257.54584 132.63104Q257.98334 132.20917 257.98334 131.49042ZM256.35834 126.05292Q255.71771 126.05292 255.31146 126.45917Q254.92084 126.84979 254.92084 127.53729Q254.92084 128.17792 255.31146 128.58417Q255.70209 128.99042 256.3427 128.99042Q256.99896 128.99042 257.3896 128.58417Q257.7802 128.17792 257.7802 127.53729Q257.7802 126.88104 257.37396 126.47479Q256.9677 126.05292 256.35834 126.05292ZM260.7646 135.52167L260.1552 135.0998Q260.7021 134.33417 260.73334 133.50604L260.73334 132.5373L261.79584 132.5373L261.79584 133.38104Q261.79584 133.9748 261.49896 134.56854Q261.2021 135.1623 260.7646 135.52167ZM263.18646 129.5373L263.62396 125.28729L267.99896 125.28729L267.99896 126.28729L264.54584 126.28729L264.2802 128.61542Q264.92084 128.24042 265.7177 128.24042Q266.87396 128.24042 267.56146 129.02167Q268.24896 129.7873 268.24896 131.0998Q268.24896 132.4123 267.5302 133.17792Q266.8271 133.94354 265.54584 133.94354Q264.42084 133.94354 263.7021 133.31854Q262.98334 132.67792 262.8896 131.56854L263.9052 131.56854Q264.0146 132.30292 264.43646 132.67792Q264.85834 133.05292 265.54584 133.05292Q266.29584 133.05292 266.73334 132.5373Q267.17084 132.02167 267.17084 131.11542Q267.17084 130.25604 266.7021 129.74042Q266.23334 129.2248 265.4521 129.2248Q264.74896 129.2248 264.3427 129.52167L264.06146 129.75604L263.18646 129.5373ZM273.24896 133.81854L272.17084 133.81854L272.17084 126.59979L269.98334 127.39667L269.98334 126.41229L273.0927 125.24042L273.24896 125.24042L273.24896 133.81854Z" fill-rule="nonzero"/><path fill="#000000" d="M250.99896 131.61542Q250.99896 131.08417 250.62396 130.7248Q250.24896 130.3498 249.34271 130.0373Q248.09271 129.6623 247.51459 129.05292Q246.95209 128.44354 246.95209 127.49042Q246.95209 126.53729 247.51459 125.92792Q248.07709 125.30292 249.06146 125.19354L249.06146 123.89667L249.92084 123.89667L249.92084 125.19354Q250.90521 125.33417 251.45209 126.02167Q252.01459 126.70917 252.01459 127.91229L250.93646 127.91229Q250.93646 127.08417 250.53021 126.59979Q250.13959 126.11542 249.48334 126.11542Q248.78021 126.11542 248.40521 126.47479Q248.04584 126.83417 248.04584 127.47479Q248.04584 128.06854 248.43646 128.42792Q248.82709 128.7873 249.71771 129.08417Q250.60834 129.36542 251.10834 129.7248Q251.60834 130.06854 251.84271 130.5373Q252.07709 130.99042 252.07709 131.61542Q252.07709 132.5998 251.48334 133.20917Q250.88959 133.80292 249.82709 133.9123L249.82709 135.0373L248.95209 135.0373L248.95209 133.9123Q247.85834 133.81854 247.23334 133.14667Q246.62396 132.45917 246.62396 131.30292L247.71771 131.30292Q247.71771 132.11542 248.13959 132.55292Q248.56146 132.99042 249.35834 132.99042Q250.12396 132.99042 250.56146 132.63104Q250.99896 132.25604 250.99896 131.61542ZM258.87396 127.50604Q258.87396 128.14667 258.5302 128.64667Q258.18646 129.14667 257.62396 129.42792Q258.2802 129.70917 258.67084 130.27167Q259.06146 130.81854 259.06146 131.52167Q259.06146 132.61542 258.31146 133.2873Q257.5771 133.94354 256.35834 133.94354Q255.12396 133.94354 254.37396 133.2873Q253.63959 132.61542 253.63959 131.52167Q253.63959 130.81854 254.01459 130.27167Q254.38959 129.70917 255.06146 129.42792Q254.49896 129.14667 254.17084 128.64667Q253.84271 128.14667 253.84271 127.50604Q253.84271 126.42792 254.53021 125.80292Q255.21771 125.16229 256.35834 125.16229Q257.48334 125.16229 258.17084 125.80292Q258.87396 126.42792 258.87396 127.50604ZM257.98334 131.49042Q257.98334 130.77167 257.5302 130.33417Q257.0771 129.88104 256.3427 129.88104Q255.60834 129.88104 255.15521 130.33417Q254.71771 130.77167 254.71771 131.50604Q254.71771 132.2248 255.15521 132.64667Q255.59271 133.05292 256.35834 133.05292Q257.10834 133.05292 257.54584 132.63104Q257.98334 132.20917 257.98334 131.49042ZM256.35834 126.05292Q255.71771 126.05292 255.31146 126.45917Q254.92084 126.84979 254.92084 127.53729Q254.92084 128.17792 255.31146 128.58417Q255.70209 128.99042 256.3427 128.99042Q256.99896 128.99042 257.3896 128.58417Q257.7802 128.17792 257.7802 127.53729Q257.7802 126.88104 257.37396 126.47479Q256.9677 126.05292 256.35834 126.05292ZM260.7646 135.52167L260.1552 135.0998Q260.7021 134.33417 260.73334 133.50604L260.73334 132.5373L261.79584 132.5373L261.79584 133.38104Q261.79584 133.9748 261.49896 134.56854Q261.2021 135.1623 260.7646 135.52167ZM263.18646 129.5373L263.62396 125.28729L267.99896 125.28729L267.99896 126.28729L264.54584 126.28729L264.2802 128.61542Q264.92084 128.24042 265.7177 128.24042Q266.87396 128.24042 267.56146 129.02167Q268.24896 129.7873 268.24896 131.0998Q268.24896 132.4123 267.5302 133.17792Q266.8271 133.94354 265.54584 133.94354Q264.42084 133.94354 263.7021 133.31854Q262.98334 132.67792 262.8896 131.56854L263.9052 131.56854Q264.0146 132.30292 264.43646 132.67792Q264.85834 133.05292 265.54584 133.05292Q266.29584 133.05292 266.73334 132.5373Q267.17084 132.02167 267.17084 131.11542Q267.17084 130.25604 266.7021 129.74042Q266.23334 129.2248 265.4521 129.2248Q264.74896 129.2248 264.3427 129.52167L264.06146 129.75604L263.18646 129.5373ZM273.24896 133.81854L272.17084 133.81854L272.17084 126.59979L269.98334 127.39667L269.98334 126.41229L273.0927 125.24042L273.24896 125.24042L273.24896 133.81854Z" fill-rule="nonzero"/><path stroke="#ffffff" stroke-width="3.0" stroke-linejoin="round" stroke-linecap="round" d="M417.0323 128.77951Q417.0323 128.24826 416.6573 127.88888Q416.2823 127.51388 415.37604 127.20138Q414.12604 126.82638 413.5479 126.217Q412.9854 125.60763 412.9854 124.6545Q412.9854 123.70138 413.5479 123.092Q414.1104 122.467 415.0948 122.35763L415.0948 121.06075L415.95416 121.06075L415.95416 122.35763Q416.93854 122.49825 417.4854 123.18575Q418.0479 123.87325 418.0479 125.07638L416.9698 125.07638Q416.9698 124.24825 416.56354 123.76388Q416.1729 123.2795 415.51666 123.2795Q414.81354 123.2795 414.43854 123.63888Q414.07916 123.99825 414.07916 124.63888Q414.07916 125.23263 414.4698 125.592Q414.8604 125.95138 415.75104 126.24825Q416.64166 126.5295 417.14166 126.88888Q417.64166 127.23263 417.87604 127.70138Q418.1104 128.15451 418.1104 128.77951Q418.1104 129.76389 417.51666 130.37326Q416.9229 130.96701 415.8604 131.07639L415.8604 132.20139L414.9854 132.20139L414.9854 131.07639Q413.89166 130.98264 413.26666 130.31076Q412.6573 129.62326 412.6573 128.46701L413.75104 128.46701Q413.75104 129.27951 414.1729 129.71701Q414.5948 130.15451 415.39166 130.15451Q416.1573 130.15451 416.5948 129.79514Q417.0323 129.42014 417.0323 128.77951ZM424.9073 124.67013Q424.9073 125.31075 424.56354 125.81075Q424.2198 126.31075 423.6573 126.592Q424.31354 126.87325 424.70416 127.43575Q425.0948 127.98263 425.0948 128.68576Q425.0948 129.77951 424.3448 130.45139Q423.6104 131.10764 422.39166 131.10764Q421.1573 131.10764 420.4073 130.45139Q419.6729 129.77951 419.6729 128.68576Q419.6729 127.98263 420.0479 127.43575Q420.4229 126.87325 421.0948 126.592Q420.5323 126.31075 420.20416 125.81075Q419.87604 125.31075 419.87604 124.67013Q419.87604 123.592 420.56354 122.967Q421.25104 122.32638 422.39166 122.32638Q423.51666 122.32638 424.20416 122.967Q424.9073 123.592 424.9073 124.67013ZM424.01666 128.65451Q424.01666 127.93575 423.56354 127.49825Q423.1104 127.04513 422.37604 127.04513Q421.64166 127.04513 421.18854 127.49825Q420.75104 127.93575 420.75104 128.67014Q420.75104 129.38889 421.18854 129.81076Q421.62604 130.21701 422.39166 130.21701Q423.14166 130.21701 423.57916 129.79514Q424.01666 129.37326 424.01666 128.65451ZM422.39166 123.217Q421.75104 123.217 421.3448 123.62325Q420.95416 124.01388 420.95416 124.70138Q420.95416 125.342 421.3448 125.74825Q421.7354 126.1545 422.37604 126.1545Q423.0323 126.1545 423.4229 125.74825Q423.81354 125.342 423.81354 124.70138Q423.81354 124.04513 423.4073 123.63888Q423.00104 123.217 422.39166 123.217ZM426.7979 132.68576L426.18854 132.26389Q426.7354 131.49826 426.76666 130.67014L426.76666 129.70139L427.82916 129.70139L427.82916 130.54514Q427.82916 131.13889 427.5323 131.73264Q427.2354 132.32639 426.7979 132.68576ZM432.9854 122.45138L432.9854 123.35763L432.7823 123.35763Q431.51666 123.38888 430.76666 124.12325Q430.01666 124.842 429.89166 126.1545Q430.57916 125.38888 431.7354 125.38888Q432.8448 125.38888 433.51666 126.17013Q434.18854 126.95138 434.18854 128.20139Q434.18854 129.51389 433.4698 130.31076Q432.75104 131.10764 431.5323 131.10764Q430.31354 131.10764 429.5479 130.17014Q428.7979 129.21701 428.7979 127.73263L428.7979 127.32638Q428.7979 124.967 429.7979 123.717Q430.7979 122.467 432.7823 122.45138L432.9854 122.45138ZM431.56354 126.29513Q431.00104 126.29513 430.5323 126.62325Q430.06354 126.95138 429.87604 127.467L429.87604 127.85763Q429.87604 128.92014 430.3448 129.56076Q430.82916 130.20139 431.5323 130.20139Q432.26666 130.20139 432.68854 129.67014Q433.1104 129.12326 433.1104 128.24826Q433.1104 127.37325 432.68854 126.842Q432.26666 126.29513 431.56354 126.29513ZM439.9854 122.45138L439.9854 123.35763L439.7823 123.35763Q438.51666 123.38888 437.76666 124.12325Q437.01666 124.842 436.89166 126.1545Q437.57916 125.38888 438.7354 125.38888Q439.8448 125.38888 440.51666 126.17013Q441.18854 126.95138 441.18854 128.20139Q441.18854 129.51389 440.4698 130.31076Q439.75104 131.10764 438.5323 131.10764Q437.31354 131.10764 436.5479 130.17014Q435.7979 129.21701 435.7979 127.73263L435.7979 127.32638Q435.7979 124.967 436.7979 123.717Q437.7979 122.467 439.7823 122.45138L439.9854 122.45138ZM438.56354 126.29513Q438.00104 126.29513 437.5323 126.62325Q437.06354 126.95138 436.87604 127.467L436.87604 127.85763Q436.87604 128.92014 437.3448 129.56076Q437.82916 130.20139 438.5323 130.20139Q439.26666 130.20139 439.68854 129.67014Q440.1104 129.12326 440.1104 128.24826Q440.1104 127.37325 439.68854 126.842Q439.26666 126.29513 438.56354 126.29513Z" fill-rule="nonzero"/><path fill="#000000" d="M417.0323 128.77951Q417.0323 128.24826 416.6573 127.888885Q416.2823 127.513885 415.37604 127.201385Q414.12604 126.826385 413.5479 126.21701Q412.9854 125.607635 412.9854 124.65451Q412.9854 123.701385 413.5479 123.09201Q414.1104 122.46701 415.0948 122.357635L415.0948 121.06076L415.95416 121.06076L415.95416 122.357635Q416.93854 122.49826 417.4854 123.18576Q418.0479 123.87326 418.0479 125.076385L416.9698 125.076385Q416.9698 124.24826 416.56354 123.763885Q416.1729 123.27951 415.51666 123.27951Q414.81354 123.27951 414.43854 123.638885Q414.07916 123.99826 414.07916 124.638885Q414.07916 125.232635 414.4698 125.59201Q414.8604 125.951385 415.75104 126.24826Q416.64166 126.52951 417.14166 126.888885Q417.64166 127.232635 417.87604 127.701385Q418.1104 128.15451 418.1104 128.77951Q418.1104 129.76389 417.51666 130.37326Q416.9229 130.96701 415.8604 131.07639L415.8604 132.20139L414.9854 132.20139L414.9854 131.07639Q413.89166 130.98264 413.26666 130.31076Q412.6573 129.62326 412.6573 128.46701L413.75104 128.46701Q413.75104 129.27951 414.1729 129.71701Q414.5948 130.15451 415.39166 130.15451Q416.1573 130.15451 416.5948 129.79514Q417.0323 129.42014 417.0323 128.77951ZM424.9073 124.670135Q424.9073 125.31076 424.56354 125.81076Q424.2198 126.31076 423.6573 126.59201Q424.31354 126.87326 424.70416 127.43576Q425.0948 127.982635 425.0948 128.68576Q425.0948 129.77951 424.3448 130.45139Q423.6104 131.10764 422.39166 131.10764Q421.1573 131.10764 420.4073 130.45139Q419.6729 129.77951 419.6729 128.68576Q419.6729 127.982635 420.0479 127.43576Q420.4229 126.87326 421.0948 126.59201Q420.5323 126.31076 420.20416 125.81076Q419.87604 125.31076 419.87604 124.670135Q419.87604 123.59201 420.56354 122.96701Q421.25104 122.326385 422.39166 122.326385Q423.51666 122.326385 424.20416 122.96701Q424.9073 123.59201 424.9073 124.670135ZM424.01666 128.65451Q424.01666 127.93576 423.56354 127.49826Q423.1104 127.045135 422.37604 127.045135Q421.64166 127.045135 421.18854 127.49826Q420.75104 127.93576 420.75104 128.67014Q420.75104 129.38889 421.18854 129.81076Q421.62604 130.21701 422.39166 130.21701Q423.14166 130.21701 423.57916 129.79514Q424.01666 129.37326 424.01666 128.65451ZM422.39166 123.21701Q421.75104 123.21701 421.3448 123.62326Q420.95416 124.013885 420.95416 124.701385Q420.95416 125.34201 421.3448 125.74826Q421.7354 126.15451 422.37604 126.15451Q423.0323 126.15451 423.4229 125.74826Q423.81354 125.34201 423.81354 124.701385Q423.81354 124.045135 423.4073 123.638885Q423.00104 123.21701 422.39166 123.21701ZM426.7979 132.68576L426.18854 132.26389Q426.7354 131.49826 426.76666 130.67014L426.76666 129.70139L427.82916 129.70139L427.82916 130.54514Q427.82916 131.13889 427.5323 131.73264Q427.2354 132.32639 426.7979 132.68576ZM432.9854 122.451385L432.9854 123.357635L432.7823 123.357635Q431.51666 123.388885 430.76666 124.12326Q430.01666 124.84201 429.89166 126.15451Q430.57916 125.388885 431.7354 125.388885Q432.8448 125.388885 433.51666 126.170135Q434.18854 126.951385 434.18854 128.20139Q434.18854 129.51389 433.4698 130.31076Q432.75104 131.10764 431.5323 131.10764Q430.31354 131.10764 429.5479 130.17014Q428.7979 129.21701 428.7979 127.732635L428.7979 127.326385Q428.7979 124.96701 429.7979 123.71701Q430.7979 122.46701 432.7823 122.451385L432.9854 122.451385ZM431.56354 126.295135Q431.00104 126.295135 430.5323 126.62326Q430.06354 126.951385 429.87604 127.46701L429.87604 127.857635Q429.87604 128.92014 430.3448 129.56076Q430.82916 130.20139 431.5323 130.20139Q432.26666 130.20139 432.68854 129.67014Q433.1104 129.12326 433.1104 128.24826Q433.1104 127.37326 432.68854 126.84201Q432.26666 126.295135 431.56354 126.295135ZM439.9854 122.451385L439.9854 123.357635L439.7823 123.357635Q438.51666 123.388885 437.76666 124.12326Q437.01666 124.84201 436.89166 126.15451Q437.57916 125.388885 438.7354 125.388885Q439.8448 125.388885 440.51666 126.170135Q441.18854 126.951385 441.18854 128.20139Q441.18854 129.51389 440.4698 130.31076Q439.75104 131.10764 438.5323 131.10764Q437.31354 131.10764 436.5479 130.17014Q435.7979 129.21701 435.7979 127.732635L435.7979 127.326385Q435.7979 124.96701 436.7979 123.71701Q437.7979 122.46701 439.7823 122.451385L439.9854 122.451385ZM438.56354 126.295135Q438.00104 126.295135 437.5323 126.62326Q437.06354 126.951385 436.87604 127.46701L436.87604 127.857635Q436.87604 128.92014 437.3448 129.56076Q437.82916 130.20139 438.5323 130.20139Q439.26666 130.20139 439.68854 129.67014Q440.1104 129.12326 440.1104 128.24826Q440.1104 127.37326 439.68854 126.84201Q439.26666 126.295135 438.56354 126.295135Z" fill-rule="nonzero"/><path stroke="#ffffff" stroke-width="3.0" stroke-linejoin="round" stroke-linecap="round" d="M583.0656 104.275055Q583.0656 103.743805 582.6906 103.38443Q582.3156 103.00943 581.40936 102.69693Q580.15936 102.32193 579.58124 101.712555Q579.01874 101.10318 579.01874 100.150055Q579.01874 99.19693 579.58124 98.587555Q580.14374 97.962555 581.1281 97.85318L581.1281 96.556305L581.9875 96.556305L581.9875 97.85318Q582.97186 97.993805 583.51874 98.681305Q584.08124 99.368805 584.08124 100.57193L583.0031 100.57193Q583.0031 99.743805 582.59686 99.25943Q582.20624 98.775055 581.55 98.775055Q580.84686 98.775055 580.47186 99.13443Q580.1125 99.493805 580.1125 100.13443Q580.1125 100.72818 580.5031 101.087555Q580.89374 101.44693 581.78436 101.743805Q582.675 102.025055 583.175 102.38443Q583.675 102.72818 583.90936 103.19693Q584.14374 103.650055 584.14374 104.275055Q584.14374 105.25943 583.55 105.868805Q582.95624 106.462555 581.89374 106.57193L581.89374 107.69693L581.01874 107.69693L581.01874 106.57193Q579.925 106.47818 579.3 105.806305Q578.6906 105.118805 578.6906 103.962555L579.78436 103.962555Q579.78436 104.775055 580.20624 105.212555Q580.6281 105.650055 581.425 105.650055Q582.1906 105.650055 582.6281 105.29068Q583.0656 104.91568 583.0656 104.275055ZM589.90936 102.72818Q589.58124 103.13443 589.09686 103.38443Q588.6281 103.618805 588.0656 103.618805Q587.33124 103.618805 586.78436 103.25943Q586.2375 102.900055 585.9406 102.243805Q585.64374 101.57193 585.64374 100.775055Q585.64374 99.931305 585.95624 99.243805Q586.28436 98.556305 586.8781 98.19693Q587.4875 97.82193 588.28436 97.82193Q589.55 97.82193 590.26874 98.775055Q591.0031 99.72818 591.0031 101.35318L591.0031 101.66568Q591.0031 104.16568 590.01874 105.306305Q589.03436 106.44693 587.05 106.47818L586.83124 106.47818L586.83124 105.57193L587.0656 105.57193Q588.40936 105.54068 589.1281 104.868805Q589.84686 104.19693 589.90936 102.72818ZM588.2375 102.72818Q588.78436 102.72818 589.2375 102.400055Q589.70624 102.056305 589.925 101.57193L589.925 101.13443Q589.925 100.07193 589.45624 99.400055Q588.9875 98.72818 588.28436 98.72818Q587.5656 98.72818 587.1281 99.275055Q586.70624 99.82193 586.70624 100.72818Q586.70624 101.60318 587.1125 102.16568Q587.53436 102.72818 588.2375 102.72818ZM592.83124 108.181305L592.22186 107.75943Q592.76874 106.993805 592.8 106.16568L592.8 105.19693L593.8625 105.19693L593.8625 106.04068Q593.8625 106.63443 593.5656 107.22818Q593.26874 107.82193 592.83124 108.181305ZM598.90936 102.72818Q598.58124 103.13443 598.09686 103.38443Q597.6281 103.618805 597.0656 103.618805Q596.33124 103.618805 595.78436 103.25943Q595.2375 102.900055 594.9406 102.243805Q594.64374 101.57193 594.64374 100.775055Q594.64374 99.931305 594.95624 99.243805Q595.28436 98.556305 595.8781 98.19693Q596.4875 97.82193 597.28436 97.82193Q598.55 97.82193 599.26874 98.775055Q600.0031 99.72818 600.0031 101.35318L600.0031 101.66568Q600.0031 104.16568 599.01874 105.306305Q598.03436 106.44693 596.05 106.47818L595.83124 106.47818L595.83124 105.57193L596.0656 105.57193Q597.40936 105.54068 598.1281 104.868805Q598.84686 104.19693 598.90936 102.72818ZM597.2375 102.72818Q597.78436 102.72818 598.2375 102.400055Q598.70624 102.056305 598.925 101.57193L598.925 101.13443Q598.925 100.07193 598.45624 99.400055Q597.9875 98.72818 597.28436 98.72818Q596.5656 98.72818 596.1281 99.275055Q595.70624 99.82193 595.70624 100.72818Q595.70624 101.60318 596.1125 102.16568Q596.53436 102.72818 597.2375 102.72818ZM607.34686 106.47818L601.7531 106.47818L601.7531 105.69693L604.70624 102.41568Q605.3625 101.66568 605.6125 101.212555Q605.8625 100.743805 605.8625 100.243805Q605.8625 99.57193 605.45624 99.150055Q605.0656 98.712555 604.3781 98.712555Q603.58124 98.712555 603.1281 99.181305Q602.675 99.63443 602.675 100.462555L601.59686 100.462555Q601.59686 99.275055 602.34686 98.556305Q603.1125 97.82193 604.3781 97.82193Q605.58124 97.82193 606.26874 98.44693Q606.95624 99.07193 606.95624 100.118805Q606.95624 101.368805 605.34686 103.118805L603.0656 105.587555L607.34686 105.587555L607.34686 106.47818Z" fill-rule="nonzero"/><path fill="#000000" d="M583.0656 104.275055Q583.0656 103.743805 582.6906 103.38443Q582.3156 103.00943 581.40936 102.69693Q580.15936 102.32193 579.58124 101.712555Q579.01874 101.10318 579.01874 100.150055Q579.01874 99.19693 579.58124 98.587555Q580.14374 97.962555 581.1281 97.85318L581.1281 96.556305L581.9875 96.556305L581.9875 97.85318Q582.97186 97.993805 583.51874 98.681305Q584.08124 99.368805 584.08124 100.57193L583.0031 100.57193Q583.0031 99.743805 582.59686 99.25943Q582.20624 98.775055 581.55 98.775055Q580.84686 98.775055 580.47186 99.13443Q580.1125 99.493805 580.1125 100.13443Q580.1125 100.72818 580.5031 101.087555Q580.89374 101.44693 581.78436 101.743805Q582.675 102.025055 583.175 102.38443Q583.675 102.72818 583.90936 103.19693Q584.14374 103.650055 584.14374 104.275055Q584.14374 105.25943 583.55 105.868805Q582.95624 106.462555 581.89374 106.57193L581.89374 107.69693L581.01874 107.69693L581.01874 106.57193Q579.925 106.47818 579.3 105.806305Q578.6906 105.118805 578.6906 103.962555L579.78436 103.962555Q579.78436 104.775055 580.20624 105.212555Q580.6281 105.650055 581.425 105.650055Q582.1906 105.650055 582.6281 105.29068Q583.0656 104.91568 583.0656 104.275055ZM589.90936 102.72818Q589.58124 103.13443 589.09686 103.38443Q588.6281 103.618805 588.0656 103.618805Q587.33124 103.618805 586.78436 103.25943Q586.2375 102.900055 585.9406 102.243805Q585.64374 101.57193 585.64374 100.775055Q585.64374 99.931305 585.95624 99.243805Q586.28436 98.556305 586.8781 98.19693Q587.4875 97.82193 588.28436 97.82193Q589.55 97.82193 590.26874 98.775055Q591.0031 99.72818 591.0031 101.35318L591.0031 101.66568Q591.0031 104.16568 590.01874 105.306305Q589.03436 106.44693 587.05 106.47818L586.83124 106.47818L586.83124 105.57193L587.0656 105.57193Q588.40936 105.54068 589.1281 104.868805Q589.84686 104.19693 589.90936 102.72818ZM588.2375 102.72818Q588.78436 102.72818 589.2375 102.400055Q589.70624 102.056305 589.925 101.57193L589.925 101.13443Q589.925 100.07193 589.45624 99.400055Q588.9875 98.72818 588.28436 98.72818Q587.5656 98.72818 587.1281 99.275055Q586.70624 99.82193 586.70624 100.72818Q586.70624 101.60318 587.1125 102.16568Q587.53436 102.72818 588.2375 102.72818ZM592.83124 108.181305L592.22186 107.75943Q592.76874 106.993805 592.8 106.16568L592.8 105.19693L593.8625 105.19693L593.8625 106.04068Q593.8625 106.63443 593.5656 107.22818Q593.26874 107.82193 592.83124 108.181305ZM598.90936 102.72818Q598.58124 103.13443 598.09686 103.38443Q597.6281 103.618805 597.0656 103.618805Q596.33124 103.618805 595.78436 103.25943Q595.2375 102.900055 594.9406 102.243805Q594.64374 101.57193 594.64374 100.775055Q594.64374 99.931305 594.95624 99.243805Q595.28436 98.556305 595.8781 98.19693Q596.4875 97.82193 597.28436 97.82193Q598.55 97.82193 599.26874 98.775055Q600.0031 99.72818 600.0031 101.35318L600.0031 101.66568Q600.0031 104.16568 599.01874 105.306305Q598.03436 106.44693 596.05 106.47818L595.83124 106.47818L595.83124 105.57193L596.0656 105.57193Q597.40936 105.54068 598.1281 104.868805Q598.84686 104.19693 598.90936 102.72818ZM597.2375 102.72818Q597.78436 102.72818 598.2375 102.400055Q598.70624 102.056305 598.925 101.57193L598.925 101.13443Q598.925 100.07193 598.45624 99.400055Q597.9875 98.72818 597.28436 98.72818Q596.5656 98.72818 596.1281 99.275055Q595.70624 99.82193 595.70624 100.72818Q595.70624 101.60318 596.1125 102.16568Q596.53436 102.72818 597.2375 102.72818ZM607.34686 106.47818L601.7531 106.47818L601.7531 105.69693L604.70624 102.41568Q605.3625 101.66568 605.6125 101.212555Q605.8625 100.743805 605.8625 100.243805Q605.8625 99.57193 605.45624 99.150055Q605.0656 98.712555 604.3781 98.712555Q603.58124 98.712555 603.1281 99.181305Q602.675 99.63443 602.675 100.462555L601.59686 100.462555Q601.59686 99.275055 602.34686 98.556305Q603.1125 97.82193 604.3781 97.82193Q605.58124 97.82193 606.26874 98.44693Q606.95624 99.07193 606.95624 100.118805Q606.95624 101.368805 605.34686 103.118805L603.0656 105.587555L607.34686 105.587555L607.34686 106.47818Z" fill-rule="nonzero"/><path fill="#000000" d="M26.934362 230.4375L27.231237 229.3125Q28.621862 229.67188 29.356237 230.59375Q30.090612 231.51562 30.090612 232.85938Q30.090612 234.25 29.528112 235.125Q28.965612 236.0 27.903112 236.45312Q26.824987 236.90625 25.590612 236.90625Q24.246862 236.90625 23.246862 236.39062Q22.246862 235.875 21.731237 234.9375Q21.215612 233.98438 21.215612 232.84375Q21.215612 231.5625 21.871862 230.6875Q22.528112 229.79688 23.715612 229.45312L23.981237 230.57812Q23.043737 230.875 22.621862 231.45312Q22.184362 232.01562 22.184362 232.875Q22.184362 233.85938 22.668737 234.53125Q23.137487 235.1875 23.934362 235.46875Q24.731237 235.73438 25.590612 235.73438Q26.684362 235.73438 27.496862 235.42188Q28.309362 235.09375 28.715612 234.42188Q29.121862 233.75 29.121862 232.95312Q29.121862 232.0 28.574987 231.34375Q28.028112 230.67188 26.934362 230.4375ZM26.840612 228.09375Q25.106237 228.09375 24.278112 227.14062Q23.590612 226.34375 23.590612 225.1875Q23.590612 223.90625 24.434362 223.09375Q25.262487 222.26562 26.746862 222.26562Q27.949987 222.26562 28.637487 222.625Q29.324987 222.98438 29.715612 223.6875Q30.090612 224.375 30.090612 225.1875Q30.090612 226.48438 29.262487 227.29688Q28.418737 228.09375 26.840612 228.09375ZM26.840612 227.01562Q28.028112 227.01562 28.621862 226.5Q29.215612 225.96875 29.215612 225.1875Q29.215612 224.39062 28.621862 223.875Q28.028112 223.35938 26.809362 223.35938Q25.653112 223.35938 25.059362 223.89062Q24.465612 224.40625 24.465612 225.1875Q24.465612 225.96875 25.059362 226.5Q25.637487 227.01562 26.840612 227.01562ZM29.949987 220.70312L23.731237 220.70312L23.731237 219.76562L24.606237 219.76562Q23.590612 219.07812 23.590612 217.78125Q23.590612 217.21875 23.793737 216.75Q23.996862 216.26562 24.324987 216.03125Q24.653112 215.79688 25.090612 215.70312Q25.387487 215.65625 26.121862 215.65625L29.949987 215.65625L29.949987 216.70312L26.168737 216.70312Q25.512487 216.70312 25.199987 216.82812Q24.887487 216.95312 24.699987 217.26562Q24.496862 217.57812 24.496862 218.0Q24.496862 218.67188 24.934362 219.17188Q25.356237 219.65625 26.543737 219.65625L29.949987 219.65625L29.949987 220.70312ZM29.012487 211.40625L29.934362 211.25Q30.028112 211.70312 30.028112 212.04688Q30.028112 212.625 29.856237 212.9375Q29.668737 213.25 29.371862 213.39062Q29.074987 213.51562 28.121862 213.51562L24.543737 213.51562L24.543737 214.28125L23.731237 214.28125L23.731237 213.51562L22.184362 213.51562L21.559362 212.46875L23.731237 212.46875L23.731237 211.40625L24.543737 211.40625L24.543737 212.46875L28.184362 212.46875Q28.637487 212.46875 28.762487 212.42188Q28.887487 212.35938 28.965612 212.23438Q29.043737 212.10938 29.043737 211.875Q29.043737 211.6875 29.012487 211.40625ZM29.949987 210.71875L23.731237 210.71875L23.731237 209.76562L24.668737 209.76562Q24.012487 209.40625 23.809362 209.10938Q23.590612 208.79688 23.590612 208.42188Q23.590612 207.89062 23.918737 207.34375L24.903112 207.70312Q24.668737 208.09375 24.668737 208.46875Q24.668737 208.82812 24.887487 209.10938Q25.090612 209.375 25.465612 209.48438Q26.028112 209.67188 26.684362 209.67188L29.949987 209.67188L29.949987 210.71875ZM26.840612 207.09375Q25.106237 207.09375 24.278112 206.14062Q23.590612 205.34375 23.590612 204.1875Q23.590612 202.90625 24.434362 202.09375Q25.262487 201.26562 26.746862 201.26562Q27.949987 201.26562 28.637487 201.625Q29.324987 201.98438 29.715612 202.6875Q30.090612 203.375 30.090612 204.1875Q30.090612 205.48438 29.262487 206.29688Q28.418737 207.09375 26.840612 207.09375ZM26.840612 206.01562Q28.028112 206.01562 28.621862 205.5Q29.215612 204.96875 29.215612 204.1875Q29.215612 203.39062 28.621862 202.875Q28.028112 202.35938 26.809362 202.35938Q25.653112 202.35938 25.059362 202.89062Q24.465612 203.40625 24.465612 204.1875Q24.465612 204.96875 25.059362 205.5Q25.637487 206.01562 26.840612 206.01562ZM29.949987 197.98438L23.731237 200.34375L23.731237 199.23438L27.449987 197.89062Q28.059362 197.6875 28.699987 197.5Q28.215612 197.35938 27.528112 197.10938L23.731237 195.71875L23.731237 194.64062L29.949987 197.0L29.949987 197.98438ZM29.184362 190.64062Q29.684362 191.23438 29.887487 191.78125Q30.090612 192.3125 30.090612 192.9375Q30.090612 193.96875 29.590612 194.51562Q29.090612 195.0625 28.309362 195.0625Q27.856237 195.0625 27.481237 194.85938Q27.090612 194.65625 26.871862 194.3125Q26.637487 193.96875 26.528112 193.54688Q26.434362 193.25 26.356237 192.60938Q26.215612 191.34375 25.996862 190.73438Q25.778112 190.73438 25.731237 190.73438Q25.074987 190.73438 24.809362 191.03125Q24.465612 191.4375 24.465612 192.23438Q24.465612 192.96875 24.731237 193.32812Q24.981237 193.6875 25.637487 193.85938L25.496862 194.89062Q24.840612 194.75 24.434362 194.42188Q24.028112 194.09375 23.809362 193.48438Q23.590612 192.875 23.590612 192.07812Q23.590612 191.28125 23.778112 190.78125Q23.965612 190.28125 24.246862 190.04688Q24.528112 189.8125 24.965612 189.71875Q25.231237 189.67188 25.934362 189.67188L27.340612 189.67188Q28.809362 189.67188 29.199987 189.60938Q29.590612 189.53125 29.949987 189.32812L29.949987 190.4375Q29.621862 190.59375 29.184362 190.64062ZM26.824987 190.73438Q27.059362 191.3125 27.231237 192.45312Q27.324987 193.10938 27.449987 193.375Q27.559362 193.64062 27.778112 193.79688Q27.996862 193.9375 28.278112 193.9375Q28.699987 193.9375 28.981237 193.625Q29.262487 193.29688 29.262487 192.6875Q29.262487 192.07812 28.996862 191.60938Q28.731237 191.125 28.262487 190.90625Q27.903112 190.73438 27.215612 190.73438L26.824987 190.73438ZM29.949987 187.73438L21.356237 187.73438L21.356237 186.67188L29.949987 186.67188L29.949987 187.73438ZM26.840612 185.09375Q25.106237 185.09375 24.278112 184.14062Q23.590612 183.34375 23.590612 182.1875Q23.590612 180.90625 24.434362 180.09375Q25.262487 179.26562 26.746862 179.26562Q27.949987 179.26562 28.637487 179.625Q29.324987 179.98438 29.715612 180.6875Q30.090612 181.375 30.090612 182.1875Q30.090612 183.48438 29.262487 184.29688Q28.418737 185.09375 26.840612 185.09375ZM26.840612 184.01562Q28.028112 184.01562 28.621862 183.5Q29.215612 182.96875 29.215612 182.1875Q29.215612 181.39062 28.621862 180.875Q28.028112 180.35938 26.809362 180.35938Q25.653112 180.35938 25.059362 180.89062Q24.465612 181.40625 24.465612 182.1875Q24.465612 182.96875 25.059362 183.5Q25.637487 184.01562 26.840612 184.01562ZM29.949987 177.71875L23.731237 177.71875L23.731237 176.76562L24.668737 176.76562Q24.012487 176.40625 23.809362 176.10938Q23.590612 175.79688 23.590612 175.42188Q23.590612 174.89062 23.918737 174.34375L24.903112 174.70312Q24.668737 175.09375 24.668737 175.46875Q24.668737 175.82812 24.887487 176.10938Q25.090612 176.375 25.465612 176.48438Q26.028112 176.67188 26.684362 176.67188L29.949987 176.67188L29.949987 177.71875ZM27.949987 169.45312L28.074987 168.35938Q29.028112 168.60938 29.559362 169.3125Q30.090612 170.01562 30.090612 171.09375Q30.090612 172.45312 29.246862 173.26562Q28.403112 174.0625 26.887487 174.0625Q25.324987 174.0625 24.465612 173.25Q23.590612 172.4375 23.590612 171.15625Q23.590612 169.90625 24.434362 169.125Q25.278112 168.32812 26.824987 168.32812Q26.918737 168.32812 27.106237 168.32812L27.106237 172.96875Q28.137487 172.90625 28.684362 172.39062Q29.215612 171.875 29.215612 171.09375Q29.215612 170.51562 28.918737 170.10938Q28.606237 169.6875 27.949987 169.45312ZM26.246862 172.90625L26.246862 169.4375Q25.449987 169.5 25.059362 169.82812Q24.449987 170.34375 24.449987 171.14062Q24.449987 171.875 24.934362 172.375Q25.418737 172.85938 26.246862 172.90625ZM29.949987 163.57812L21.356237 163.57812L21.356237 162.42188L28.106237 157.90625L21.356237 157.90625L21.356237 156.8125L29.949987 156.8125L29.949987 157.98438L23.199987 162.5L29.949987 162.5L29.949987 163.57812ZM29.949987 154.51562L21.356237 154.51562L21.356237 148.71875L22.371862 148.71875L22.371862 153.375L25.028112 153.375L25.028112 149.34375L26.043737 149.34375L26.043737 153.375L29.949987 153.375L29.949987 154.51562ZM29.949987 145.39062L22.371862 145.39062L22.371862 148.21875L21.356237 148.21875L21.356237 141.40625L22.371862 141.40625L22.371862 144.25L29.949987 144.25L29.949987 145.39062Z" fill-rule="nonzero"/><path fill="#000000" d="M60.934376 322.2222L60.934376 321.17532Q60.153126 321.06595 59.653126 320.81595Q59.153126 320.56595 58.79375 320.00345Q58.434376 319.42532 58.371876 318.5972L59.434376 318.4097Q59.559376 319.25345 59.871876 319.64407Q60.325 320.20657 60.934376 320.2847L60.934376 316.92532Q60.29375 316.80032 59.60625 316.4097Q59.10625 316.12845 58.825 315.64407Q58.559376 315.14407 58.559376 314.50345Q58.559376 313.37845 59.35625 312.69095Q59.8875 312.2222 60.934376 312.11282L60.934376 311.61282L61.559376 311.61282L61.559376 312.11282Q62.48125 312.19095 63.0125 312.64407Q63.715626 313.2222 63.85625 314.2222L62.7625 314.39407Q62.66875 313.76907 62.371876 313.44095Q62.075 313.11282 61.559376 313.00345L61.559376 316.0347Q62.35625 316.23782 62.621876 316.3472Q63.10625 316.56595 63.41875 316.87845Q63.73125 317.19095 63.8875 317.62845Q64.05937 318.05032 64.05937 318.55032Q64.05937 319.64407 63.35625 320.37845Q62.66875 321.11282 61.559376 321.1597L61.559376 322.2222L60.934376 322.2222ZM60.934376 312.98782Q60.325 313.08157 59.965626 313.48782Q59.621876 313.87845 59.621876 314.42532Q59.621876 314.95657 59.91875 315.33157Q60.215626 315.69095 60.934376 315.9097L60.934376 312.98782ZM61.559376 320.2847Q62.16875 320.20657 62.575 319.75345Q62.98125 319.2847 62.98125 318.61282Q62.98125 318.0347 62.684376 317.69095Q62.403126 317.3472 61.559376 317.06595L61.559376 320.2847ZM65.45 316.75345Q65.45 315.2222 65.7625 314.30032Q66.075 313.36282 66.68437 312.86282Q67.30937 312.36282 68.24687 312.36282Q68.93437 312.36282 69.45 312.64407Q69.98125 312.92532 70.325 313.45657Q70.66875 313.9722 70.85625 314.7222Q71.04375 315.4722 71.04375 316.75345Q71.04375 318.26907 70.73125 319.19095Q70.43437 320.11282 69.80937 320.62845Q69.2 321.12845 68.24687 321.12845Q67.0125 321.12845 66.29375 320.23782Q65.45 319.17532 65.45 316.75345ZM66.52812 316.75345Q66.52812 318.86282 67.02812 319.56595Q67.52812 320.26907 68.24687 320.26907Q68.98125 320.26907 69.46562 319.56595Q69.96562 318.86282 69.96562 316.75345Q69.96562 314.62845 69.46562 313.94095Q68.98125 313.23782 68.23125 313.23782Q67.5125 313.23782 67.075 313.8472Q66.52812 314.62845 66.52812 316.75345ZM73.0125 320.98782L73.0125 319.7847L74.21562 319.7847L74.21562 320.98782Q74.21562 321.64407 73.98125 322.05032Q73.74687 322.4722 73.24687 322.69095L72.95 322.23782Q73.27812 322.0972 73.43437 321.80032Q73.59062 321.51907 73.62187 320.98782L73.0125 320.98782ZM75.45 316.75345Q75.45 315.2222 75.7625 314.30032Q76.075 313.36282 76.68437 312.86282Q77.30937 312.36282 78.24687 312.36282Q78.93437 312.36282 79.45 312.64407Q79.98125 312.92532 80.325 313.45657Q80.66875 313.9722 80.85625 314.7222Q81.04375 315.4722 81.04375 316.75345Q81.04375 318.26907 80.73125 319.19095Q80.43437 320.11282 79.80937 320.62845Q79.2 321.12845 78.24687 321.12845Q77.0125 321.12845 76.29375 320.23782Q75.45 319.17532 75.45 316.75345ZM76.52812 316.75345Q76.52812 318.86282 77.02812 319.56595Q77.52812 320.26907 78.24687 320.26907Q78.98125 320.26907 79.46562 319.56595Q79.96562 318.86282 79.96562 316.75345Q79.96562 314.62845 79.46562 313.94095Q78.98125 313.23782 78.23125 313.23782Q77.5125 313.23782 77.075 313.8472Q76.52812 314.62845 76.52812 316.75345ZM82.45 316.75345Q82.45 315.2222 82.7625 314.30032Q83.075 313.36282 83.68437 312.86282Q84.30937 312.36282 85.24687 312.36282Q85.93437 312.36282 86.45 312.64407Q86.98125 312.92532 87.325 313.45657Q87.66875 313.9722 87.85625 314.7222Q88.04375 315.4722 88.04375 316.75345Q88.04375 318.26907 87.73125 319.19095Q87.43437 320.11282 86.80937 320.62845Q86.2 321.12845 85.24687 321.12845Q84.0125 321.12845 83.29375 320.23782Q82.45 319.17532 82.45 316.75345ZM83.52812 316.75345Q83.52812 318.86282 84.02812 319.56595Q84.52812 320.26907 85.24687 320.26907Q85.98125 320.26907 86.46562 319.56595Q86.96562 318.86282 86.96562 316.75345Q86.96562 314.62845 86.46562 313.94095Q85.98125 313.23782 85.23125 313.23782Q84.5125 313.23782 84.075 313.8472Q83.52812 314.62845 83.52812 316.75345Z" fill-rule="nonzero"/><path fill="#000000" d="M60.934376 225.2096L60.934376 224.16272Q60.153126 224.05334 59.653126 223.80334Q59.153126 223.55334 58.79375 222.99084Q58.434376 222.41272 58.371876 221.5846L59.434376 221.3971Q59.559376 222.24084 59.871876 222.63147Q60.325 223.19397 60.934376 223.2721L60.934376 219.91272Q60.29375 219.78772 59.60625 219.3971Q59.10625 219.11584 58.825 218.63147Q58.559376 218.13147 58.559376 217.49084Q58.559376 216.36584 59.35625 215.67834Q59.8875 215.2096 60.934376 215.10022L60.934376 214.60022L61.559376 214.60022L61.559376 215.10022Q62.48125 215.17834 63.0125 215.63147Q63.715626 216.2096 63.85625 217.2096L62.7625 217.38147Q62.66875 216.75647 62.371876 216.42834Q62.075 216.10022 61.559376 215.99084L61.559376 219.0221Q62.35625 219.22522 62.621876 219.3346Q63.10625 219.55334 63.41875 219.86584Q63.73125 220.17834 63.8875 220.61584Q64.05937 221.03772 64.05937 221.53772Q64.05937 222.63147 63.35625 223.36584Q62.66875 224.10022 61.559376 224.1471L61.559376 225.2096L60.934376 225.2096ZM60.934376 215.97522Q60.325 216.06897 59.965626 216.47522Q59.621876 216.86584 59.621876 217.41272Q59.621876 217.94397 59.91875 218.31897Q60.215626 218.67834 60.934376 218.8971L60.934376 215.97522ZM61.559376 223.2721Q62.16875 223.19397 62.575 222.74084Q62.98125 222.2721 62.98125 221.60022Q62.98125 221.0221 62.684376 220.67834Q62.403126 220.3346 61.559376 220.05334L61.559376 223.2721ZM65.45 221.72522L66.55937 221.63147Q66.68437 222.44397 67.12187 222.85022Q67.575 223.25647 68.21562 223.25647Q68.96562 223.25647 69.49687 222.67834Q70.02812 222.10022 70.02812 221.16272Q70.02812 220.25647 69.5125 219.74084Q69.0125 219.2096 68.18437 219.2096Q67.68437 219.2096 67.2625 219.44397Q66.85625 219.67834 66.62187 220.03772L65.6375 219.91272L66.46562 215.50647L70.74687 215.50647L70.74687 216.50647L67.30937 216.50647L66.85625 218.81897Q67.62187 218.2721 68.46562 218.2721Q69.59062 218.2721 70.35625 219.05334Q71.1375 219.8346 71.1375 221.06897Q71.1375 222.22522 70.46562 223.0846Q69.6375 224.11584 68.21562 224.11584Q67.04375 224.11584 66.29375 223.4596Q65.55937 222.80334 65.45 221.72522ZM73.0125 223.97522L73.0125 222.7721L74.21562 222.7721L74.21562 223.97522Q74.21562 224.63147 73.98125 225.03772Q73.74687 225.4596 73.24687 225.67834L72.95 225.22522Q73.27812 225.0846 73.43437 224.78772Q73.59062 224.50647 73.62187 223.97522L73.0125 223.97522ZM75.45 219.74084Q75.45 218.2096 75.7625 217.28772Q76.075 216.35022 76.68437 215.85022Q77.30937 215.35022 78.24687 215.35022Q78.93437 215.35022 79.45 215.63147Q79.98125 215.91272 80.325 216.44397Q80.66875 216.9596 80.85625 217.7096Q81.04375 218.4596 81.04375 219.74084Q81.04375 221.25647 80.73125 222.17834Q80.43437 223.10022 79.80937 223.61584Q79.2 224.11584 78.24687 224.11584Q77.0125 224.11584 76.29375 223.22522Q75.45 222.16272 75.45 219.74084ZM76.52812 219.74084Q76.52812 221.85022 77.02812 222.55334Q77.52812 223.25647 78.24687 223.25647Q78.98125 223.25647 79.46562 222.55334Q79.96562 221.85022 79.96562 219.74084Q79.96562 217.61584 79.46562 216.92834Q78.98125 216.22522 78.23125 216.22522Q77.5125 216.22522 77.075 216.8346Q76.52812 217.61584 76.52812 219.74084ZM82.45 219.74084Q82.45 218.2096 82.7625 217.28772Q83.075 216.35022 83.68437 215.85022Q84.30937 215.35022 85.24687 215.35022Q85.93437 215.35022 86.45 215.63147Q86.98125 215.91272 87.325 216.44397Q87.66875 216.9596 87.85625 217.7096Q88.04375 218.4596 88.04375 219.74084Q88.04375 221.25647 87.73125 222.17834Q87.43437 223.10022 86.80937 223.61584Q86.2 224.11584 85.24687 224.11584Q84.0125 224.11584 83.29375 223.22522Q82.45 222.16272 82.45 219.74084ZM83.52812 219.74084Q83.52812 221.85022 84.02812 222.55334Q84.52812 223.25647 85.24687 223.25647Q85.98125 223.25647 86.46562 222.55334Q86.96562 221.85022 86.96562 219.74084Q86.96562 217.61584 86.46562 216.92834Q85.98125 216.22522 85.23125 216.22522Q84.5125 216.22522 84.075 216.8346Q83.52812 217.61584 83.52812 219.74084Z" fill-rule="nonzero"/><path fill="#000000" d="M53.934376 128.19699L53.934376 127.15011Q53.153126 127.04073 52.653126 126.79073Q52.153126 126.54073 51.79375 125.97823Q51.434376 125.40011 51.371876 124.57198L52.434376 124.38448Q52.559376 125.22823 52.871876 125.61886Q53.325 126.18136 53.934376 126.25948L53.934376 122.90011Q53.29375 122.77511 52.60625 122.38448Q52.10625 122.10323 51.825 121.61886Q51.559376 121.11886 51.559376 120.47823Q51.559376 119.35323 52.35625 118.66573Q52.8875 118.19698 53.934376 118.08761L53.934376 117.58761L54.559376 117.58761L54.559376 118.08761Q55.48125 118.16573 56.0125 118.61886Q56.715626 119.19698 56.85625 120.19698L55.7625 120.36886Q55.66875 119.74386 55.371876 119.41573Q55.075 119.08761 54.559376 118.97823L54.559376 122.00948Q55.35625 122.21261 55.621876 122.32198Q56.10625 122.54073 56.41875 122.85323Q56.73125 123.16573 56.8875 123.60323Q57.059376 124.02511 57.059376 124.52511Q57.059376 125.61886 56.35625 126.35323Q55.66875 127.08761 54.559376 127.13448L54.559376 128.19699L53.934376 128.19699ZM53.934376 118.96261Q53.325 119.05636 52.965626 119.46261Q52.621876 119.85323 52.621876 120.40011Q52.621876 120.93136 52.91875 121.30636Q53.215626 121.66573 53.934376 121.88448L53.934376 118.96261ZM54.559376 126.25948Q55.16875 126.18136 55.575 125.72823Q55.98125 125.25948 55.98125 124.58761Q55.98125 124.00948 55.684376 123.66573Q55.403126 123.32198 54.559376 123.04073L54.559376 126.25948ZM62.41875 126.96261L61.371876 126.96261L61.371876 120.24386Q60.98125 120.60323 60.35625 120.97823Q59.746876 121.33761 59.2625 121.50948L59.2625 120.49386Q60.1375 120.07198 60.79375 119.49386Q61.465626 118.90011 61.746876 118.33761L62.41875 118.33761L62.41875 126.96261ZM65.45 122.72823Q65.45 121.19698 65.7625 120.27511Q66.075 119.33761 66.68437 118.83761Q67.30937 118.33761 68.24687 118.33761Q68.93437 118.33761 69.45 118.61886Q69.98125 118.90011 70.325 119.43136Q70.66875 119.94698 70.85625 120.69698Q71.04375 121.44698 71.04375 122.72823Q71.04375 124.24386 70.73125 125.16573Q70.43437 126.08761 69.80937 126.60323Q69.2 127.10323 68.24687 127.10323Q67.0125 127.10323 66.29375 126.21261Q65.45 125.15011 65.45 122.72823ZM66.52812 122.72823Q66.52812 124.83761 67.02812 125.54073Q67.52812 126.24386 68.24687 126.24386Q68.98125 126.24386 69.46562 125.54073Q69.96562 124.83761 69.96562 122.72823Q69.96562 120.60323 69.46562 119.91573Q68.98125 119.21261 68.23125 119.21261Q67.5125 119.21261 67.075 119.82198Q66.52812 120.60323 66.52812 122.72823ZM73.0125 126.96261L73.0125 125.75948L74.21562 125.75948L74.21562 126.96261Q74.21562 127.61886 73.98125 128.02512Q73.74687 128.44699 73.24687 128.66574L72.95 128.21262Q73.27812 128.07199 73.43437 127.77511Q73.59062 127.49386 73.62187 126.96261L73.0125 126.96261ZM75.45 122.72823Q75.45 121.19698 75.7625 120.27511Q76.075 119.33761 76.68437 118.83761Q77.30937 118.33761 78.24687 118.33761Q78.93437 118.33761 79.45 118.61886Q79.98125 118.90011 80.325 119.43136Q80.66875 119.94698 80.85625 120.69698Q81.04375 121.44698 81.04375 122.72823Q81.04375 124.24386 80.73125 125.16573Q80.43437 126.08761 79.80937 126.60323Q79.2 127.10323 78.24687 127.10323Q77.0125 127.10323 76.29375 126.21261Q75.45 125.15011 75.45 122.72823ZM76.52812 122.72823Q76.52812 124.83761 77.02812 125.54073Q77.52812 126.24386 78.24687 126.24386Q78.98125 126.24386 79.46562 125.54073Q79.96562 124.83761 79.96562 122.72823Q79.96562 120.60323 79.46562 119.91573Q78.98125 119.21261 78.23125 119.21261Q77.5125 119.21261 77.075 119.82198Q76.52812 120.60323 76.52812 122.72823ZM82.45 122.72823Q82.45 121.19698 82.7625 120.27511Q83.075 119.33761 83.68437 118.83761Q84.30937 118.33761 85.24687 118.33761Q85.93437 118.33761 86.45 118.61886Q86.98125 118.90011 87.325 119.43136Q87.66875 119.94698 87.85625 120.69698Q88.04375 121.44698 88.04375 122.72823Q88.04375 124.24386 87.73125 125.16573Q87.43437 126.08761 86.80937 126.60323Q86.2 127.10323 85.24687 127.10323Q84.0125 127.10323 83.29375 126.21261Q82.45 125.15011 82.45 122.72823ZM83.52812 122.72823Q83.52812 124.83761 84.02812 125.54073Q84.52812 126.24386 85.24687 126.24386Q85.98125 126.24386 86.46562 125.54073Q86.96562 124.83761 86.96562 122.72823Q86.96562 120.60323 86.46562 119.91573Q85.98125 119.21261 85.23125 119.21261Q84.5125 119.21261 84.075 119.82198Q83.52812 120.60323 83.52812 122.72823Z" fill-rule="nonzero"/><path fill="#000000" d="M53.934376 31.184376L53.934376 30.1375Q53.153126 30.028126 52.653126 29.778126Q52.153126 29.528126 51.79375 28.965626Q51.434376 28.3875 51.371876 27.559376L52.434376 27.371876Q52.559376 28.215626 52.871876 28.60625Q53.325 29.16875 53.934376 29.246876L53.934376 25.8875Q53.29375 25.7625 52.60625 25.371876Q52.10625 25.090626 51.825 24.60625Q51.559376 24.10625 51.559376 23.465626Q51.559376 22.340626 52.35625 21.653126Q52.8875 21.184376 53.934376 21.075L53.934376 20.575L54.559376 20.575L54.559376 21.075Q55.48125 21.153126 56.0125 21.60625Q56.715626 22.184376 56.85625 23.184376L55.7625 23.35625Q55.66875 22.73125 55.371876 22.403126Q55.075 22.075 54.559376 21.965626L54.559376 24.996876Q55.35625 25.2 55.621876 25.309376Q56.10625 25.528126 56.41875 25.840626Q56.73125 26.153126 56.8875 26.590626Q57.059376 27.0125 57.059376 27.5125Q57.059376 28.60625 56.35625 29.340626Q55.66875 30.075 54.559376 30.121876L54.559376 31.184376L53.934376 31.184376ZM53.934376 21.95Q53.325 22.04375 52.965626 22.45Q52.621876 22.840626 52.621876 23.3875Q52.621876 23.91875 52.91875 24.29375Q53.215626 24.653126 53.934376 24.871876L53.934376 21.95ZM54.559376 29.246876Q55.16875 29.16875 55.575 28.715626Q55.98125 28.246876 55.98125 27.575Q55.98125 26.996876 55.684376 26.653126Q55.403126 26.309376 54.559376 26.028126L54.559376 29.246876ZM62.41875 29.95L61.371876 29.95L61.371876 23.23125Q60.98125 23.590626 60.35625 23.965626Q59.746876 24.325 59.2625 24.496876L59.2625 23.48125Q60.1375 23.059376 60.79375 22.48125Q61.465626 21.8875 61.746876 21.325L62.41875 21.325L62.41875 29.95ZM65.45 27.7L66.55937 27.60625Q66.68437 28.41875 67.12187 28.825Q67.575 29.23125 68.21562 29.23125Q68.96562 29.23125 69.49687 28.653126Q70.02812 28.075 70.02812 27.1375Q70.02812 26.23125 69.5125 25.715626Q69.0125 25.184376 68.18437 25.184376Q67.68437 25.184376 67.2625 25.41875Q66.85625 25.653126 66.62187 26.0125L65.6375 25.8875L66.46562 21.48125L70.74687 21.48125L70.74687 22.48125L67.30937 22.48125L66.85625 24.79375Q67.62187 24.246876 68.46562 24.246876Q69.59062 24.246876 70.35625 25.028126Q71.1375 25.809376 71.1375 27.04375Q71.1375 28.2 70.46562 29.059376Q69.6375 30.090626 68.21562 30.090626Q67.04375 30.090626 66.29375 29.434376Q65.55937 28.778126 65.45 27.7ZM73.0125 29.95L73.0125 28.746876L74.21562 28.746876L74.21562 29.95Q74.21562 30.60625 73.98125 31.0125Q73.74687 31.434376 73.24687 31.653126L72.95 31.2Q73.27812 31.059376 73.43437 30.7625Q73.59062 30.48125 73.62187 29.95L73.0125 29.95ZM75.45 25.715626Q75.45 24.184376 75.7625 23.2625Q76.075 22.325 76.68437 21.825Q77.30937 21.325 78.24687 21.325Q78.93437 21.325 79.45 21.60625Q79.98125 21.8875 80.325 22.41875Q80.66875 22.934376 80.85625 23.684376Q81.04375 24.434376 81.04375 25.715626Q81.04375 27.23125 80.73125 28.153126Q80.43437 29.075 79.80937 29.590626Q79.2 30.090626 78.24687 30.090626Q77.0125 30.090626 76.29375 29.2Q75.45 28.1375 75.45 25.715626ZM76.52812 25.715626Q76.52812 27.825 77.02812 28.528126Q77.52812 29.23125 78.24687 29.23125Q78.98125 29.23125 79.46562 28.528126Q79.96562 27.825 79.96562 25.715626Q79.96562 23.590626 79.46562 22.903126Q78.98125 22.2 78.23125 22.2Q77.5125 22.2 77.075 22.809376Q76.52812 23.590626 76.52812 25.715626ZM82.45 25.715626Q82.45 24.184376 82.7625 23.2625Q83.075 22.325 83.68437 21.825Q84.30937 21.325 85.24687 21.325Q85.93437 21.325 86.45 21.60625Q86.98125 21.8875 87.325 22.41875Q87.66875 22.934376 87.85625 23.684376Q88.04375 24.434376 88.04375 25.715626Q88.04375 27.23125 87.73125 28.153126Q87.43437 29.075 86.80937 29.590626Q86.2 30.090626 85.24687 30.090626Q84.0125 30.090626 83.29375 29.2Q82.45 28.1375 82.45 25.715626ZM83.52812 25.715626Q83.52812 27.825 84.02812 28.528126Q84.52812 29.23125 85.24687 29.23125Q85.98125 29.23125 86.46562 28.528126Q86.96562 27.825 86.96562 25.715626Q86.96562 23.590626 86.46562 22.903126Q85.98125 22.2 85.23125 22.2Q84.5125 22.2 84.075 22.809376Q83.52812 23.590626 83.52812 25.715626Z" fill-rule="nonzero"/><path fill="#000000" d="M189.94872 359.59705Q189.18309 358.27094 188.99278 357.3163Q188.79466 356.34818 189.0724 355.61047Q189.36366 354.86496 190.17557 354.3962Q190.77095 354.05246 191.35812 354.0382Q191.95883 354.01614 192.52214 354.30435Q193.07765 354.57904 193.61504 355.1348Q194.15242 355.69055 194.79305 356.80017Q195.55086 358.11273 195.74117 359.06735Q195.94499 360.01416 195.66154 360.7732Q195.3838 361.5109 194.55838 361.98746Q193.48938 362.60464 192.42162 362.19272Q191.15965 361.69443 189.94872 359.59705ZM190.8824 359.05798Q191.93709 360.88474 192.72166 361.24368Q193.50624 361.6026 194.1287 361.24323Q194.76468 360.87604 194.8326 360.02493Q194.91405 359.166 193.85936 357.33923Q192.79686 355.49893 192.0201 355.15353Q191.24905 354.7868 190.59953 355.1618Q189.97708 355.52118 189.90288 356.26764Q189.8199 357.21768 190.8824 359.05798ZM199.62196 351.4141L198.75441 352.0052Q198.32013 351.53424 197.963 351.41568Q197.35754 351.242 196.81628 351.5545Q196.38327 351.8045 196.1856 352.24338Q195.95361 352.81033 196.04808 353.5677Q196.14825 354.3037 196.77534 355.4211Q196.81105 354.73294 197.14403 354.21594Q197.49054 353.69113 198.01828 353.38644Q198.9249 352.863 199.9515 353.1724Q200.99165 353.47397 201.60103 354.52945Q202.00728 355.2331 202.04762 356.0217Q202.09367 356.78897 201.75343 357.41843Q201.4054 358.03433 200.74234 358.41714Q199.59215 359.0812 198.3906 358.6563Q197.18904 358.2314 196.07967 356.3099Q194.82967 354.14487 195.06554 352.70963Q195.26346 351.4587 196.44072 350.77902Q197.32027 350.2712 198.16414 350.45157Q199.01372 350.61057 199.62196 351.4141ZM197.75232 356.76953Q198.02576 357.24316 198.46521 357.56677Q198.91037 357.86908 199.395 357.896Q199.89317 357.9151 200.29912 357.68073Q200.86745 357.3526 201.0213 356.65033Q201.16734 355.93454 200.7064 355.13617Q200.2611 354.36487 199.5838 354.16052Q198.92004 353.94833 198.29759 354.3077Q197.67513 354.66708 197.49994 355.36365Q197.33826 356.05237 197.75232 356.76953ZM203.82756 356.6359L201.54158 347.70773L202.2723 347.28586L204.55826 356.21402L203.82756 356.6359ZM204.67114 351.09705Q203.90552 349.77094 203.71521 348.8163Q203.51709 347.84818 203.79483 347.11047Q204.08609 346.36496 204.898 345.8962Q205.4934 345.55246 206.08055 345.5382Q206.68126 345.51614 207.24458 345.80435Q207.8001 346.07904 208.33746 346.6348Q208.87485 347.19055 209.51547 348.30017Q210.27328 349.61273 210.4636 350.56735Q210.66742 351.51416 210.38397 352.2732Q210.10623 353.0109 209.2808 353.48746Q208.2118 354.10464 207.14404 353.69272Q205.88208 353.19443 204.67114 351.09705ZM205.60483 350.55798Q206.65952 352.38474 207.44409 352.74368Q208.22867 353.1026 208.85112 352.74323Q209.4871 352.37604 209.55502 351.52493Q209.63647 350.666 208.58179 348.83923Q207.51929 346.99893 206.74252 346.65353Q205.97148 346.2868 205.32196 346.6618Q204.69951 347.02118 204.6253 347.76764Q204.54233 348.71768 205.60483 350.55798ZM211.7177 349.30203L212.56754 348.649Q213.1617 349.33435 213.74371 349.46744Q214.3179 349.58698 214.85918 349.27448Q215.5087 348.89948 215.69742 348.1951Q215.88615 347.49075 215.50334 346.8277Q215.14397 346.20526 214.49011 346.04147Q213.84198 345.85638 213.206 346.22357Q212.94888 346.372 212.61897 346.70682L212.25847 345.83243Q212.36101 345.79126 212.41513 345.76Q212.997 345.42407 213.28519 344.86075Q213.57912 344.2761 213.21193 343.6401Q212.92287 343.13943 212.39708 343.00998Q211.86346 342.867 211.3222 343.1795Q210.79446 343.4842 210.62442 344.03342Q210.46791 344.57483 210.75601 345.29257L209.74211 345.66144Q209.38104 344.66107 209.68738 343.81665Q209.9859 342.9587 210.86545 342.4509Q211.47438 342.09933 212.14484 342.0731Q212.80746 342.03333 213.3359 342.3236Q213.86436 342.6139 214.16124 343.1281Q214.43468 343.6017 214.41194 344.1561Q214.38141 344.69696 214.01355 345.21606Q214.74901 344.9899 215.39561 345.2661Q216.03441 345.52878 216.45628 346.2595Q217.01878 347.23376 216.69223 348.3244Q216.37921 349.40726 215.29668 350.03226Q214.32239 350.59476 213.33694 350.38788Q212.34367 350.16748 211.7177 349.30203ZM218.54999 348.1359L216.26402 339.20773L216.99472 338.78586L219.2807 347.71402L218.54999 348.1359ZM225.80669 342.6111L226.3145 343.49066L221.38898 346.3344Q221.20148 346.00967 221.13005 345.63593Q221.03043 345.02588 221.15512 344.30438Q221.29335 343.57504 221.711 342.48593Q222.35072 340.78146 222.43427 339.95743Q222.53134 339.12555 222.23447 338.61136Q221.92197 338.0701 221.31862 337.9313Q220.70744 337.779 220.08499 338.13837Q219.42194 338.52118 219.25609 339.14014Q219.09023 339.75912 219.48294 340.47058L218.49458 340.91492Q217.97992 339.80478 218.28989 338.9041Q218.60556 337.98215 219.67456 337.36496Q220.74356 336.74777 221.70976 336.9838Q222.67596 337.21982 223.18378 338.09937Q223.44159 338.5459 223.50215 339.0883Q223.56842 339.60934 223.41666 340.34647Q223.27061 341.06226 222.7729 342.4502Q222.3459 343.61688 222.25078 344.01462Q222.16136 344.391 222.15314 344.7205L225.80669 342.6111ZM225.45575 339.09705Q224.69012 337.77094 224.49982 336.8163Q224.30171 335.84818 224.57944 335.11047Q224.87071 334.36496 225.6826 333.8962Q226.278 333.55246 226.86517 333.5382Q227.46587 333.51614 228.02919 333.80435Q228.5847 334.07904 229.12209 334.6348Q229.65945 335.19055 230.30008 336.30017Q231.05789 337.61273 231.2482 338.56735Q231.45204 339.51416 231.16858 340.2732Q230.89085 341.0109 230.06541 341.48746Q228.99641 342.10464 227.92865 341.69272Q226.66669 341.19443 225.45575 339.09705ZM226.38943 338.55798Q227.44412 340.38474 228.2287 340.74368Q229.01328 341.1026 229.63573 340.74323Q230.27171 340.37604 230.33963 339.52493Q230.42108 338.666 229.3664 336.83923Q228.3039 334.99893 227.52713 334.65353Q226.75609 334.2868 226.10657 334.6618Q225.48412 335.02118 225.40991 335.76764Q225.32693 336.71768 226.38943 338.55798ZM237.93105 335.6111L238.43886 336.49066L233.51334 339.3344Q233.32584 339.00967 233.2544 338.63593Q233.15479 338.02588 233.27948 337.30438Q233.41771 336.57504 233.83536 335.48593Q234.47508 333.78146 234.55862 332.95743Q234.6557 332.12555 234.35883 331.61136Q234.04633 331.0701 233.44296 330.9313Q232.8318 330.779 232.20935 331.13837Q231.5463 331.52118 231.38045 332.14014Q231.21458 332.75912 231.6073 333.47058L230.61893 333.91492Q230.10428 332.80478 230.41423 331.9041Q230.7299 330.98215 231.7989 330.36496Q232.8679 329.74777 233.83412 329.9838Q234.80032 330.21982 235.30814 331.09937Q235.56595 331.5459 235.62651 332.0883Q235.69278 332.60934 235.54102 333.34647Q235.39497 334.06226 234.89726 335.4502Q234.47026 336.61688 234.37514 337.01462Q234.28572 337.391 234.2775 337.7205L237.93105 335.6111ZM243.99321 332.1111L244.50102 332.9907L239.57552 335.8344Q239.38802 335.50967 239.31657 335.13593Q239.21696 334.52588 239.34166 333.80438Q239.47989 333.07504 239.89752 331.98593Q240.53725 330.2815 240.62079 329.45743Q240.71786 328.62558 240.42099 328.11136Q240.10849 327.5701 239.50514 327.4313Q238.89397 327.279 238.27151 327.63837Q237.60846 328.02118 237.44261 328.64017Q237.27676 329.25912 237.66948 329.97058L236.6811 330.41492Q236.16646 329.30478 236.47641 328.4041Q236.79207 327.48215 237.86107 326.86496Q238.93007 326.24777 239.89629 326.4838Q240.86249 326.71982 241.3703 327.59937Q241.62811 328.0459 241.68867 328.5883Q241.75494 329.10934 241.60318 329.8465Q241.45714 330.5623 240.95943 331.9502Q240.53242 333.11688 240.4373 333.51462Q240.34789 333.891 240.33968 334.2205L243.99321 332.1111Z" fill-rule="nonzero"/><path fill="#000000" d="M361.5363 361.27972L360.62967 361.80316L357.2703 355.98456Q357.11166 356.4911 356.7579 357.12836Q356.40985 357.7443 356.07632 358.1353L355.5685 357.25577Q356.11536 356.4529 356.39462 355.6241Q356.6796 354.77396 356.6419 354.1462L357.2238 353.81027L361.5363 361.27972ZM363.0286 357.80203L363.87845 357.149Q364.4726 357.83435 365.05463 357.96744Q365.6288 358.08698 366.17007 357.77448Q366.8196 357.39948 367.00833 356.6951Q367.19705 355.99075 366.81424 355.3277Q366.45486 354.70523 365.80103 354.54147Q365.1529 354.35638 364.5169 354.72357Q364.2598 354.872 363.92987 355.20682L363.56937 354.33243Q363.6719 354.29126 363.72604 354.26Q364.3079 353.92407 364.5961 353.36075Q364.89 352.7761 364.52283 352.1401Q364.23376 351.63943 363.70798 351.50998Q363.17438 351.367 362.63312 351.6795Q362.10538 351.9842 361.93533 352.53342Q361.77884 353.07483 362.06693 353.79257L361.053 354.16144Q360.69196 353.16107 360.9983 352.31665Q361.2968 351.4587 362.17636 350.9509Q362.78528 350.59933 363.45575 350.5731Q364.11838 350.53333 364.64682 350.8236Q365.17526 351.1139 365.47214 351.6281Q365.74557 352.1017 365.72284 352.6561Q365.69232 353.19696 365.32446 353.71606Q366.0599 353.4899 366.7065 353.7661Q367.3453 354.02878 367.76718 354.7595Q368.32968 355.73376 368.00314 356.8244Q367.69012 357.90723 366.60757 358.53223Q365.6333 359.09473 364.64786 358.88788Q363.65457 358.66748 363.0286 357.80203ZM369.8609 356.6359L367.57492 347.70773L368.30563 347.28586L370.5916 356.21402L369.8609 356.6359ZM370.7045 351.09705Q369.93887 349.77094 369.74857 348.8163Q369.55045 347.84818 369.82816 347.11047Q370.11945 346.36496 370.93134 345.8962Q371.52673 345.55246 372.1139 345.5382Q372.7146 345.51614 373.27792 345.80435Q373.83344 346.079 374.37082 346.6348Q374.90817 347.19055 375.5488 348.30017Q376.3066 349.61273 376.49692 350.56735Q376.70078 351.51416 376.4173 352.2732Q376.1396 353.0109 375.31415 353.48746Q374.24515 354.10464 373.17737 353.69272Q371.91544 353.19443 370.7045 351.09705ZM371.63815 350.55798Q372.69284 352.38474 373.47742 352.74365Q374.262 353.1026 374.88446 352.74323Q375.52045 352.37604 375.58838 351.5249Q375.66983 350.666 374.61514 348.83923Q373.55264 346.9989 372.77588 346.65353Q372.00482 346.28677 371.35532 346.66177Q370.73285 347.02115 370.65866 347.76764Q370.57565 348.71765 371.63815 350.55798ZM377.75104 349.30203L378.60086 348.649Q379.19504 349.33435 379.77704 349.46744Q380.35126 349.58698 380.89252 349.27448Q381.54202 348.89948 381.73077 348.1951Q381.9195 347.49075 381.53668 346.8277Q381.1773 346.20523 380.52344 346.04147Q379.8753 345.85638 379.23932 346.22357Q378.98224 346.372 378.6523 346.70682L378.2918 345.83243Q378.39435 345.79126 378.4485 345.76Q379.03033 345.42407 379.31854 344.86075Q379.61246 344.2761 379.24527 343.6401Q378.9562 343.13943 378.43042 343.00998Q377.89682 342.867 377.35553 343.1795Q376.82782 343.4842 376.65778 344.03342Q376.50125 344.57483 376.78934 345.29257L375.77545 345.66144Q375.4144 344.66107 375.7207 343.81665Q376.01923 342.9587 376.8988 342.4509Q377.50772 342.09933 378.17816 342.0731Q378.84082 342.03333 379.36926 342.3236Q379.8977 342.6139 380.19458 343.1281Q380.46802 343.6017 380.44528 344.1561Q380.41473 344.69696 380.04688 345.21606Q380.78235 344.9899 381.42896 345.2661Q382.06775 345.52878 382.48962 346.2595Q383.05212 347.23376 382.72556 348.3244Q382.41254 349.40723 381.33002 350.03223Q380.35574 350.59473 379.37027 350.38788Q378.377 350.16748 377.75104 349.30203ZM384.5833 348.1359L382.29736 339.20773L383.02808 338.78586L385.31403 347.71402L384.5833 348.1359ZM391.84003 342.6111L392.34784 343.49066L387.42233 346.3344Q387.23483 346.00967 387.1634 345.63593Q387.06375 345.02588 387.18848 344.30438Q387.3267 343.57504 387.74435 342.48593Q388.38406 340.78146 388.46762 339.95743Q388.5647 339.12555 388.26782 338.61136Q387.95532 338.0701 387.35196 337.9313Q386.74078 337.77896 386.11832 338.13834Q385.4553 338.52115 385.28943 339.14014Q385.12357 339.75912 385.5163 340.47058L384.52792 340.91492Q384.01328 339.80478 384.3232 338.9041Q384.6389 337.98215 385.7079 337.36496Q386.7769 336.74777 387.7431 336.9838Q388.70932 337.2198 389.21713 338.09937Q389.47495 338.5459 389.5355 339.0883Q389.60178 339.60934 389.45 340.34647Q389.30396 341.06226 388.80624 342.4502Q388.37924 343.61688 388.28412 344.0146Q388.1947 344.391 388.1865 344.7205L391.84003 342.6111ZM391.4891 339.09705Q390.72348 337.77094 390.53317 336.8163Q390.33505 335.84818 390.6128 335.11047Q390.90405 334.36496 391.71594 333.8962Q392.31134 333.55246 392.8985 333.5382Q393.4992 333.51614 394.06253 333.80435Q394.61804 334.079 395.15543 334.6348Q395.6928 335.19055 396.33344 336.30017Q397.09125 337.61273 397.28152 338.56735Q397.48538 339.51416 397.20193 340.2732Q396.9242 341.0109 396.09875 341.48746Q395.02975 342.10464 393.96198 341.69272Q392.70004 341.19443 391.4891 339.09705ZM392.4228 338.55798Q393.47748 340.38474 394.26202 340.74365Q395.0466 341.1026 395.66907 340.74323Q396.30505 340.37604 396.373 339.5249Q396.45444 338.666 395.39975 336.83923Q394.33725 334.9989 393.5605 334.65353Q392.78943 334.28677 392.13992 334.66177Q391.51746 335.02115 391.44327 335.76764Q391.3603 336.71765 392.4228 338.55798ZM403.9644 335.6111L404.4722 336.49066L399.54666 339.3344Q399.35916 339.00967 399.28775 338.63593Q399.1881 338.02588 399.3128 337.30438Q399.45105 336.57504 399.86868 335.48593Q400.50842 333.78146 400.59198 332.95743Q400.68903 332.12555 400.39215 331.61136Q400.07965 331.0701 399.47632 330.9313Q398.86514 330.77896 398.24268 331.13834Q397.57962 331.52115 397.4138 332.14014Q397.24792 332.75912 397.64066 333.47058L396.65228 333.91492Q396.1376 332.80478 396.44757 331.9041Q396.76324 330.98215 397.83224 330.36496Q398.90125 329.74777 399.86746 329.9838Q400.83365 330.2198 401.34146 331.09937Q401.59927 331.5459 401.65985 332.0883Q401.7261 332.60934 401.57437 333.34647Q401.4283 334.06226 400.9306 335.4502Q400.5036 336.61688 400.40848 337.0146Q400.31906 337.391 400.31082 337.7205L403.9644 335.6111ZM410.02655 332.1111L410.53436 332.99066L405.60886 335.8344Q405.42136 335.50967 405.3499 335.13593Q405.2503 334.52588 405.375 333.80438Q405.5132 333.07504 405.93088 331.98593Q406.5706 330.28146 406.65414 329.45743Q406.75122 328.62555 406.45435 328.11136Q406.14185 327.5701 405.53848 327.4313Q404.9273 327.27896 404.30487 327.63834Q403.6418 328.02115 403.47595 328.64014Q403.3101 329.25912 403.70282 329.97058L402.71445 330.41492Q402.1998 329.30478 402.50977 328.4041Q402.82544 327.48215 403.89444 326.86496Q404.96344 326.24777 405.92963 326.4838Q406.89584 326.7198 407.40366 327.59937Q407.66147 328.0459 407.72202 328.5883Q407.7883 329.10934 407.63654 329.84647Q407.49048 330.56226 406.99277 331.9502Q406.5658 333.11688 406.47064 333.5146Q406.38123 333.891 406.37302 334.2205L410.02655 332.1111Z" fill-rule="nonzero"/><path fill="#000000" d="M528.4285 359.6111L528.93634 360.49066L524.0108 363.3344Q523.8233 363.00964 523.7519 362.63593Q523.6523 362.02588 523.777 361.30435Q523.91516 360.57504 524.3328 359.48593Q524.97253 357.78146 525.0561 356.9574Q525.1532 356.12555 524.8563 355.61136Q524.5438 355.07007 523.9404 354.93127Q523.3293 354.77896 522.70685 355.13834Q522.04376 355.52115 521.8779 356.14014Q521.71204 356.75912 522.1048 357.47058L521.1164 357.91492Q520.60175 356.80475 520.9117 355.9041Q521.22736 354.98212 522.2964 354.36493Q523.36536 353.74774 524.3316 353.98376Q525.2978 354.2198 525.8056 355.09933Q526.0634 355.5459 526.12396 356.0883Q526.19025 356.6093 526.0385 357.34647Q525.89246 358.06226 525.3947 359.4502Q524.9677 360.61685 524.8726 361.0146Q524.7832 361.39096 524.77496 361.7205L528.4285 359.6111ZM528.0776 356.09702Q527.31195 354.77094 527.12164 353.8163Q526.9235 352.84814 527.2013 352.11044Q527.49255 351.36493 528.30444 350.89618Q528.89984 350.55243 529.487 350.5382Q530.0877 350.51614 530.651 350.80435Q531.20654 351.079 531.7439 351.6348Q532.2813 352.19055 532.92194 353.30014Q533.67975 354.6127 533.87006 355.56732Q534.07385 356.51413 533.7904 357.2732Q533.5127 358.0109 532.68726 358.48746Q531.6182 359.10464 530.5505 358.69272Q529.2885 358.19443 528.0776 356.09702ZM529.0113 355.55795Q530.066 357.38474 530.8505 357.74365Q531.63513 358.10257 532.25757 357.7432Q532.89355 357.376 532.9615 356.5249Q533.0429 355.666 531.9882 353.8392Q530.9257 351.9989 530.149 351.6535Q529.3779 351.28677 528.7284 351.66177Q528.10596 352.02115 528.03174 352.76764Q527.9488 353.71765 529.0113 355.55795ZM535.8942 356.6359L533.6083 347.70773L534.339 347.28586L536.62494 356.21402L535.8942 356.6359ZM536.73785 351.09702Q535.9722 349.77094 535.7819 348.8163Q535.5838 347.84814 535.8615 347.11044Q536.1528 346.36493 536.96466 345.89618Q537.56006 345.55243 538.1473 345.5382Q538.7479 345.51614 539.3113 345.80435Q539.86676 346.079 540.4042 346.6348Q540.9415 347.19055 541.58215 348.30014Q542.33997 349.6127 542.5303 350.56732Q542.73413 351.51413 542.4507 352.2732Q542.1729 353.0109 541.3475 353.48746Q540.2785 354.10464 539.21075 353.69272Q537.9488 353.19443 536.73785 351.09702ZM537.6715 350.55795Q538.7262 352.38474 539.5108 352.74365Q540.29535 353.10257 540.9178 352.7432Q541.5538 352.376 541.6217 351.5249Q541.7032 350.666 540.6485 348.8392Q539.586 346.9989 538.8092 346.6535Q538.03815 346.28677 537.3887 346.66177Q536.7662 347.02115 536.692 347.76764Q536.609 348.71765 537.6715 350.55795ZM543.78436 349.302L544.6342 348.649Q545.2284 349.33435 545.8104 349.4674Q546.3846 349.58694 546.92584 349.27444Q547.5754 348.89944 547.7641 348.1951Q547.9528 347.49075 547.57 346.8277Q547.21063 346.20523 546.5568 346.04147Q545.9087 345.85635 545.2727 346.22354Q545.01556 346.37198 544.68567 346.70682L544.32513 345.8324Q544.4277 345.79126 544.4818 345.76Q545.06366 345.42407 545.35187 344.86075Q545.6458 344.2761 545.2786 343.6401Q544.98956 343.13943 544.46375 343.00998Q543.9302 342.867 543.3889 343.1795Q542.86115 343.4842 542.6911 344.03342Q542.5346 344.57483 542.8227 345.29257L541.8088 345.66144Q541.44775 344.66107 541.7541 343.81665Q542.0526 342.95868 542.9321 342.45087Q543.5411 342.0993 544.21155 342.0731Q544.87415 342.0333 545.4026 342.3236Q545.931 342.6139 546.2279 343.12808Q546.50134 343.60168 546.47864 344.1561Q546.4481 344.69693 546.08026 345.21603Q546.8157 344.9899 547.4623 345.26608Q548.1011 345.52875 548.52295 346.25946Q549.08545 347.23376 548.7589 348.3244Q548.4459 349.40723 547.36334 350.03223Q546.3891 350.59473 545.4036 350.38788Q544.41034 350.16748 543.78436 349.302ZM550.6167 348.1359L548.3307 339.20773L549.0614 338.78586L551.3474 347.71402L550.6167 348.1359ZM557.87335 342.6111L558.38116 343.49066L553.4557 346.3344Q553.2682 346.00964 553.1967 345.63593Q553.0971 345.02588 553.2218 344.30435Q553.36005 343.57504 553.7777 342.48593Q554.4174 340.78146 554.501 339.9574Q554.598 339.12555 554.30115 338.61136Q553.98865 338.07007 553.3853 337.93127Q552.7741 337.77896 552.1517 338.13834Q551.48865 338.52115 551.32275 339.14014Q551.1569 339.75912 551.5496 340.47058L550.5613 340.91492Q550.04663 339.80475 550.35657 338.9041Q550.67224 337.98212 551.7413 337.36493Q552.81024 336.74774 553.7764 336.98376Q554.7427 337.2198 555.2505 338.09933Q555.5083 338.5459 555.56885 339.0883Q555.63513 339.6093 555.48334 340.34647Q555.3373 341.06226 554.8396 342.4502Q554.4126 343.61685 554.31744 344.0146Q554.228 344.39096 554.21985 344.7205L557.87335 342.6111ZM557.52246 339.09702Q556.75684 337.77094 556.5665 336.8163Q556.3684 335.84814 556.6461 335.11044Q556.9374 334.36493 557.74927 333.89618Q558.34467 333.55243 558.9319 333.5382Q559.53253 333.51614 560.0959 333.80435Q560.65137 334.079 561.1888 334.6348Q561.72614 335.19055 562.36676 336.30014Q563.1246 337.6127 563.3149 338.56732Q563.51874 339.51413 563.2353 340.2732Q562.9575 341.0109 562.1321 341.48746Q561.0631 342.10464 559.99536 341.69272Q558.7334 341.19443 557.52246 339.09702ZM558.4561 338.55795Q559.5108 340.38474 560.2954 340.74365Q561.07996 341.10257 561.7024 340.7432Q562.33844 340.376 562.4063 339.5249Q562.4878 338.666 561.4331 336.8392Q560.3706 334.9989 559.5938 334.6535Q558.8228 334.28677 558.1733 334.66177Q557.5508 335.02115 557.4766 335.76764Q557.3936 336.71765 558.4561 338.55795ZM569.99774 335.6111L570.50555 336.49066L565.58 339.3344Q565.3925 339.00964 565.3211 338.63593Q565.2215 338.02588 565.3462 337.30435Q565.4844 336.57504 565.90204 335.48593Q566.54175 333.78146 566.6253 332.9574Q566.7224 332.12555 566.42554 331.61136Q566.11304 331.07007 565.50964 330.93127Q564.8985 330.77896 564.27606 331.13834Q563.613 331.52115 563.44714 332.14014Q563.28125 332.75912 563.674 333.47058L562.6856 333.91492Q562.17096 332.80475 562.48096 331.9041Q562.79663 330.98212 563.8656 330.36493Q564.93463 329.74774 565.9008 329.98376Q566.867 330.2198 567.3748 331.09933Q567.6326 331.5459 567.6932 332.0883Q567.75946 332.6093 567.6077 333.34647Q567.4617 334.06226 566.9639 335.4502Q566.5369 336.61685 566.44183 337.0146Q566.3524 337.39096 566.3442 337.7205L569.99774 335.6111ZM576.05994 332.1111L576.56775 332.99066L571.6422 335.8344Q571.4547 335.50964 571.38324 335.13593Q571.2836 334.52588 571.4083 333.80435Q571.5466 333.07504 571.96423 331.98593Q572.60394 330.28146 572.6875 329.4574Q572.78455 328.62555 572.4877 328.11136Q572.1752 327.57007 571.57184 327.43127Q570.9607 327.27896 570.3382 327.63834Q569.6752 328.02115 569.50934 328.64014Q569.34344 329.25912 569.73615 329.97058L568.7478 330.41492Q568.23315 329.30475 568.5431 328.4041Q568.85876 327.48212 569.9278 326.86493Q570.99677 326.24774 571.963 326.48376Q572.9292 326.7198 573.437 327.59933Q573.6948 328.0459 573.7554 328.5883Q573.82166 329.1093 573.66986 329.84647Q573.52386 330.56226 573.0261 331.9502Q572.5991 333.11685 572.504 333.5146Q572.4146 333.89096 572.4064 334.2205L576.05994 332.1111Z" fill-rule="nonzero"/></svg>